<?xml version="1.0" encoding="utf-8"?>
<!-- Generator: Adobe Illustrator 18.0.0, SVG Export Plug-In . SVG Version: 6.00 Build 0)  -->
<!DOCTYPE svg PUBLIC "-//W3C//DTD SVG 1.1//EN" "http://www.w3.org/Graphics/SVG/1.1/DTD/svg11.dtd">
<svg version="1.1" id="Layer_1" xmlns="http://www.w3.org/2000/svg" xmlns:xlink="http://www.w3.org/1999/xlink" x="0px" y="0px"
	 viewBox="0 0 64 64" enable-background="new 0 0 64 64" xml:space="preserve">
<g>
	<path d="M62.8,28.1c-2.4-5.1-7.2-6.2-7.4-6.2c-4.9-1.5-9.6-1.1-13.1,1.3c-3.2,2.1-5.1,5.6-5.5,9.8v2.7l-3.5,8l3,0.1l-0.2,4
		c0,0.7,0.2,1.4,0.8,1.9c0.5,0.5,1.2,0.8,1.9,0.7l3.3,0l0,8l1.5,0l0-9.4l-4.8,0c-0.3,0-0.6-0.1-0.8-0.3c-0.2-0.2-0.3-0.5-0.3-0.8
		l0.2-5.5l-2.3-0.1l2.8-6.3l0-2.9c0.3-3.7,2-6.7,4.8-8.6c3.1-2.1,7.3-2.5,11.9-1.1c0,0,4.4,1,6.4,5.4c2.2,4.8,1,11.6-3.5,20.3
		c-0.7,1.7-1,3.4-1,5.3v3.9h1.5v-3.9c0-1.6,0.3-3.2,0.9-4.6C64,40.6,65.2,33.3,62.8,28.1z"/>
	<rect x="48.6" y="48.8" width="1.5" height="1.5"/>
	<rect x="45.6" y="48.8" width="1.5" height="1.5"/>
	<path d="M27.6,29.1l3-0.1l-3.5-8l0-2.7c-0.4-4.1-2.3-7.6-5.5-9.7c-3.5-2.3-8.1-2.8-13-1.3c-0.2,0-5.1,1.2-7.4,6.2
		C-1.2,18.8,0,26.1,4.7,35.1c0.6,1.5,0.9,3.1,0.9,4.7v3.9h1.5v-3.9c0-1.8-0.3-3.6-1.1-5.3C1.5,25.8,0.3,19,2.5,14.2
		c2-4.4,6.4-5.4,6.5-5.5c4.5-1.4,8.7-1,11.8,1.1c2.8,1.9,4.5,4.9,4.8,8.5v3l2.8,6.3l-2.3,0.1l0.2,5.5c0,0.3-0.1,0.6-0.3,0.8
		c-0.2,0.2-0.5,0.3-0.9,0.3l-4.8,0l0,9.4l1.5,0l0-8l3.3,0c0.7,0,1.4-0.2,1.9-0.7c0.5-0.5,0.8-1.2,0.8-1.9L27.6,29.1z"/>
	<rect x="13.9" y="34.3" width="1.5" height="1.5"/>
	<rect x="16.9" y="34.3" width="1.5" height="1.5"/>
	<path d="M60.4,1.9h-5.8v14.8h5.8V1.9z M58.9,15.3H56V3.4h2.9V15.3z"/>
	<path d="M51.6,5.5h-5.8v11.2h5.8V5.5z M50.2,15.3h-2.9V7h2.9V15.3z"/>
	<path d="M42.8,9.6H37v7.2h5.8V9.6z M41.4,15.3h-2.9V11h2.9V15.3z"/>
	<polygon points="22.1,49.1 23.9,50.9 6.8,50.9 6.8,52.3 23.9,52.3 22.1,54.1 23.2,55.1 26.7,51.6 23.2,48.1 	"/>
	<polygon points="9.3,55 5.7,58.5 9.3,62.1 10.3,61 8.5,59.3 25.7,59.3 25.7,57.8 8.5,57.8 10.3,56 	"/>
</g>
</svg>
