<?xml version="1.0" encoding="utf-8"?>
<!-- Generator: Adobe Illustrator 18.0.0, SVG Export Plug-In . SVG Version: 6.00 Build 0)  -->
<!DOCTYPE svg PUBLIC "-//W3C//DTD SVG 1.1//EN" "http://www.w3.org/Graphics/SVG/1.1/DTD/svg11.dtd">
<svg version="1.1" id="Layer_1" xmlns="http://www.w3.org/2000/svg" xmlns:xlink="http://www.w3.org/1999/xlink" x="0px" y="0px"
	 viewBox="0 0 64 64" enable-background="new 0 0 64 64" xml:space="preserve">
<g>
	<rect x="6.9" y="15.3" width="33.5" height="1.5"/>
	<rect x="6.9" y="21" width="19.7" height="1.5"/>
	<rect x="11.5" y="32.4" width="1.5" height="1.5"/>
	<rect x="25.3" y="32.4" width="1.5" height="1.5"/>
	<rect x="6.9" y="32.4" width="1.5" height="1.5"/>
	<rect x="20.7" y="32.4" width="1.5" height="1.5"/>
	<rect x="29.9" y="32.4" width="1.5" height="1.5"/>
	<rect x="16.1" y="32.4" width="1.5" height="1.5"/>
	<rect x="6.9" y="26.7" width="30.6" height="1.5"/>
	<path d="M47.3,17.2V9.6H0v29.7h7.2l0,7.6l8.4-7.6h1v7.6h31.6l8.4,7.6l0-7.6H64V17.2H47.3z M15.1,37.8l-6.4,5.7l0-5.7H1.5V11.1h44.3
		v26.7H15.1z M62.5,45.4h-7.2l0,5.7l-6.4-5.7H18.2v-6.2h29.1V18.7h15.3V45.4z"/>
	<rect x="49.4" y="24.8" width="10.1" height="1.5"/>
	<rect x="49.4" y="31.5" width="10.1" height="1.5"/>
	<rect x="54.6" y="38.2" width="1.5" height="1.5"/>
	<rect x="58" y="38.2" width="1.5" height="1.5"/>
	<rect x="51.2" y="38.2" width="1.5" height="1.5"/>
</g>
</svg>
