<?xml version="1.0" encoding="utf-8"?>
<!-- Generator: Adobe Illustrator 18.0.0, SVG Export Plug-In . SVG Version: 6.00 Build 0)  -->
<!DOCTYPE svg PUBLIC "-//W3C//DTD SVG 1.1//EN" "http://www.w3.org/Graphics/SVG/1.1/DTD/svg11.dtd">
<svg version="1.1" id="Layer_1" xmlns="http://www.w3.org/2000/svg" xmlns:xlink="http://www.w3.org/1999/xlink" x="0px" y="0px"
	 viewBox="0 0 64 64" enable-background="new 0 0 64 64" xml:space="preserve">
<g>
	<path d="M63.7,40.3c-0.4-0.9-2-3.2-5-2.1l-14.2,6.3c0-0.2,0.1-0.5,0.1-0.7c0-1.9-1.6-3.5-3.5-3.6v0h0c0,0,0,0-0.1,0v0h-4.5V25.4
		c0,0,0-0.1,0-0.1c0,0,0-0.1,0-0.1c0,0-0.2-4.1,1-7.6c1.2,1.6,2.9,2.6,4.8,2.9c0.4,0,0.7,0.1,1.1,0.1c2.2,0,3.9-0.8,5.8-1.7
		c4-1.9,8.4-3.4,13.5-4.7c0.4-0.1,0.6-0.5,0.6-0.8c-0.1-0.4-0.4-0.6-0.8-0.6c-3.2,0.3-6.9-2.4-9.6-4.4c-0.3-0.2-0.6-0.4-0.9-0.7
		c-2.2-1.5-5-2.4-7.6-2.4c-3.5,0-6.2,1.6-7.6,4.6c-0.9,1.9-1,4.1-0.2,6.1c-1.2,3-1.8,6.4-1.6,10.2c-0.4-0.6-0.8-1.3-1.4-1.9
		c0.3-1.7-0.2-3.4-1.3-4.6c-1.1-1.2-2.5-1.9-4.1-1.9c-2.6,0-5.2,1.7-6.5,3.4l-0.5,0.6c-1.4,1.8-3.2,4.2-5.2,4.6
		c-0.4,0.1-0.6,0.4-0.6,0.8c0,0.4,0.3,0.7,0.8,0.6c3.3-0.2,6.7,0,9.6,0.4c0.8,0.1,1.6,0.2,2.3,0.2c0.9,0,1.8-0.2,2.6-0.5
		c1-0.5,1.8-1.2,2.4-2.2c1.4,1.8,1.9,3.8,2,4.2v10.3h-3.8l-7.5-3.5c-1.5-0.7-3.3-1.1-5-1.1H13v-2.6H2.4v1.5h9.1v20.3H0v1.5h13v-2.6
		h4.4L31,58.3c0.9,0.3,1.9,0.5,2.8,0.5c1.4,0,2.8-0.3,4.1-1l23.7-12.4C62.6,45,64.8,43.3,63.7,40.3z M38,10.4
		c1.5-3.1,4.2-3.7,6.2-3.7c2.3,0,4.8,0.8,6.7,2.2c0.3,0.2,0.6,0.4,0.9,0.6c2,1.4,4.5,3.2,7,4.1c-3.8,1.1-7.2,2.4-10.4,3.9
		c-2.1,1-3.8,1.8-6.1,1.5c-1.8-0.2-3.3-1.3-4.2-2.9c0-0.1-0.1-0.1-0.1-0.2c0.3-0.5,0.9-1.4,1.9-2.1c0.6,0,2.6,0.1,4,1.2
		c0.1,0.1,0.3,0.2,0.5,0.2c0.2,0,0.4-0.1,0.6-0.3c0.3-0.3,0.2-0.8-0.1-1c-0.9-0.7-1.9-1.1-2.8-1.3c0.8-0.3,1.8-0.5,2.9-0.4
		c1.3,0.1,3.1,0.4,5.1,1.6c0.4,0.2,0.8,0.1,1-0.3c0.2-0.4,0.1-0.8-0.3-1c-2.2-1.4-4.3-1.7-5.7-1.8c-3.5-0.3-6.2,1.7-7.7,3.4
		C37.3,12.9,37.5,11.6,38,10.4z M29.6,22c-0.1,0-1.9-0.5-4.1,0.7c-0.4,0.2-0.5,0.6-0.3,1c0.2,0.4,0.6,0.5,1,0.3c1.7-0.9,3-0.6,3-0.5
		c1,0.3,1.9,0.7,2.6,1.3c-0.3,0.9-1,1.6-1.8,2c-1.2,0.5-2.6,0.4-4.1,0.2c-2.1-0.3-4.4-0.5-6.9-0.5c1.3-1.1,2.4-2.5,3.2-3.6
		c1.7-2.4,3.7-3.3,5.8-3.5c1.2,0,2.2,0.5,3,1.4c0.6,0.7,1,1.5,1,2.4C31.4,22.6,30.6,22.2,29.6,22z M61,44L37.2,56.5
		c-1.8,0.9-3.9,1.1-5.7,0.4l-13.8-4.6l-4.7,0V37.2h5.8c1.5,0,3,0.3,4.3,1l7.8,3.6H41c1.1,0,2,1,2,2.1c0,1.2-0.9,2.1-2.1,2.1H29
		l-0.1,0c-1.1,0.2-3.1,1.1-3.1,3.2h1.5c0-1.3,1.5-1.7,1.8-1.8H41v0c0.6,0,1.1-0.2,1.6-0.4l0,0l16.6-7.3c0.6-0.2,1.2-0.2,1.8,0
		c0.6,0.2,1,0.7,1.3,1.3C62.8,42.3,62.2,43.7,61,44z"/>
	<rect x="7" y="50.3" width="1.5" height="1.8"/>
	<rect x="3.8" y="50.3" width="1.5" height="1.8"/>
</g>
</svg>
