<?xml version="1.0" encoding="utf-8"?>
<!-- Generator: Adobe Illustrator 18.0.0, SVG Export Plug-In . SVG Version: 6.00 Build 0)  -->
<!DOCTYPE svg PUBLIC "-//W3C//DTD SVG 1.1//EN" "http://www.w3.org/Graphics/SVG/1.1/DTD/svg11.dtd">
<svg version="1.1" id="Layer_1" xmlns="http://www.w3.org/2000/svg" xmlns:xlink="http://www.w3.org/1999/xlink" x="0px" y="0px"
	 viewBox="0 0 64 64" enable-background="new 0 0 64 64" xml:space="preserve">
<g>
	<path d="M60.2,28.1c-1.8,0-3.4,1.3-3.7,3.1h-4.1v-11l-9.6-5.6l2.2-3.3c1.8,0.7,3.7,0,4.6-1.4C50.2,9,50.4,8,50.2,7
		c-0.2-1-0.8-1.9-1.6-2.4c-1.7-1.1-4-0.8-5.3,1.1c-1,1.5-0.8,3.6,0.5,4.8l-2.3,3.4L32,8.4L22.4,14l-2.3-3.5c1.4-1.3,1.5-3.2,0.5-4.8
		C19.9,4.6,18.7,4,17.4,4c0,0-2.7-0.1-3.7,3c-0.2,1,0,2,0.6,2.9c1.2,1.6,2.8,2.1,4.6,1.4l2.3,3.4l-9.5,5.5v11H7.5
		c-0.3-1.7-1.9-3.1-3.7-3.1c-2.1,0-3.8,1.7-3.8,3.8s1.7,3.8,3.8,3.8c1.8,0,3.4-1.3,3.7-3.1h4.1v11l9.5,5.5l-2.3,3.5
		c-0.5-0.2-0.9-0.3-1.4-0.3c-1.3,0-2.5,0.6-3.2,1.7C13.7,55,13.5,56,13.7,57c0.2,1,0.8,1.9,1.6,2.4c1.8,1.1,3.8,0.8,5.3-1.1
		c0.6-0.8,0.8-1.9,0.6-2.9c-0.2-0.8-0.5-1.4-1.1-1.9l2.4-3.6l9.6,5.5l9.4-5.5l2.3,3.5c-1.3,1.3-1.5,3.3-0.5,4.8
		c1.4,1.8,3.4,2.1,5.3,1.1c1.7-1.2,2.2-3.5,1.1-5.3c-1.1-1.5-2.7-2.1-4.6-1.4l-2.3-3.4l9.7-5.6v-11h4.1c0.3,1.7,1.9,3.1,3.7,3.1
		c2.1,0,3.8-1.7,3.8-3.8S62.3,28.1,60.2,28.1z M44.5,6.5c1.1-1.2,2.1-1.3,3.2-0.7c0.5,0.3,0.9,0.9,1,1.5c0.7,1.4-1.5,3.7-3.6,2.4
		C44.1,9,43.8,7.6,44.5,6.5z M18.7,9.7c-1,0.7-2.6,0.4-3.2-0.7c-0.3-0.5-0.5-1.1-0.3-1.8C15.7,5,18.3,5,19.3,6.5
		C20,7.7,19.8,9,18.7,9.7z M3.8,34.3c-1.3,0-2.3-1-2.3-2.3c0-1.3,1-2.3,2.3-2.3c1.3,0,2.3,1,2.3,2.3C6.1,33.2,5.1,34.3,3.8,34.3z
		 M16.1,58.2c-2.1-1.7-0.7-4.3,1.3-4.3c1.2,0,1.9,0.7,2.3,1.9C19.9,58,18,59.2,16.1,58.2z M45.1,54.3c1.3-0.7,2.3-0.5,3.2,0.7
		c0.7,1.1,0.4,2.5-0.7,3.2c-1,0.7-2.6,0.4-3.2-0.7C43.8,56.4,44.1,55,45.1,54.3z M50.9,42.9L32,53.8L13.1,42.9V21L32,10.1L50.9,21
		V42.9z M60.2,34.3c-1.3,0-2.3-1-2.3-2.3c0-1.3,1-2.3,2.3-2.3c1.3,0,2.3,1,2.3,2.3C62.5,33.2,61.5,34.3,60.2,34.3z"/>
	<path d="M42.8,24.7h-5.9v-1.8c0-0.9-0.8-1.7-1.7-1.7h-6.5c-0.9,0-1.7,0.8-1.7,1.7v1.8h-5.9c-0.9,0-1.7,0.8-1.7,1.7V39
		c0,0.9,0.8,1.7,1.7,1.7h21.6c0.9,0,1.7-0.8,1.7-1.7V26.4C44.5,25.4,43.7,24.7,42.8,24.7z M28.5,22.9c0-0.1,0.1-0.2,0.2-0.2h6.5
		c0.1,0,0.2,0.1,0.2,0.2v1.8h-6.9V22.9z M43,39c0,0.1-0.1,0.2-0.2,0.2H21.2c-0.1,0-0.2-0.1-0.2-0.2v-6.1c2.1,2,6.2,3.3,11,3.3
		c4.8,0,9-1.3,11-3.3V39z M43,29.9c0,2.4-4.4,4.9-11,4.9c-6.6,0-11-2.5-11-4.9v-3.5c0-0.1,0.1-0.2,0.2-0.2h21.6
		c0.1,0,0.2,0.1,0.2,0.2V29.9z"/>
	<rect x="29.9" y="31.6" width="4.3" height="1.5"/>
</g>
</svg>
