<?xml version="1.0" encoding="utf-8"?>
<!-- Generator: Adobe Illustrator 18.0.0, SVG Export Plug-In . SVG Version: 6.00 Build 0)  -->
<!DOCTYPE svg PUBLIC "-//W3C//DTD SVG 1.1//EN" "http://www.w3.org/Graphics/SVG/1.1/DTD/svg11.dtd">
<svg version="1.1" id="Layer_1" xmlns="http://www.w3.org/2000/svg" xmlns:xlink="http://www.w3.org/1999/xlink" x="0px" y="0px"
	 viewBox="0 0 64 64" enable-background="new 0 0 64 64" xml:space="preserve">
<g>
	<path d="M64,36.3l-5.3-12.1l0-4.3c-0.4-4.8-4.2-9.7-7.8-12.5c-7.1-5.5-14.5-4.8-17.4-4.2c-0.5,0.1-1,0.2-1.5,0.4
		c-0.5-0.1-1-0.3-1.5-0.4c-2.8-0.6-10.2-1.3-17.4,4.2C9.6,10.2,5.7,15.1,5.3,20v4.3L0,36.3l4.6,0.1l-0.3,6.8c0,1,0.3,2,1.1,2.7
		C6.1,46.6,7.1,47,8,47l5.6,0l0,14h7.5v-1.4h-6.1l0-14l-7.1,0c-1.4-0.1-2.2-0.8-2.3-2.2L6.1,35L2.2,35l4.6-10.4l0-4.5
		C7.1,16.3,10,11.7,14,8.6C20,4,26.1,4,29.2,4.5c-1,0.4-2,0.9-2.9,1.4c-2.2,1.3-4.1,2.9-5.7,4.7c-1.5,1.8-2.7,3.7-3.5,5.7
		c-2.1,5.2-2.1,11,0.2,17.3c0.8,2.1,2,4.2,3.3,6.4c2.5,4.1,5.1,8.3,5.1,13.8v7.4h1.4v-7.4c0-5.8-2.8-10.4-5.3-14.5
		c-1.3-2.1-2.5-4.1-3.2-6.1c-2.1-5.9-2.2-11.4-0.2-16.3c0.8-1.9,1.9-3.7,3.3-5.3C23.2,9.8,25,8.3,27,7.1c1.9-1.1,4.1-1.9,6.8-2.5
		c2.6-0.5,9.5-1.2,16.2,3.9c4,3.1,6.9,7.7,7.3,11.4v4.6L61.8,35L57.9,35l0.3,8.2c0,0.6-0.2,1.2-0.6,1.6c-0.4,0.4-1,0.6-1.7,0.6
		l-7.1,0l0,14h-3.7V61h5.2l0-14l5.6,0c1,0.1,2-0.3,2.7-1c0.7-0.7,1.1-1.7,1.1-2.7l-0.3-6.8L64,36.3z"/>
	<rect x="45.1" y="48.7" width="1.4" height="1.4"/>
	<rect x="45.1" y="54.9" width="1.4" height="1.4"/>
	<rect x="45.1" y="51.8" width="1.4" height="1.4"/>
	<path d="M43.7,22.8l-4.1-0.8l8-10.2L36.2,9.4l-7.5,14.7l4.4,0.9l-5.8,15.3L43.7,22.8z M30.9,23.1L37,11.1l8.1,1.6l-8,10.2l3.9,0.8
		L31.3,34L35,24L30.9,23.1z"/>
</g>
</svg>
