<?xml version="1.0" encoding="utf-8"?>
<!-- Generator: Adobe Illustrator 18.0.0, SVG Export Plug-In . SVG Version: 6.00 Build 0)  -->
<!DOCTYPE svg PUBLIC "-//W3C//DTD SVG 1.1//EN" "http://www.w3.org/Graphics/SVG/1.1/DTD/svg11.dtd">
<svg version="1.1" id="Layer_1" xmlns="http://www.w3.org/2000/svg" xmlns:xlink="http://www.w3.org/1999/xlink" x="0px" y="0px"
	 viewBox="0 0 64 64" enable-background="new 0 0 64 64" xml:space="preserve">
<g>
	<path d="M32,18.3c2.1,0,3.8-1.7,3.8-3.8c0-2.1-1.7-3.8-3.8-3.8c-2.1,0-3.8,1.7-3.8,3.8C28.2,16.6,29.9,18.3,32,18.3z M32,12.1
		c1.3,0,2.4,1.1,2.4,2.4c0,1.3-1.1,2.4-2.4,2.4c-1.3,0-2.4-1.1-2.4-2.4C29.6,13.2,30.7,12.1,32,12.1z"/>
	<path d="M59.2,34.1l-0.3-11.3h2.1V12.3c0-2.4-2-4.4-4.4-4.4h-0.4l-1.8,3.4h-0.2l-1.8-3.4h-0.4c-2.4,0-4.4,2-4.4,4.4v10.5h2.1
		l-0.3,11.3c-2,0.4-4.8,1.3-4.8,3.1c0,1.5,1.9,2.5,4.4,3l-9.6,13.7c-0.2,0-0.4-0.1-0.7-0.1L38,38.3h2.7V24.5c0-3.1-2.5-5.6-5.6-5.6
		h-0.4l-2.4,4.6h-0.5l-2.4-4.6h-0.4c-3.1,0-5.6,2.5-5.6,5.6v13.7H26l-0.5,15.5c-0.2,0-0.4,0.1-0.7,0.1l-9.6-13.7
		c2.5-0.6,4.4-1.5,4.4-3c0-1.8-2.8-2.7-4.8-3.1l-0.3-11.3h2.1V12.3c0-2.4-2-4.4-4.4-4.4h-0.4l-1.8,3.4H9.7L7.9,7.9H7.5
		c-2.4,0-4.4,2-4.4,4.4v10.5h2.1L4.8,34.1c-2,0.4-4.8,1.3-4.8,3.1c0,2.4,5.1,3.6,9.8,3.6c1.3,0,2.6-0.1,3.8-0.3l9.7,13.8
		c-2.7,0.8-4.2,2-4.2,3.4c0,3,6.5,4.5,12.9,4.5c6.4,0,12.9-1.5,12.9-4.5c0-1.4-1.5-2.6-4.2-3.4l9.7-13.8c1.2,0.2,2.5,0.3,3.8,0.3
		c4.7,0,9.8-1.1,9.8-3.6C64,35.4,61.2,34.5,59.2,34.1z M4.5,21.4v-9c0-1.5,1.1-2.7,2.5-2.9l1.8,3.4h1.9l1.8-3.4
		c1.4,0.2,2.5,1.4,2.5,2.9v9h-0.6L14.3,16l-1.5,0L13.4,36h-1.3l-1.6-12.8l-0.7,0.1l-0.7-0.1L7.5,36H6.2L6.8,16l-1.5,0l-0.2,5.4H4.5z
		 M1.5,37.2c0-0.3,0.9-1.1,3.3-1.6l-0.1,1.8h4.1l1-8.3l1,8.3h4.1l-0.1-1.8c2.4,0.5,3.3,1.3,3.3,1.6c0,0.6-2.8,2.1-8.3,2.1
		C4.3,39.3,1.5,37.8,1.5,37.2z M24.7,36.8V24.5c0-2.2,1.6-3.9,3.7-4.1l2.4,4.5h2.3l2.4-4.5c2.1,0.2,3.7,2,3.7,4.1v12.3H38l-0.2-7.4
		l-1.5,0l0.8,26.8h-2.2L32.8,39L32,39.1L31.2,39l-2.1,17.3h-2.2l0.8-26.8l-1.5,0L26,36.8H24.7z M43.4,57.7c0,1.2-4.4,3-11.4,3
		c-7,0-11.4-1.8-11.4-3c0-0.6,1.3-1.7,4.9-2.4l-0.1,2.4h5L32,44.9l1.6,12.8h5l-0.1-2.4C42.1,56,43.4,57.2,43.4,57.7z M48.9,21.4v-9
		c0-1.5,1.1-2.7,2.5-2.9l1.8,3.4h1.9L57,9.4c1.4,0.2,2.5,1.4,2.5,2.9v9h-0.6L58.7,16l-1.5,0L57.8,36h-1.3l-1.6-12.8l-0.7,0.1
		l-0.7-0.1L51.9,36h-1.3L51.1,16l-1.5,0l-0.2,5.4H48.9z M54.2,39.3c-5.5,0-8.3-1.5-8.3-2.1c0-0.3,0.9-1.1,3.3-1.6l-0.1,1.8h4.1
		l1-8.3l1,8.3h4.1l-0.1-1.8c2.4,0.5,3.3,1.3,3.3,1.6C62.5,37.8,59.7,39.3,54.2,39.3z"/>
	<path d="M54.2,7.9c1.7,0,3.1-1.4,3.1-3.1c0-1.7-1.4-3.1-3.1-3.1c-1.7,0-3.1,1.4-3.1,3.1C51.1,6.5,52.5,7.9,54.2,7.9z M54.2,3.2
		c0.9,0,1.6,0.7,1.6,1.6c0,0.9-0.7,1.6-1.6,1.6c-0.9,0-1.6-0.7-1.6-1.6C52.6,3.9,53.3,3.2,54.2,3.2z"/>
	<path d="M9.8,7.9c1.7,0,3.1-1.4,3.1-3.1c0-1.7-1.4-3.1-3.1-3.1c-1.7,0-3.1,1.4-3.1,3.1C6.8,6.5,8.1,7.9,9.8,7.9z M9.8,3.2
		c0.9,0,1.6,0.7,1.6,1.6c0,0.9-0.7,1.6-1.6,1.6c-0.9,0-1.6-0.7-1.6-1.6C8.2,3.9,8.9,3.2,9.8,3.2z"/>
</g>
</svg>
