<?xml version="1.0" encoding="utf-8"?>
<!-- Generator: Adobe Illustrator 18.0.0, SVG Export Plug-In . SVG Version: 6.00 Build 0)  -->
<!DOCTYPE svg PUBLIC "-//W3C//DTD SVG 1.1//EN" "http://www.w3.org/Graphics/SVG/1.1/DTD/svg11.dtd">
<svg version="1.1" id="Layer_1" xmlns="http://www.w3.org/2000/svg" xmlns:xlink="http://www.w3.org/1999/xlink" x="0px" y="0px"
	 viewBox="0 0 64 64" enable-background="new 0 0 64 64" xml:space="preserve">
<g>
	<path d="M33.7,5.9V2.2H21.9v3.7h-9.3v19.3h30.3V5.9H33.7z M23.4,3.7h8.8v2.2h-8.8V3.7z M41.5,23.7H14.2v-8.3
		c2.4,2.6,7.5,4.3,13.6,4.3c6.1,0,11.2-1.7,13.6-4.3V23.7z M41.5,12.1c0,3.3-6.2,6.1-13.6,6.1c-7.4,0-13.6-2.8-13.6-6.1V7.4h27.3
		V12.1z"/>
	<rect x="25.2" y="14.3" width="5.2" height="1.5"/>
	<polygon points="58.4,60.3 58.4,57.8 56.9,57.8 56.9,60.3 50.1,60.3 50.1,57.8 48.7,57.8 48.7,60.3 41.9,60.3 41.9,57.8 40.4,57.8 
		40.4,60.3 33.7,60.3 33.7,57.8 32.2,57.8 32.2,60.3 25.4,60.3 25.4,57.8 24,57.8 24,60.3 17.2,60.3 17.2,57.8 15.7,57.8 15.7,60.3 
		9,60.3 9,57.8 7.5,57.8 7.5,60.3 1.5,60.3 1.5,55.5 4,55.5 4,54 1.5,54 1.5,47.7 4,47.7 4,46.3 1.5,46.3 1.5,40 4,40 4,38.5 
		1.5,38.5 1.5,32.2 4,32.2 4,30.7 1.5,30.7 1.5,24.4 4,24.4 4,22.9 1.5,22.9 1.5,16.6 4,16.6 4,15.1 1.5,15.1 1.5,9.6 0,9.6 0,61.8 
		64,61.8 64,60.3 	"/>
	<polygon points="8.8,51 14.9,44.9 24,54 32.9,45.1 41.5,53.8 55.8,53.8 53.1,56.5 54.2,57.6 58.7,53.1 54.2,48.6 53.1,49.6 
		55.8,52.3 42.2,52.3 32.9,43 24,51.9 15.9,43.9 19.9,39.9 41.5,39.9 60.3,21.1 60.3,25 61.8,25 61.8,18.6 55.4,18.6 55.4,20.1 
		59.3,20.1 40.9,38.5 19.2,38.5 14.9,42.8 8.8,36.7 7.7,37.8 13.8,43.9 7.7,50 	"/>
</g>
</svg>
