<?xml version="1.0" encoding="utf-8"?>
<!-- Generator: Adobe Illustrator 18.0.0, SVG Export Plug-In . SVG Version: 6.00 Build 0)  -->
<!DOCTYPE svg PUBLIC "-//W3C//DTD SVG 1.1//EN" "http://www.w3.org/Graphics/SVG/1.1/DTD/svg11.dtd">
<svg version="1.1" id="Layer_1" xmlns="http://www.w3.org/2000/svg" xmlns:xlink="http://www.w3.org/1999/xlink" x="0px" y="0px"
	 viewBox="0 0 64 64" enable-background="new 0 0 64 64" xml:space="preserve">
<g>
	<path d="M8,37.8h4.2l-0.4-15h2.1V12.1c0-2.5-2-4.5-4.5-4.5H8.9L7,11.1H6.8L4.9,7.6H4.5C2,7.6,0,9.6,0,12.1v10.8h2.1l-0.4,15h4.2
		l1.1-8.7L8,37.8z M4.6,36.4H3.2l0.6-20.5l-1.5,0l-0.2,5.5H1.5v-9.3c0-1.5,1.1-2.8,2.6-3L6,12.5h2l1.9-3.5c1.5,0.2,2.6,1.5,2.6,3
		v9.3h-0.7l-0.2-5.5l-1.5,0l0.6,20.5H9.3L7.7,23.2l-0.7,0.1l-0.7-0.1L4.6,36.4z"/>
	<path d="M6.9,7.5c1.7,0,3.1-1.4,3.1-3.1c0-1.7-1.4-3.1-3.1-3.1c-1.7,0-3.1,1.4-3.1,3.1C3.8,6.1,5.2,7.5,6.9,7.5z M6.9,2.7
		c0.9,0,1.7,0.7,1.7,1.7S7.8,6,6.9,6C6,6,5.3,5.3,5.3,4.3S6,2.7,6.9,2.7z"/>
	<path d="M64,12.1c0-2.5-2-4.5-4.5-4.5h-0.4l-1.9,3.5H57l-1.9-3.5h-0.4c-2.5,0-4.5,2-4.5,4.5v10.8h2.1l-0.4,15H56l1.1-8.7l1.1,8.7
		h4.2l-0.4-15H64V12.1z M62.5,21.4h-0.7l-0.2-5.5l-1.5,0l0.6,20.5h-1.4l-1.6-13.1l-0.7,0.1l-0.7-0.1l-1.6,13.1h-1.4l0.6-20.5l-1.5,0
		l-0.2,5.5h-0.7v-9.3c0-1.5,1.1-2.8,2.6-3l1.9,3.5h2l1.9-3.5c1.5,0.2,2.6,1.5,2.6,3V21.4z"/>
	<path d="M57.1,7.5c1.7,0,3.1-1.4,3.1-3.1c0-1.7-1.4-3.1-3.1-3.1c-1.7,0-3.1,1.4-3.1,3.1C54,6.1,55.4,7.5,57.1,7.5z M57.1,2.7
		c0.9,0,1.7,0.7,1.7,1.7S58,6,57.1,6c-0.9,0-1.7-0.7-1.7-1.7S56.2,2.7,57.1,2.7z"/>
	<path d="M44.8,31.9c2.2-2.5,3.6-5.5,4-8.9c1.1-8.4-4.4-16.5-12.6-18.5C34.8,4.2,33.4,4,32.1,4c-9,0-16.4,7.1-16.8,16.1
		C15,26,17.7,31.3,22.2,34.5v6.2h3.1l-0.6,22h0.8h4.8L32,47.6l1.9,15.2h5.5l-0.6-22h3.1V38l10.1,14.1c0.8,1.1,2,1.8,3.4,1.8
		c0.9,0,1.9-0.3,2.6-0.9c0.9-0.7,1.5-1.8,1.5-2.9c0.1-1.1-0.3-2.3-1.1-3.1L44.8,31.9z M40.4,39.3h-1.7l0-1.3l-1.5,0l0.7,23.3h-2.7
		l-2.4-19.6L32,41.8l-0.8-0.1l-2.4,19.6h-2.7l0.7-23.3l-1.5,0l0,1.3h-1.7v-3.8c1.7,1,3.6,1.7,5.6,2c3.8,0.6,7.6,0,10.9-1.8l0.2,0.3
		V39.3z M57,51.9c-1.2,0.9-3,0.7-3.9-0.6L40.6,33.7L40,34.1c-3.1,1.9-6.9,2.6-10.5,2c-7.6-1.3-13.1-8.1-12.8-15.8
		C17.1,12,23.8,5.5,32.1,5.5c1.3,0,2.5,0.2,3.8,0.5c7.4,1.8,12.5,9.3,11.5,16.9c-0.4,3.2-1.8,6.2-4.1,8.5l-0.5,0.5l14.5,16
		c0.5,0.5,0.8,1.3,0.7,2C57.9,50.7,57.6,51.4,57,51.9z"/>
	<path d="M35.6,19h-0.4l-2.8,5.2h-0.7L28.9,19h-0.4c-3.5,0-6.3,2.8-6.3,6.3v6.3h1.5v-6.3c0-2.5,1.9-4.6,4.4-4.8l2.8,5.1h2.5l2.8-5.1
		c2.5,0.2,4.4,2.3,4.4,4.8v6.5h1.5v-6.5C41.8,21.8,39,19,35.6,19z"/>
	<path d="M32,18.1c2.3,0,4.2-1.9,4.2-4.2c0-2.3-1.9-4.2-4.2-4.2c-2.3,0-4.2,1.9-4.2,4.2C27.8,16.2,29.7,18.1,32,18.1z M32,11.1
		c1.5,0,2.8,1.2,2.8,2.8c0,1.5-1.2,2.8-2.8,2.8c-1.5,0-2.8-1.2-2.8-2.8C29.2,12.4,30.5,11.1,32,11.1z"/>
</g>
</svg>
