<?xml version="1.0" encoding="utf-8"?>
<!-- Generator: Adobe Illustrator 18.0.0, SVG Export Plug-In . SVG Version: 6.00 Build 0)  -->
<!DOCTYPE svg PUBLIC "-//W3C//DTD SVG 1.1//EN" "http://www.w3.org/Graphics/SVG/1.1/DTD/svg11.dtd">
<svg version="1.1" id="Layer_1" xmlns="http://www.w3.org/2000/svg" xmlns:xlink="http://www.w3.org/1999/xlink" x="0px" y="0px"
	 viewBox="0 0 64 64" enable-background="new 0 0 64 64" xml:space="preserve">
<g>
	<path d="M63.2,40.7c-2.5,1.7-4.9,3.5-7.3,5.3c-0.5,0.4-1.1,0.5-1.6,0.1l-8.3-12.2c-0.1-0.1-0.1-0.3-0.1-0.5
		c0.1-0.3,0.4-0.7,0.8-0.9c1.8-1.1,3.5-2.2,5.3-3.3L51,27.9c-1.7,1.1-3.4,2.2-5.2,3.3c-0.6,0.4-1,0.9-1.3,1.5H19.5
		c-0.2-0.6-0.7-1.1-1.3-1.5c-1.8-1.1-3.5-2.2-5.2-3.3l-0.8,1.2c1.7,1.1,3.5,2.3,5.3,3.3c0.4,0.2,0.7,0.6,0.8,0.9
		c0,0.2,0,0.4-0.1,0.5L9.7,46.1c-0.1,0.1-0.2,0.2-0.4,0.3c-0.4,0.1-0.8-0.1-1.1-0.4c-2.4-1.8-4.9-3.6-7.3-5.3L0,41.9
		c2.4,1.7,4.9,3.4,7.2,5.3c0.6,0.4,1.2,0.7,1.9,0.7c0.1,0,0.3,0,0.4,0c0.6-0.1,1.1-0.4,1.4-0.9l0.6-0.9c0.6,0.5,1.3,1.2,1.6,1.9
		c0.1,0.3,0.2,0.4,0.3,0.6c0,0.1,0.1,0.2,0.1,0.3c-0.3,0.2-0.6,0.4-0.8,0.7c-1.1,1.4-0.8,3.5,0.7,4.6l0.1,0.1
		c0.8,0.6,1.6,0.7,2.5,0.6c0,0.2,0,0.4,0,0.5c0.1,0.9,0.6,1.7,1.3,2.2c0.9,0.6,1.9,0.8,2.8,0.5c0,0.1,0,0.2,0,0.4
		c0.1,0.9,0.6,1.7,1.3,2.2c0.9,0.7,1.9,0.8,3,0.5c0,0.1,0,0.1,0,0.2c0.1,0.8,0.5,1.5,1.2,2c0.5,0.4,1.1,0.6,1.8,0.6
		c0.9,0,1.7-0.4,2.3-1.1c0.6,0.4,1.2,0.5,1.8,0.5c1.1,0,2.2-0.5,2.9-1.5c0.4-0.6,0.6-1.3,0.6-2l0.9,0.6c1.5,1.1,3.7,0.7,4.8-0.9
		c0.4-0.6,0.6-1.3,0.6-2l0.2,0.1c1.6,1,3.8,0.7,4.8-0.9c0.4-0.6,0.6-1.3,0.6-2l0.5,0.3c1.7,1.1,3.9,0.6,4.8-0.9
		c0.5-0.8,0.7-1.7,0.5-2.6c-0.2-0.9-0.7-1.7-1.4-2.2l-11.3-7.6H38c-3.7,0-4.2-3-4.2-3.1L33.7,38H26l-0.1,0.6c-0.3,1.8-0.9,3-1.9,3.6
		c-0.5,0.3-1.1,0.4-1.4,0.4v-5.1l5.9-3.3h0.9h15c1.2,2.2,5.1,7.6,8.6,12.8c1,1.2,2.4,1.2,3.7,0.2c2.4-1.8,4.8-3.6,7.2-5.3L63.2,40.7
		z M17.2,52.3l-0.4,0.5c0,0,0,0.1-0.1,0.1c-0.6,0.5-1.6,0.6-2.2,0.1l-0.1-0.1c-0.8-0.6-1-1.7-0.4-2.5c0.3-0.5,0.9-0.7,1.4-0.7
		c0.4,0,0.7,0.1,1.1,0.3l0.1,0.1c0.4,0.3,0.6,0.7,0.7,1.2C17.4,51.7,17.3,52,17.2,52.3z M20.9,55.9c-0.6,0.8-1.8,1-2.6,0.4
		c-0.4-0.3-0.7-0.7-0.7-1.2c-0.1-0.5,0-0.9,0.3-1.3c0.1-0.1,0.2-0.2,0.2-0.3c0.1-0.1,0.2-0.3,0.3-0.5l0.7-0.9
		c0.4-0.5,0.9-0.8,1.5-0.8c0.4,0,0.8,0.1,1.1,0.4c0.4,0.3,0.7,0.7,0.7,1.2c0.1,0.5,0,1-0.3,1.4L20.9,55.9z M25.1,59
		c-0.6,0.8-1.8,1-2.6,0.4c-0.4-0.3-0.7-0.7-0.7-1.2c-0.1-0.5,0-1,0.3-1.4l0.7-0.9l0.5-0.6c0,0,0,0,0,0l1-1.4
		c0.4-0.5,0.9-0.8,1.5-0.8c0.4,0,0.8,0.1,1.1,0.4c0.8,0.6,1,1.8,0.4,2.6L25.1,59z M29.1,61.3l-0.3,0.4c-0.5,0.7-1.5,0.8-2.1,0.3
		c-0.3-0.2-0.5-0.6-0.6-1c-0.1-0.4,0-0.8,0.3-1.1l0.3-0.4c0.3-0.4,0.7-0.6,1.2-0.6c0.3,0,0.6,0.1,0.9,0.3
		C29.5,59.7,29.6,60.7,29.1,61.3z M21.1,36.6v7.2l0.5,0.2c0.1,0,1.6,0.5,3.2-0.4c1.2-0.7,2-2.1,2.5-4h5.2c0.5,1.6,2,3.7,5.5,3.7h1.7
		l10.9,7.4c0.9,0.7,1.1,1.6,0.5,2.7c-0.8,0.9-1.8,1.1-2.8,0.5L45.6,52h0l-7.8-5.4L37,47.8l7.8,5.4c0.4,0.3,0.7,0.7,0.8,1.3
		c0.1,0.5,0,1-0.3,1.5c-0.8,0.9-1.7,1.1-2.7,0.5l-7.8-5.4l-0.1,0.1l0,0l-0.8,1.2l5.3,3.5c0.4,0.3,0.7,0.7,0.8,1.3
		c0.1,0.5,0,1-0.3,1.5c-0.6,0.9-1.9,1.1-2.7,0.5l-5-3.6L31,56.8l1.9,1.3l0,0.1c0.4,0.3,0.7,0.7,0.8,1.3c0.1,0.5,0,1-0.3,1.5
		c-0.6,0.9-1.8,1.1-2.7,0.5c0.5-1.2,0.1-2.7-1-3.5c-0.5-0.3-1-0.5-1.6-0.5l0.3-0.5c1.1-1.5,0.8-3.6-0.7-4.7c-0.6-0.4-1.3-0.7-2-0.7
		c-0.7,0-1.4,0.3-2,0.7c-0.2-0.7-0.6-1.3-1.2-1.7c-0.6-0.4-1.3-0.7-2-0.7c-0.7,0-1.4,0.2-2,0.7C18.4,50,18,49.4,17.5,49l-0.1-0.1
		c-0.7-0.5-1.5-0.7-2.4-0.6c-0.1-0.1-0.1-0.3-0.2-0.4c-0.1-0.2-0.2-0.4-0.3-0.7c-0.5-1-1.5-1.9-2.1-2.4l6.9-10
		c0.1-0.2,0.2-0.4,0.3-0.6h5.9L21.1,36.6z"/>
	<rect x="54.4" y="42.6" transform="matrix(-0.8532 0.5216 -0.5216 -0.8532 124.8661 51.6169)" width="1.5" height="1.5"/>
	<rect x="8.1" y="42.6" transform="matrix(0.8213 0.5706 -0.5706 0.8213 26.3206 2.7012)" width="1.5" height="1.5"/>
	<path d="M12.8,21.6l5.4-2.9l5.4,2.9l-1.1-6l2.4-2.3l1.2,1.2l-1.4,8.1l7.3-3.9l7.3,3.9l-1.4-8.1l1.2-1.2l2.4,2.3l-1.1,6l5.4-2.9
		l5.4,2.9l-1.1-6l4.4-4.3l-6.1-0.8l-2.7-5.5l-2.7,5.5l-1.4,0.2l2-1.9l-8.2-1.1L32,0.2l-3.6,7.4l-8.2,1.1l2,1.9l-1.4-0.2l-2.7-5.5
		l-2.7,5.5l-6.1,0.8l4.4,4.3L12.8,21.6z M44.1,11.8l1.7-3.5l1.7,3.5l3.8,0.5L48.6,15l0.7,3.8L45.8,17l-3.4,1.8l0.7-3.8l-2.8-2.7
		L44.1,11.8z M29.4,8.9L32,3.6l2.6,5.4l5.9,0.8l-4.3,4.1l1,5.9L32,17l-5.3,2.8l1-5.9l-4.3-4.1L29.4,8.9z M12.6,12.3l3.8-0.5l1.7-3.5
		l1.7,3.5l3.8,0.5L20.9,15l0.7,3.8L18.2,17l-3.4,1.8l0.7-3.8L12.6,12.3z"/>
</g>
</svg>
