<?xml version="1.0" encoding="utf-8"?>
<!-- Generator: Adobe Illustrator 18.0.0, SVG Export Plug-In . SVG Version: 6.00 Build 0)  -->
<!DOCTYPE svg PUBLIC "-//W3C//DTD SVG 1.1//EN" "http://www.w3.org/Graphics/SVG/1.1/DTD/svg11.dtd">
<svg version="1.1" id="Layer_1" xmlns="http://www.w3.org/2000/svg" xmlns:xlink="http://www.w3.org/1999/xlink" x="0px" y="0px"
	 viewBox="0 0 64 64" enable-background="new 0 0 64 64" xml:space="preserve">
<g>
	<path d="M42,32.6c0.2-2.7-0.7-5.2-2.5-7.2c-1.8-2-4.2-3.2-6.9-3.4c-5.5-0.4-10.2,3.9-10.6,9.3c-0.2,2.7,0.7,5.2,2.5,7.2
		c1.8,2,4.2,3.2,6.9,3.4c0.2,0,0.4,0,0.6,0C37.3,42,41.6,37.9,42,32.6z M31.5,40.5c-2.3-0.1-4.3-1.2-5.8-2.9
		c-1.5-1.7-2.2-3.9-2.1-6.1c0.3-4.5,4-7.9,8.4-7.9c0.2,0,0.4,0,0.5,0c2.3,0.1,4.3,1.2,5.8,2.9c1.5,1.7,2.2,3.9,2.1,6.1
		C40.2,37.2,36.2,40.8,31.5,40.5z"/>
	<path d="M55,45.2c-2.5,0-4.7,0.9-6.5,2.5L41.9,41c0.4-0.5,0.8-0.9,1.2-1.4l2.7,0.6l1.7-3.9l-2.3-1.5c0.3-1.7,0.4-3.4,0-5.1l2.3-1.5
		l-1.6-3.9l-2.7,0.5c-0.3-0.4-0.6-0.8-0.9-1.1l6.8-6.8c1.7,1.3,3.7,2.1,6,2.1c5.4,0,9.7-4.4,9.7-9.7c0-5.3-4.4-9.7-9.7-9.7
		s-9.7,4.4-9.7,9.7c0,2.5,1,4.9,2.6,6.6l-6.7,6.7c-0.5-0.5-1.1-1-1.7-1.4l0.6-2.7l-3.9-1.7l-1.5,2.3c-1.7-0.3-3.4-0.4-5.1,0L28,16.6
		l-3.9,1.6l0.5,2.7c-0.6,0.4-1.1,0.8-1.6,1.3l-6.7-6.7c1.5-1.7,2.4-3.9,2.4-6.3c0-5.3-4.4-9.7-9.7-9.7s-9.7,4.4-9.7,9.7
		c0,5.4,4.4,9.7,9.7,9.7c2.4,0,4.6-0.9,6.3-2.3l6.7,6.7c-0.3,0.4-0.7,0.8-1,1.2l-2.7-0.6l-1.7,3.9l2.3,1.5c-0.3,1.7-0.4,3.4,0,5.1
		L16.6,36l1.6,3.9l2.7-0.5c0.4,0.7,0.9,1.3,1.5,1.8l-6.7,6.7c-1.7-1.7-4.1-2.7-6.7-2.7c-5.4,0-9.7,4.4-9.7,9.7s4.4,9.7,9.7,9.7
		s9.7-4.4,9.7-9.7c0-2.2-0.7-4.2-2-5.9l6.8-6.8c0.3,0.3,0.6,0.5,1,0.7l-0.6,2.7l3.9,1.7l1.5-2.3c1.7,0.3,3.4,0.4,5.1,0l1.5,2.3
		l3.9-1.6l-0.5-2.7c0.5-0.3,0.9-0.7,1.4-1.1l6.8,6.8c-1.4,1.7-2.2,3.8-2.2,6.1c0,5.4,4.4,9.7,9.7,9.7s9.7-4.4,9.7-9.7
		S60.4,45.2,55,45.2z M60.8,14.9c-1.5,1.4-3.5,2.3-5.7,2.3c-2.2,0-4.2-0.9-5.7-2.3v-1.6c0-0.5,0.3-1,0.7-1.3l2.9-1.8c0,0,0,0,0.1,0
		c1.4,0.8,2.7,0.8,4,0c0,0,0,0,0.1,0l2.9,1.8c0.4,0.3,0.7,0.8,0.7,1.3V14.9z M52.8,7c0-1.3,1-2.3,2.3-2.3c1.3,0.1,2.1,0.8,2.3,2.3
		c0,0.7-0.3,1.3-0.8,1.7C55.1,9.8,52.9,9.2,52.8,7z M47.9,13c-0.7-1.2-1-2.5-1-4c0-4.5,3.7-8.2,8.2-8.2c4.5,0,8.2,3.7,8.2,8.2
		c0,1.4-0.4,2.8-1,4c-0.1-0.9-0.6-1.7-1.4-2.2l-2.7-1.7c0.4-0.6,0.7-1.3,0.7-2.1c-0.2-2.3-1.5-3.7-3.8-3.8c-2.1,0-3.8,1.7-3.8,3.8
		c0,0.8,0.2,1.5,0.7,2.1l-2.7,1.7C48.5,11.3,48,12.1,47.9,13z M14.7,14.9c-1.5,1.4-3.5,2.3-5.7,2.3s-4.2-0.9-5.7-2.3v-1.6
		c0-0.5,0.3-1,0.7-1.3l2.9-1.8c1.3,0.8,2.7,0.8,4.1,0l2.9,1.8c0.4,0.3,0.7,0.8,0.7,1.3V14.9z M6.7,7c0-1.3,1-2.3,2.3-2.3
		c1.3,0.1,2.2,0.8,2.3,2.3c0,0.7-0.3,1.3-0.8,1.7C8.9,9.9,6.7,9.1,6.7,7z M14.7,10.8l-2.7-1.7c0.4-0.6,0.7-1.3,0.7-2.1
		C12.6,4.7,11.2,3.4,9,3.2C6.9,3.2,5.2,4.9,5.2,7c0,0.8,0.2,1.5,0.7,2.1l-2.7,1.7c-0.8,0.5-1.3,1.3-1.4,2.2c-0.7-1.2-1-2.5-1-4
		c0-4.5,3.7-8.2,8.2-8.2c4.5,0,8.2,3.7,8.2,8.2c0,1.4-0.4,2.8-1,4C16,12.1,15.5,11.3,14.7,10.8z M14.7,60.8
		c-1.5,1.4-3.5,2.3-5.7,2.3s-4.2-0.9-5.7-2.3v-1.6c0-0.5,0.3-1,0.7-1.3l2.9-1.8c1.3,0.8,2.9,0.8,4.1,0l2.9,1.8
		c0.4,0.3,0.7,0.8,0.7,1.3V60.8z M6.7,52.9c0-1.3,1-2.3,2.3-2.3c1.3,0.1,2.2,0.9,2.3,2.3c0,0.7-0.3,1.3-0.8,1.7
		C8.9,56,6.6,54.6,6.7,52.9z M17.2,54.9c0,1.4-0.4,2.8-1,4c-0.1-0.9-0.6-1.7-1.4-2.2L12.1,55c0.4-0.6,0.7-1.3,0.7-2.1
		c0-2.3-1.6-3.6-3.8-3.8c-2.1,0-3.8,1.7-3.8,3.8c0,0.8,0.2,1.5,0.6,2.1l-2.7,1.7c-0.8,0.5-1.3,1.3-1.4,2.2c-0.7-1.2-1-2.5-1-4
		c0-4.5,3.7-8.2,8.2-8.2C13.5,46.7,17.2,50.4,17.2,54.9z M37.7,42.4l0.5,2.5l-1.7,0.7l-1.4-2.1c-2.1,0.6-4.3,0.5-6.4,0l-1.4,2.1
		l-1.7-0.7l0.5-2.5c-1.7-0.9-3.2-2.5-4.5-4.6l-2.5,0.5l-0.7-1.7l2.1-1.4c-0.6-2.2-0.5-4.3,0-6.4l-2.1-1.4l0.7-1.7l2.5,0.5
		c1.2-2,2.7-3.5,4.6-4.5l-0.5-2.5l1.7-0.7l1.4,2.1c2.1-0.6,4.3-0.6,6.4,0l1.4-2.1l1.7,0.7l-0.5,2.5c1.9,1.2,3.5,2.7,4.5,4.6l2.5-0.5
		l0.7,1.7l-2.1,1.4c0.5,2.2,0.6,4.3,0,6.4l2.1,1.4l-0.7,1.7l-2.5-0.5C41,39.9,39.5,41.5,37.7,42.4z M60.8,60.8
		c-1.5,1.4-3.5,2.3-5.7,2.3c-2.2,0-4.2-0.9-5.7-2.3v-1.6c0-0.5,0.3-1,0.7-1.3l2.9-1.8c0,0,2.1,1.3,4.1,0l2.9,1.8
		c0.4,0.3,0.7,0.8,0.7,1.3V60.8z M52.8,52.9c0-1.3,1-2.3,2.3-2.3c0.8,0,1.4,0.4,2,1.1c0.2,0.4,0.3,0.8,0.3,1.2
		c0,0.7-0.3,1.3-0.8,1.7c-0.6,0.6-1.6,0.7-2.3,0.4C53.3,54.6,52.8,53.9,52.8,52.9z M62.2,58.9c-0.1-0.9-0.6-1.7-1.4-2.2L58.2,55
		c0.4-0.6,0.7-1.3,0.7-2.1c-0.1-2.2-1.6-3.7-3.8-3.8c-2.1,0-3.8,1.7-3.8,3.8c0,0.8,0.2,1.5,0.6,2.1l-2.7,1.7
		c-0.8,0.5-1.3,1.3-1.4,2.2c-0.7-1.2-1-2.5-1-4c0-4.5,3.7-8.2,8.2-8.2c4.5,0,8.2,3.7,8.2,8.2C63.3,56.4,62.9,57.7,62.2,58.9z"/>
</g>
</svg>
