<?xml version="1.0" encoding="utf-8"?>
<!-- Generator: Adobe Illustrator 18.0.0, SVG Export Plug-In . SVG Version: 6.00 Build 0)  -->
<!DOCTYPE svg PUBLIC "-//W3C//DTD SVG 1.1//EN" "http://www.w3.org/Graphics/SVG/1.1/DTD/svg11.dtd">
<svg version="1.1" id="Layer_1" xmlns="http://www.w3.org/2000/svg" xmlns:xlink="http://www.w3.org/1999/xlink" x="0px" y="0px"
	 viewBox="0 0 64 64" enable-background="new 0 0 64 64" xml:space="preserve">
<g>
	<path d="M43.7,35.7c-0.4-1.1-1-2.1-1.7-3.1l-1.2,0.8c0.6,0.9,1.1,1.9,1.5,2.9c0.7,1.7,1.1,3.5,1.2,5.3h-1.9v1.5h1.9
		c-0.1,1.9-0.5,3.7-1.2,5.5c0,0.1,0,0.1-0.1,0.2c-0.3,0.6-0.5,1.1-0.8,1.7c-0.6,1.1-1.4,2.2-2.4,3.1l-0.3,0.3
		c-0.3,0.3-0.7,0.6-1,0.9c-1.2,1-2.6,1.9-4.1,2.5c-1.7,0.7-3.5,1.1-5.3,1.2v-1.9h-1.5v1.9c-1.9-0.1-3.7-0.5-5.5-1.2
		c-2-0.8-3.8-2-5.3-3.6c-1.5-1.5-2.6-3.2-3.4-5.2c-0.7-1.7-1.1-3.5-1.2-5.3h1.9v-1.5h-1.9c0.1-1.9,0.5-3.7,1.2-5.5
		c0.6-1.5,1.4-2.8,2.4-4c0.4-0.4,0.7-0.9,1.2-1.3c0.9-0.9,2-1.7,3.1-2.4c0.5-0.3,1.1-0.6,1.7-0.8l-0.3-0.7l0.3,0.7
		c0.1-0.1,0.3-0.1,0.4-0.2c1.7-0.7,3.5-1.1,5.3-1.2v3.1c-0.9,0.1-1.8,0.2-2.6,0.4l0,0c0,0,0,0,0,0c0,0,0,0,0,0l0,0
		c-0.5,0.1-1,0.3-1.6,0.5c-0.1,0.1-0.3,0.1-0.4,0.2c-1.3,0.6-2.6,1.4-3.7,2.5c-0.5,0.4-0.9,0.9-1.3,1.4c-0.7,0.9-1.2,1.8-1.6,2.8
		c-0.7,1.6-1,3.3-1,5c0,1.7,0.3,3.3,1,4.9c0.6,1.6,1.6,3,2.7,4.2c1.2,1.2,2.7,2.2,4.3,2.9c1.6,0.7,3.3,1,5,1c0,0,0,0,0,0
		c1.7,0,3.3-0.3,4.9-1c1.1-0.4,2.1-1,2.9-1.7c0.4-0.3,0.8-0.6,1.2-1c0.1-0.1,0.2-0.2,0.3-0.3c1-1,1.8-2.3,2.5-3.6
		c0.1-0.1,0.1-0.3,0.2-0.4c0.2-0.5,0.4-1.1,0.6-1.6h0c0,0,0,0,0,0c0,0,0,0,0,0l0,0c0.3-1.1,0.5-2.3,0.4-3.4c0-1.7-0.3-3.3-1-4.9
		c-0.1-0.3-0.2-0.6-0.4-0.9c-0.1-0.2-0.3-0.5-0.4-0.7l-1.3,0.7c0.1,0.2,0.2,0.4,0.3,0.6c0.1,0.3,0.2,0.5,0.3,0.8
		c0.6,1.4,0.9,2.8,0.9,4.3c0,1-0.1,2-0.4,3l0.7,0.2l-0.7-0.2c-0.1,0.5-0.3,1-0.5,1.5c0,0.1-0.1,0.2-0.1,0.3
		c-0.5,1.2-1.3,2.3-2.2,3.2c-0.1,0.1-0.1,0.2-0.2,0.2c-0.4,0.3-0.7,0.6-1.1,0.9c-0.8,0.6-1.7,1.1-2.6,1.5c-1.4,0.6-2.8,0.8-4.3,0.9
		c-1.5,0-3-0.3-4.5-0.9c-1.4-0.6-2.7-1.5-3.8-2.6c-1-1.1-1.8-2.3-2.4-3.7c-0.6-1.4-0.9-2.8-0.9-4.3c0-1.5,0.3-3,0.9-4.5
		c0.4-0.9,0.9-1.8,1.5-2.5c0.3-0.4,0.7-0.9,1.2-1.3c0.9-0.9,2-1.6,3.2-2.2c0.1-0.1,0.3-0.1,0.4-0.2c0.5-0.2,0.9-0.3,1.4-0.5
		l-0.2-0.7l0.2,0.7c1-0.3,1.9-0.4,2.9-0.4c0,0,0,0,0,0c1.5,0,3,0.3,4.4,0.9c1.3,0.5,2.4,1.3,3.4,2.2l-1.9,1.9
		c-0.7-0.7-1.6-1.2-2.5-1.6c-0.9-0.4-1.8-0.6-2.6-0.6l0,0c0,0,0,0,0,0c0,0,0,0,0,0l0,0c-0.2,0-0.5,0-0.7,0c0,0,0,0,0,0
		c-0.7,0-1.3,0.1-1.9,0.2c-0.5,0.1-0.9,0.2-1.4,0.4c-1,0.4-1.9,1-2.7,1.8l-0.1,0.1c-0.5,0.5-0.9,1-1.2,1.5c-0.3,0.4-0.5,0.9-0.7,1.4
		c-0.5,1.1-0.7,2.2-0.7,3.4c0,1.1,0.2,2.2,0.7,3.3c0.4,1,1,2,1.8,2.8c0.8,0.8,1.8,1.5,2.9,2c1.1,0.5,2.2,0.7,3.4,0.7
		c1.1,0,2.3-0.2,3.3-0.7c0.5-0.2,0.9-0.4,1.3-0.7l0.2-0.1c0.5-0.3,0.9-0.7,1.3-1.1c0.1-0.1,0.2-0.2,0.2-0.2c0.7-0.8,1.3-1.6,1.7-2.6
		c0.2-0.5,0.3-0.9,0.5-1.4c0.1-0.6,0.2-1.3,0.2-2c0-0.2,0-0.5,0-0.7l-0.7,0.1l0.7-0.1c-0.1-0.9-0.3-1.8-0.6-2.6l-1.4,0.6
		c0.3,0.7,0.4,1.4,0.5,2.1c0,0.2,0,0.4,0,0.6c0,0.5-0.1,1.1-0.2,1.6c-0.1,0.4-0.2,0.8-0.4,1.2c-0.3,0.8-0.8,1.5-1.4,2.2
		c-0.1,0.1-0.1,0.1-0.2,0.2c-0.3,0.3-0.6,0.5-0.9,0.8l-0.2,0.1c-0.4,0.2-0.8,0.5-1.2,0.6c-0.9,0.4-1.8,0.5-2.7,0.5
		c-1,0-1.9-0.2-2.8-0.6c-0.9-0.4-1.7-0.9-2.4-1.6c-0.7-0.7-1.2-1.5-1.5-2.3c-0.4-0.9-0.5-1.8-0.5-2.7c0-1,0.2-1.9,0.6-2.8
		c0.2-0.4,0.4-0.8,0.6-1.2c0.3-0.4,0.6-0.8,1-1.2l-0.5-0.5l0.6,0.5c0.6-0.6,1.4-1.1,2.2-1.4c0.4-0.2,0.7-0.3,1.1-0.4
		c0.5-0.1,1-0.2,1.6-0.2c0.2,0,0.4,0,0.6,0l0.1-0.7L28,35.1c0.7,0.1,1.5,0.2,2.2,0.5c0.7,0.3,1.4,0.7,2,1.3l-2.5,2.5
		c-0.4-0.3-0.9-0.5-1.4-0.6v0c0,0,0,0,0,0c0,0,0,0,0,0l0,0c-2-0.4-3.9,0.6-4.6,2.5c-0.2,0.5-0.3,1-0.3,1.5c0,2.2,1.8,4.1,4.1,4.1
		c0.5,0,1-0.1,1.5-0.3l0,0c0,0,0,0,0,0c0,0,0,0,0,0l0,0c1.3-0.5,2.2-1.6,2.5-2.9l-1.5-0.3c-0.2,0.8-0.8,1.5-1.6,1.9l0.3,0.7
		l-0.3-0.7c-0.3,0.1-0.6,0.2-0.9,0.2c-1.4,0-2.6-1.1-2.6-2.6c0-0.3,0.1-0.6,0.2-0.9c0.5-1.1,1.7-1.8,2.9-1.6l0.2-0.7l-0.2,0.7
		c0.2,0,0.4,0.1,0.6,0.2l-1.7,1.7l1.1,1.1l17.4-17.4l4.5,0.9l8.4-8.4l-5.4-1.1L51.8,12l-8.4,8.4l0.9,4.5l-4.7,4.7
		c-1.6-1.5-3.3-2.7-5.3-3.5c-2-0.8-4-1.2-6.1-1.3V13.5V1.6V0h-1.5v1.1c-0.9-0.3-1.9-0.4-3-0.4c-1.8,0-3.6,0.4-5.3,0.8
		c-1.7,0.4-3.4,0.7-5,0.7c-1.3,0-2.4-0.2-3.5-0.7L8.7,1v11.8L9.2,13c1.3,0.6,2.6,0.8,4.1,0.8h0c1.8,0,3.6-0.4,5.3-0.8
		c1.7-0.4,3.4-0.7,5-0.7c1.1,0,2.1,0.2,3,0.5v12c-2,0.1-4,0.5-5.9,1.3c-0.1,0.1-0.3,0.1-0.4,0.2l0,0c0,0,0,0,0,0c0,0,0,0,0,0l0,0
		c-0.6,0.3-1.2,0.6-1.8,0.9c-1.2,0.7-2.4,1.6-3.4,2.6c-0.5,0.5-0.9,0.9-1.3,1.4c-1.1,1.3-2,2.8-2.6,4.4c-0.8,1.9-1.3,4-1.3,6.1H5.8
		v1.5h4.1c0.1,2,0.5,4,1.3,5.9c0.9,2.1,2.1,4,3.7,5.6c1.6,1.7,3.6,3,5.8,3.9c1.9,0.8,4,1.3,6.1,1.3V64h1.5v-4.1c2-0.1,4-0.5,5.9-1.3
		c1.6-0.7,3.2-1.6,4.5-2.7c0.4-0.3,0.8-0.6,1.2-1.1l0.3-0.3c1-1,1.9-2.2,2.6-3.4c0.3-0.6,0.6-1.2,0.9-1.8c0-0.1,0.1-0.2,0.1-0.3
		c0.8-1.9,1.3-4,1.3-6.1H49v-1.5H45C44.9,39.6,44.5,37.6,43.7,35.7z M50.8,15l0.7,3.6l3.6,0.7l-5.9,5.9l-3.6-0.7L45,20.9L50.8,15z
		 M33.6,27.5c1.8,0.8,3.4,1.8,4.8,3.2l-2.2,2.2c-1.1-1-2.4-1.9-3.8-2.5c-1.4-0.6-2.8-0.9-4.3-1v-3.1C30,26.4,31.9,26.8,33.6,27.5z
		 M23.6,10.8c-1.8,0-3.6,0.4-5.3,0.8c-1.7,0.4-3.4,0.7-5,0.7h0c-1.1,0-2.1-0.2-3-0.5V3.2c0.9,0.3,1.9,0.4,3,0.4
		c1.8,0,3.6-0.4,5.3-0.8c1.7-0.4,3.4-0.7,5-0.7c1.1,0,2.1,0.2,3,0.5v8.6C25.7,11,24.7,10.8,23.6,10.8z"/>
</g>
</svg>
