<?xml version="1.0" encoding="utf-8"?>
<!-- Generator: Adobe Illustrator 18.0.0, SVG Export Plug-In . SVG Version: 6.00 Build 0)  -->
<!DOCTYPE svg PUBLIC "-//W3C//DTD SVG 1.1//EN" "http://www.w3.org/Graphics/SVG/1.1/DTD/svg11.dtd">
<svg version="1.1" id="Layer_1" xmlns="http://www.w3.org/2000/svg" xmlns:xlink="http://www.w3.org/1999/xlink" x="0px" y="0px"
	 viewBox="0 0 64 64" enable-background="new 0 0 64 64" xml:space="preserve">
<g>
	<path d="M45.2,35.5c2.1-0.9,3.5-3,3.5-5.4c0-0.9-0.2-1.7-0.5-2.4c1.6-0.6,2.7-2.2,2.7-4c0-1.6-0.8-3-2.2-3.7
		c0.4-0.7,0.7-1.6,0.7-2.5c0-2.7-2.2-4.9-4.9-4.9c-0.1,0-0.2,0-0.3,0l-0.1-0.1c-0.1-1.7-1.2-3.4-3.5-3.4c-0.3,0-0.6,0.1-1,0.2
		c-0.2-1.5-1.4-2.6-2.9-2.6c-1.6,0-3,1.3-3,3v28.1c0,1.6,1.3,3,3,3c1.2,0,2.3-0.8,2.7-1.8c0.6,0.3,1.2,0.5,1.8,0.5
		c0.2,0,0.4,0,0.6,0C43.8,39,45.2,37.4,45.2,35.5z M41.7,37.8c-1.3,0.2-2.5-0.7-2.7-2L37.5,36c0.1,0.7,0.4,1.3,0.7,1.8
		c0,0.8-0.7,1.4-1.5,1.4c-0.8,0-1.5-0.7-1.5-1.5v-4.6c0.1-0.4,0.7-2.9,3.1-2.9l0-1.5c-1.4,0-2.4,0.6-3.1,1.3v-8.5c0.4,0,1,0,1.6,0.3
		c0.5,0.3,0.8,0.8,1,1.5l1.4-0.4c-0.3-1.1-0.9-1.9-1.8-2.4c-0.8-0.5-1.7-0.5-2.3-0.5v-5.9c0.4,0,0.9,0.2,1.3,0.8l1.3-0.7
		c-0.7-1.2-1.7-1.5-2.6-1.5V9.6c0-0.8,0.7-1.5,1.5-1.5c0.8,0,1.5,0.7,1.5,1.5c0,0.3-0.1,0.6-0.3,0.8c0,0-0.1,0.1-0.1,0.1l0.6,0.4
		l0.6,0.5c0.1-0.1,0.1-0.1,0.2-0.2c0.4-0.4,0.9-0.7,1.5-0.7c1.9,0,2,1.7,2,2.2v0.3l1,0.9l0.3,0c0.1,0,0.3,0,0.4,0
		c1.9,0,3.4,1.5,3.4,3.4c0,1.3-0.8,2.5-2,3.1l0.6,1.3c0.4-0.2,0.8-0.5,1.2-0.8c1,0.5,1.6,1.4,1.6,2.5c0,1.3-0.9,2.4-2,2.7
		C46.8,25.6,46,25,45,24.6L44.5,26c1.7,0.7,2.8,2.3,2.8,4.1c0,2.4-2,4.4-4.4,4.4V36c0.3,0,0.6,0,0.8-0.1
		C43.5,36.9,42.7,37.7,41.7,37.8z"/>
	<path d="M42.4,19.8l1.4-0.6c-1.2-2.6-3.9-2.7-5.1-2.4l0.3,1.4C39.1,18.2,41.4,17.7,42.4,19.8z"/>
	<path d="M43.3,27.5l-1.4,0.4c0,0.1,0.5,1.7-1.2,2.7l0.8,1.3C43.5,30.6,43.6,28.4,43.3,27.5z"/>
	<path d="M32.5,37.7V9.6c0-1.6-1.3-3-3-3c-1.4,0-2.6,1-2.9,2.3L13.9,6.3L4,25.9l5.9,1.2L2.4,46.9l15.1-16.1c0.5,1.9,2,3.7,3.7,4.5
		c0,1.9,1.3,3.6,3.3,3.9c0.2,0,0.4,0,0.6,0c0.7,0,1.3-0.2,1.8-0.5c0.4,1.1,1.5,1.8,2.7,1.8C31.2,40.7,32.5,39.4,32.5,37.7z M11.9,26
		l-5.7-1.2L14.7,8l11.5,2.3L15.4,24.2l5.3,1.1L6.4,40.5L11.9,26z M29.6,39.2c-0.8,0-1.4-0.6-1.5-1.4c0.4-0.5,0.6-1.1,0.7-1.8
		l-1.5-0.2c-0.2,1.3-1.4,2.2-2.7,2c-1-0.2-1.8-1-2-2c0.3,0.1,0.6,0.1,0.8,0.1v-1.5c-2.2,0-4.6-2.5-4.8-5l4.8-5.1L18,23.2L28.9,9.4
		l-0.7-0.2c0.2-0.6,0.7-1.1,1.4-1.1c0.8,0,1.5,0.7,1.5,1.5v3.1c-0.8,0-1.9,0.3-2.6,1.5l1.3,0.7c0.4-0.7,0.9-0.8,1.3-0.8v5.9
		c-0.6,0-1.5,0-2.3,0.5c-0.9,0.5-1.5,1.3-1.8,2.4l1.4,0.4c0.2-0.7,0.5-1.2,1-1.5c0.5-0.3,1.1-0.3,1.6-0.3v8.5
		c-0.7-0.8-1.7-1.3-3.1-1.3l0,1.5c2.4,0,3,2.5,3.1,2.9v4.6C31.1,38.6,30.4,39.2,29.6,39.2z"/>
	<path d="M27.7,16.8c-1.3-0.3-4-0.2-5.1,2.4l1.4,0.6c1-2.2,3.3-1.6,3.4-1.6L27.7,16.8z"/>
	<path d="M24.5,27.9L23,27.5c-0.3,1-0.3,3.1,1.9,4.4l0.8-1.3C24,29.6,24.4,28.1,24.5,27.9z"/>
	<path d="M15.2,42.9c3.3,4,5.3,7.3,5.3,12.3V64h1.5v-8.8c0-6-2.8-9.8-5.6-13.2L15.2,42.9z"/>
	<path d="M57,43.9l-0.3-7.3l4.9-0.1l-5.7-13l0-4.7C55.1,9.9,47.4,0.5,35.9,0c-5.2-0.2-10.4,1.1-14.8,3.7L21.9,5
		c4.2-2.5,9.1-3.7,14-3.5c10.7,0.4,17.8,9.2,18.6,17.4v4.9L59.4,35l-4.2,0.1l0.4,8.8c0,0.7-0.2,1.3-0.7,1.8
		c-0.5,0.5-1.1,0.7-1.8,0.7l-7.6,0l0,14.4l1.5,0l0-12.9l6,0c1.1,0.1,2.1-0.3,2.9-1.1C56.6,46,57.1,44.9,57,43.9z"/>
	<rect x="41.9" y="57.3" width="1.5" height="1.5"/>
	<rect x="41.9" y="53.8" width="1.5" height="1.5"/>
	<rect x="41.9" y="50.3" width="1.5" height="1.5"/>
</g>
</svg>
