<?xml version="1.0" encoding="utf-8"?>
<!-- Generator: Adobe Illustrator 18.0.0, SVG Export Plug-In . SVG Version: 6.00 Build 0)  -->
<!DOCTYPE svg PUBLIC "-//W3C//DTD SVG 1.1//EN" "http://www.w3.org/Graphics/SVG/1.1/DTD/svg11.dtd">
<svg version="1.1" id="Layer_1" xmlns="http://www.w3.org/2000/svg" xmlns:xlink="http://www.w3.org/1999/xlink" x="0px" y="0px"
	 viewBox="0 0 64 64" enable-background="new 0 0 64 64" xml:space="preserve">
<g>
	<path d="M53.7,27.7c0.3,1.6,1.8,2.8,3.5,2.8c1.9,0,3.5-1.6,3.5-3.5c0-1.9-1.6-3.5-3.5-3.5c-1.7,0-3.1,1.2-3.5,2.8h-25v-4.2h18.1
		l9.3-8.9c0.3,0.1,0.7,0.2,1.1,0.2c1.9,0,3.5-1.6,3.5-3.5c0-1.9-1.6-3.5-3.5-3.5c-1.9,0-3.5,1.6-3.5,3.5c0,1,0.4,1.9,1.1,2.6
		l-8.5,8.2H28.7v-4.2h13.8V7c1.6-0.3,2.8-1.8,2.8-3.5c0-1.9-1.6-3.5-3.5-3.5c-1.9,0-3.5,1.6-3.5,3.5c0,1.7,1.2,3.1,2.8,3.5v8H28.7
		v-3.7l0-0.7H28c-1.5,0-3,0.2-4.4,0.5l-2.5-3.7l-5.7,2.4l0.9,4.4c-2.5,1.6-4.6,3.8-6.2,6.2l-4.4-0.9l-2.4,5.7L7,27.6
		c-0.6,2.9-0.6,5.9,0,8.8l-3.7,2.5l2.4,5.7l4.4-0.9c1.6,2.5,3.8,4.6,6.2,6.2l-0.9,4.4l5.7,2.4l2.5-3.7c1.4,0.3,2.9,0.5,4.4,0.5h0.7
		V49h12.4v8c-1.6,0.3-2.8,1.8-2.8,3.4c0,1.9,1.6,3.5,3.5,3.5c1.9,0,3.5-1.6,3.5-3.5c0-1.7-1.2-3.1-2.8-3.4v-9.4H28.7v-1v-3.2h17.5
		l8.5,8.2c-0.7,0.6-1.1,1.6-1.1,2.6c0,1.9,1.6,3.5,3.5,3.5c1.9,0,3.5-1.6,3.5-3.5c0-1.9-1.6-3.5-3.5-3.5c-0.4,0-0.7,0.1-1.1,0.2
		l-9.3-8.9H28.7v-4.2h25c0.3,1.6,1.8,2.8,3.5,2.8c1.9,0,3.5-1.6,3.5-3.5c0-1.9-1.6-3.5-3.5-3.5c-1.7,0-3.1,1.2-3.5,2.8h-25v-8.5
		H53.7z M57.2,24.9c1.1,0,2.1,0.9,2.1,2.1c0,1.1-0.9,2.1-2.1,2.1c-1.1,0-2.1-0.9-2.1-2.1C55.1,25.9,56,24.9,57.2,24.9z M57.2,7.8
		c1.1,0,2.1,0.9,2.1,2.1c0,1.1-0.9,2.1-2.1,2.1c-1.1,0-2.1-0.9-2.1-2.1C55.1,8.7,56,7.8,57.2,7.8z M39.7,3.5c0-1.1,0.9-2.1,2.1-2.1
		c1.1,0,2.1,0.9,2.1,2.1c0,1.1-0.9,2.1-2.1,2.1C40.7,5.6,39.7,4.7,39.7,3.5z M27.3,45.1c-3.5-0.2-6.7-1.7-9.1-4.4
		c-2.3-2.6-3.5-6-3.3-9.5c0.4-6.7,5.7-12,12.4-12.4V45.1z M27.3,17.4c-7.4,0.4-13.4,6.3-13.9,13.8c-0.2,3.9,1.1,7.6,3.7,10.6
		c2.6,2.9,6.2,4.6,10.1,4.8c0,0,0,0,0.1,0V52c-1.3,0-4.3-0.6-4.3-0.6l-2.4,3.5l-3.5-1.4l0.8-4.2c-3-1.6-5.3-4.1-7.2-7.2l-4.2,0.8
		l-1.4-3.5l3.5-2.4c-0.9-3.5-0.9-6.8,0-10.1l-3.5-2.4l1.4-3.5l4.2,0.8c1.7-2.9,4.1-5.3,7.2-7.2l-0.8-4.2l3.5-1.4l2.4,3.5
		c0,0,3-0.6,4.4-0.6V17.4z M43.9,60.5c0,1.1-0.9,2.1-2.1,2.1c-1.1,0-2.1-0.9-2.1-2.1c0-1.1,0.9-2.1,2.1-2.1
		C42.9,58.4,43.9,59.3,43.9,60.5z M57.2,52.1c1.1,0,2.1,0.9,2.1,2.1c0,1.1-0.9,2.1-2.1,2.1c-1.1,0-2.1-0.9-2.1-2.1
		C55.1,53,56,52.1,57.2,52.1z M57.2,34.9c1.1,0,2.1,0.9,2.1,2.1c0,1.1-0.9,2.1-2.1,2.1c-1.1,0-2.1-0.9-2.1-2.1
		C55.1,35.9,56,34.9,57.2,34.9z"/>
</g>
</svg>
