<?xml version="1.0" encoding="utf-8"?>
<!-- Generator: Adobe Illustrator 18.0.0, SVG Export Plug-In . SVG Version: 6.00 Build 0)  -->
<!DOCTYPE svg PUBLIC "-//W3C//DTD SVG 1.1//EN" "http://www.w3.org/Graphics/SVG/1.1/DTD/svg11.dtd">
<svg version="1.1" id="Layer_1" xmlns="http://www.w3.org/2000/svg" xmlns:xlink="http://www.w3.org/1999/xlink" x="0px" y="0px"
	 viewBox="0 0 64 64" enable-background="new 0 0 64 64" xml:space="preserve">
<g>
	<path d="M51.6,0H3.5v64l57,0V9L51.6,0z M52,2.5l6,6h-6V2.5z M7.2,62.5H4.9v-61h2.3V62.5z M59.1,62.5H8.7V1.5h41.8V10h8.5V62.5z"/>
	<path d="M31.3,34.3c0-0.5-0.2-1-0.5-1.4c-0.4-0.6-1.1-1-1.8-1.2c-1.6-0.3-3,0.7-3.3,2.3c-0.1,0.5,0,1,0.1,1.5l-7.8,5.3
		c-0.4-0.3-0.8-0.6-1.3-0.7c-1.6-0.3-3,0.7-3.3,2.3c-0.3,1.5,0.7,3,2.3,3.3c0.2,0,0.4,0.1,0.5,0.1c1.4,0,2.5-1,2.8-2.3
		c0.1-0.5,0-1-0.1-1.4l7.8-5.3c0.4,0.3,0.8,0.5,1.3,0.6c0.2,0,0.4,0.1,0.5,0.1c1.1,0,2-0.6,2.5-1.6l5.7,1.1c0.1,1.2,1,2.3,2.3,2.5
		c0.2,0,0.4,0.1,0.5,0.1c1.4,0,2.5-1,2.8-2.3c0.1-0.5,0-1-0.1-1.5l7.5-5.1c0.4,0.3,0.8,0.6,1.3,0.6c0.2,0,0.4,0.1,0.5,0.1
		c1.4,0,2.5-1,2.8-2.3c0.1-0.7,0-1.5-0.4-2.1c-0.4-0.6-1.1-1.1-1.8-1.2c-1.6-0.3-3,0.7-3.3,2.3c-0.1,0.5,0,1,0.1,1.5l-7.5,5.1
		c-0.4-0.3-0.8-0.6-1.3-0.6c-1.3-0.3-2.5,0.4-3.1,1.6L31.3,34.3z M17.6,43.1c-0.1,0.7-0.9,1.2-1.6,1.1c-0.7-0.1-1.2-0.9-1.1-1.6
		c0.1-0.6,0.7-1.1,1.4-1.1c0.1,0,0.2,0,0.3,0C17.2,41.7,17.7,42.4,17.6,43.1z M29.8,34.8c-0.2,0.7-0.9,1.2-1.6,1.1
		c-0.4-0.1-0.7-0.3-0.9-0.6c-0.2-0.3-0.3-0.7-0.2-1.1c0.1-0.6,0.7-1.1,1.3-1.1c0.1,0,0.2,0,0.3,0c0.4,0.1,0.7,0.3,0.9,0.6
		C29.8,34,29.9,34.4,29.8,34.8z M50.2,28.2c0.1-0.6,0.7-1.1,1.4-1.1c0.1,0,0.2,0,0.3,0c0.4,0.1,0.7,0.3,0.9,0.6
		c0.2,0.3,0.3,0.7,0.2,1c-0.1,0.7-0.9,1.2-1.6,1.1C50.6,29.7,50.1,28.9,50.2,28.2z M38.2,36.4c0.1-0.6,0.7-1.1,1.3-1.1
		c0.1,0,0.2,0,0.3,0c0.4,0.1,0.7,0.3,0.9,0.6c0.2,0.3,0.3,0.7,0.2,1c-0.1,0.7-0.8,1.2-1.6,1.1C38.6,37.8,38.1,37.1,38.2,36.4z"/>
	<path d="M14.2,21.1l0.4,0.6c0,0,0,0,0,0l0.4,0.6l0,0c0.9,1.2,2,2.1,3.4,2.7c1.3,0.6,2.8,1,4.3,1c3.8,0,7.2-2.2,8.9-5.6l0.3-0.7
		l-8.5-4.1l-0.7-9.4L22,6.4c-1.8,0.1-3.3,0.7-4.8,1.7C12.9,11,11.7,16.7,14.2,21.1L14.2,21.1z M22.7,24.6c-1.3,0-2.5-0.3-3.6-0.8
		c-1.2-0.6-2.1-1.3-2.8-2.2l6.5-4.5l7.1,3.4C28.4,23,25.7,24.6,22.7,24.6z M18,9.3c1.1-0.7,2.1-1.2,3.4-1.3l0.6,7.9l-6.5,4.5
		C13.3,16.5,14.4,11.7,18,9.3z"/>
	<path d="M34,19l0.3-0.7c0.8-1.6,1.1-3.2,0.9-5C34.8,8,30.1,3.9,24.7,4.3L24,4.4l0.8,10.2L34,19z M33.8,13.5
		c0.1,1.3-0.1,2.4-0.5,3.6l-7.1-3.4l-0.6-7.9C29.8,5.8,33.5,9.2,33.8,13.5z"/>
	<polygon points="53.1,38 51.6,38 51.6,57.7 46.9,57.7 46.9,45.9 45.5,45.9 45.5,57.7 40.8,57.7 40.8,43.4 39.3,43.4 39.3,57.7 
		34.6,57.7 34.6,49.8 33.1,49.8 33.1,57.7 28.5,57.7 28.5,42 27,42 27,57.7 22.3,57.7 22.3,46.9 20.8,46.9 20.8,57.7 16.2,57.7 
		16.2,51.8 14.7,51.8 14.7,57.7 12.3,57.7 12.3,59.2 55.4,59.2 55.4,57.7 53.1,57.7 	"/>
</g>
</svg>
