<?xml version="1.0" encoding="utf-8"?>
<!-- Generator: Adobe Illustrator 18.0.0, SVG Export Plug-In . SVG Version: 6.00 Build 0)  -->
<!DOCTYPE svg PUBLIC "-//W3C//DTD SVG 1.1//EN" "http://www.w3.org/Graphics/SVG/1.1/DTD/svg11.dtd">
<svg version="1.1" id="Layer_1" xmlns="http://www.w3.org/2000/svg" xmlns:xlink="http://www.w3.org/1999/xlink" x="0px" y="0px"
	 viewBox="0 0 64 64" enable-background="new 0 0 64 64" xml:space="preserve">
<g>
	<path d="M34.8,28.6c-0.4-0.3-0.6-0.8-0.6-1.3h-1.5c0,0.9,0.4,1.8,1.1,2.4c0.5,0.4,1.2,0.7,1.9,0.9v2h1.5v-2
		c0.7-0.1,1.3-0.4,1.9-0.9c0.7-0.6,1.1-1.5,1.1-2.4s-0.4-1.8-1.1-2.4c-0.7-0.6-1.6-0.9-2.6-0.9c-0.6,0-1.2-0.2-1.6-0.6
		c-0.4-0.3-0.6-0.8-0.6-1.3c0-0.5,0.2-0.9,0.6-1.3c0.9-0.7,2.4-0.7,3.3,0c0.4,0.3,0.6,0.8,0.6,1.3h1.5c0-0.9-0.4-1.8-1.1-2.4
		c-0.5-0.4-1.2-0.7-1.9-0.8v-2.1h-1.5v2.1c-0.7,0.1-1.3,0.4-1.9,0.8c-0.7,0.6-1.1,1.5-1.1,2.4s0.4,1.8,1.1,2.4
		c0.7,0.6,1.6,0.9,2.6,0.9c0.6,0,1.2,0.2,1.6,0.6c0.4,0.3,0.6,0.8,0.6,1.3c0,0.5-0.2,0.9-0.6,1.3C37.2,29.3,35.6,29.3,34.8,28.6z"/>
	<path d="M36.4,36.4c6.4,0,11.6-5.2,11.6-11.6c0-6.4-5.2-11.6-11.6-11.6s-11.6,5.2-11.6,11.6C24.8,31.2,30,36.4,36.4,36.4z
		 M36.4,14.6c5.6,0,10.1,4.6,10.1,10.1c0,5.6-4.6,10.1-10.1,10.1s-10.1-4.6-10.1-10.1C26.3,19.1,30.8,14.6,36.4,14.6z"/>
	<path d="M53.8,13.2c-0.2-0.2-0.4-0.5-0.4-0.7h-1.5c0,0.7,0.3,1.4,0.9,1.8c0.3,0.3,0.8,0.5,1.2,0.6v1.3h1.5v-1.3
		c0.5-0.1,0.9-0.3,1.2-0.6c0.6-0.5,0.9-1.1,0.9-1.8c0-0.7-0.3-1.4-0.9-1.8c-0.5-0.5-1.2-0.7-2-0.7c-0.4,0-0.7-0.1-1-0.3
		c-0.2-0.2-0.4-0.5-0.4-0.7c0-0.3,0.1-0.5,0.4-0.7c0.5-0.4,1.5-0.4,2,0c0.2,0.2,0.4,0.5,0.4,0.7h1.5c0-0.7-0.3-1.4-0.9-1.8
		c-0.3-0.3-0.8-0.5-1.2-0.6V5.1H54v1.3c-0.5,0.1-0.9,0.3-1.2,0.6c-0.6,0.5-0.9,1.1-0.9,1.8c0,0.7,0.3,1.4,0.9,1.8
		c0.5,0.5,1.2,0.7,2,0.7c0.4,0,0.7,0.1,1,0.3c0.2,0.2,0.4,0.5,0.4,0.7c0,0.3-0.1,0.5-0.4,0.7C55.2,13.6,54.3,13.6,53.8,13.2z"/>
	<path d="M54.8,19c4.6,0,8.3-3.7,8.3-8.3c0-4.6-3.7-8.3-8.3-8.3c-4.6,0-8.3,3.7-8.3,8.3C46.4,15.2,50.2,19,54.8,19z M54.8,3.8
		c3.8,0,6.9,3.1,6.9,6.9c0,3.8-3.1,6.9-6.9,6.9c-3.8,0-6.9-3.1-6.9-6.9C47.9,6.9,51,3.8,54.8,3.8z"/>
	<path d="M63.7,43.3c-0.8-1.9-3.1-2.9-5-2.1l-14.2,6.3c0-0.2,0.1-0.5,0.1-0.7c0-1.9-1.6-3.5-3.5-3.6v0h0c0,0,0,0-0.1,0v0h-9.8
		l-7.5-3.5c-1.5-0.7-3.3-1.1-5-1.1H13V36H2.4v1.5h9.1v20.3H0v1.5h13v-2.6h4.4L31,61.3c0.9,0.3,1.9,0.5,2.8,0.5c1.4,0,2.8-0.3,4.1-1
		l23.7-12.4c0.9-0.4,1.7-1.1,2.1-2.1C64.1,45.3,64.1,44.2,63.7,43.3z M61,46.9L37.2,59.4c-1.8,0.9-3.9,1.1-5.7,0.4l-13.8-4.6l-4.7,0
		V40.1h5.8c1.5,0,3,0.3,4.3,1l7.8,3.6H41c1.1,0,2,1,2,2.1c0,1.2-0.9,2.1-2.1,2.1H29l-0.1,0c-1.1,0.2-3.1,1.1-3.1,3.2h1.5
		c0-1.3,1.5-1.7,1.8-1.8H41v0c0.6,0,1.1-0.2,1.6-0.4l0,0l16.6-7.3c1.2-0.5,2.6,0.1,3.1,1.3C62.8,45,62.3,46.4,61,46.9z"/>
	<rect x="7" y="53.2" width="1.5" height="1.8"/>
	<rect x="3.8" y="53.2" width="1.5" height="1.8"/>
</g>
</svg>
