<?xml version="1.0" encoding="utf-8"?>
<!-- Generator: Adobe Illustrator 18.0.0, SVG Export Plug-In . SVG Version: 6.00 Build 0)  -->
<!DOCTYPE svg PUBLIC "-//W3C//DTD SVG 1.1//EN" "http://www.w3.org/Graphics/SVG/1.1/DTD/svg11.dtd">
<svg version="1.1" id="Layer_1" xmlns="http://www.w3.org/2000/svg" xmlns:xlink="http://www.w3.org/1999/xlink" x="0px" y="0px"
	 viewBox="0 0 64 64" enable-background="new 0 0 64 64" xml:space="preserve">
<g>
	<path d="M41.6,11.8c0.5-0.5,0.7-1.1,0.7-1.8c0-1.3-1.1-2.4-2.4-2.4h-2.5h-3.2c0.7-1.2,1-2.6,1-4v-1c0-1.4-1.1-2.5-2.5-2.5
		c-1.4,0-2.5,1.1-2.5,2.5c0,1.6-0.5,3.1-1.5,4.4l-0.6,0.7h-5.1V9H29l1-1.3c1.2-1.5,1.8-3.4,1.8-5.3c0-0.6,0.5-1,1-1c0.6,0,1,0.5,1,1
		v1C33.9,5,33.3,6.8,31.7,9h5.8H40c0.5,0,0.9,0.4,0.9,0.9c0,0.6-0.5,1.1-1.1,1.1h-2h-0.1v1.5h0.1h2h0.1c0.6,0,1,0.5,1,1
		c0,0.6-0.5,1-1,1h-2.6V16h2.6c0.6,0,1,0.5,1,1c0,0.6-0.5,1-1,1h-1.5h-0.7v1.5h0.7c0.7,0,1.5,0.6,1.5,1c0,0.6-0.5,1-1,1h-7.2
		c-0.3,0-0.5-0.1-0.8-0.2l-1.3-0.6c-0.5-0.2-1.1-0.4-1.7-0.4H22v1.5h5.9c0.4,0,0.7,0.1,1.1,0.2l1.3,0.6c0.4,0.2,0.9,0.3,1.4,0.3h7.2
		c1.4,0,2.5-1.1,2.5-2.5c0-0.5-0.2-0.9-0.5-1.2c0.9-0.4,1.5-1.3,1.5-2.3c0-0.7-0.3-1.3-0.7-1.8c0.4-0.4,0.7-1.1,0.7-1.8
		C42.4,12.8,42.1,12.2,41.6,11.8z"/>
	<rect x="28.3" y="17.6" width="1.3" height="1.5"/>
	<rect x="24.8" y="17.6" width="1.5" height="1.5"/>
	<path d="M62.1,55.5l-4.2-2.7c0.7-0.9,1.1-2,1.1-3.2c0-2.9-2.3-5.2-5.2-5.2s-5.2,2.3-5.2,5.2c0,1.2,0.4,2.3,1.1,3.2l-4.2,2.7
		c-1.2,0.8-1.9,2.1-1.9,3.5v5H64v-5C64,57.5,63.3,56.2,62.1,55.5z M53.7,45.8c2.1,0,3.8,1.7,3.8,3.8c0,1.1-0.5,2.1-1.3,2.8
		c-1.4,1.1-3.4,1.3-5,0l0,0c-0.8-0.7-1.3-1.7-1.3-2.8C49.9,47.5,51.6,45.8,53.7,45.8z M62.5,62.5H44.9V59c0-0.9,0.5-1.7,1.2-2.2
		l4.6-2.9c2,1.3,4,1.2,6.1,0l4.6,2.9c0.8,0.5,1.2,1.3,1.2,2.2V62.5z"/>
	<path d="M40.4,55.5L36,52.7c0.7-0.9,1-2,1-3.1c0-2.9-2.3-5.2-5.2-5.2s-5.2,2.3-5.2,5.2c0,1.2,0.4,2.4,1.2,3.3l-4.1,2.6
		c-1.2,0.8-1.9,2.1-1.9,3.5v5h20.6v-5C42.3,57.5,41.6,56.2,40.4,55.5z M31.8,45.8c2.1,0,3.8,1.7,3.8,3.8c0,1.1-0.5,2.1-1.3,2.8
		c-0.7,0.6-1.5,0.9-2.4,0.9c-2.6-0.1-3.6-1.6-3.9-3.7C28,47.5,29.7,45.8,31.8,45.8z M40.8,62.5H23.2V59c0-0.9,0.5-1.7,1.2-2.2
		l4.5-2.8c2,1.3,4.4,1.1,6.1-0.1l4.6,2.9c0.8,0.5,1.2,1.3,1.2,2.2V62.5z"/>
	<polygon points="31.1,39.1 28.6,36.6 27.5,37.7 31.8,41.9 36.1,37.7 35,36.7 32.5,39.1 32.5,32 31.1,32 	"/>
	<rect x="31.1" y="28.9" width="1.5" height="1.5"/>
	<rect x="31.1" y="26.1" width="1.5" height="1.5"/>
	<path d="M18.7,55.5l-4.2-2.7c0.7-0.9,1.1-2,1.1-3.2c0-2.9-2.3-5.2-5.2-5.2s-5.2,2.3-5.2,5.2c0,1.2,0.4,2.3,1.1,3.2l-4.2,2.7
		C0.7,56.2,0,57.5,0,59v5h20.6v-5C20.6,57.5,19.9,56.2,18.7,55.5z M10.3,45.8c2.1,0,3.8,1.7,3.8,3.8c0,1.1-0.5,2.1-1.3,2.8
		c-1.7,1.3-3.4,1.2-5,0c-0.8-0.7-1.3-1.7-1.3-2.8C6.5,47.5,8.2,45.8,10.3,45.8z M19.1,62.5H1.5V59c0-0.9,0.5-1.7,1.2-2.2l4.6-2.9
		c2,1.4,4.3,1.2,6.1,0l4.6,2.9c0.8,0.5,1.2,1.3,1.2,2.2V62.5z"/>
	<polygon points="44.7,31.6 48.2,37.9 44.8,36.9 44.4,38.3 50.2,40 51.8,34.2 50.4,33.8 49.5,37.1 46,30.9 	"/>
	<rect x="43.5" y="28.5" transform="matrix(0.4856 0.8742 -0.8742 0.4856 48.3339 -23.6372)" width="1.5" height="1.5"/>
	<rect x="42.2" y="26" transform="matrix(-0.874 0.4859 -0.4859 -0.874 93.4033 29.3898)" width="1.5" height="1.5"/>
	<polygon points="19.2,38.3 18.8,36.9 15.4,37.9 18.9,31.6 17.6,30.9 14.1,37.1 13.2,33.8 11.7,34.2 13.4,40 	"/>
	<rect x="18.6" y="28.5" transform="matrix(0.874 0.4858 -0.4858 0.874 16.6483 -5.7127)" width="1.5" height="1.5"/>
	<rect x="20" y="26" transform="matrix(-0.8746 -0.4848 0.4848 -0.8746 25.8133 60.2822)" width="1.5" height="1.5"/>
</g>
</svg>
