<?xml version="1.0" encoding="utf-8"?>
<!-- Generator: Adobe Illustrator 18.0.0, SVG Export Plug-In . SVG Version: 6.00 Build 0)  -->
<!DOCTYPE svg PUBLIC "-//W3C//DTD SVG 1.1//EN" "http://www.w3.org/Graphics/SVG/1.1/DTD/svg11.dtd">
<svg version="1.1" id="Layer_1" xmlns="http://www.w3.org/2000/svg" xmlns:xlink="http://www.w3.org/1999/xlink" x="0px" y="0px"
	 viewBox="0 0 64 64" enable-background="new 0 0 64 64" xml:space="preserve">
<g>
	<path d="M32,8c2.2,0,3.9-1.8,3.9-3.9c0-2.2-1.8-3.9-3.9-3.9c-2.2,0-3.9,1.8-3.9,3.9C28.1,6.2,29.8,8,32,8z M32,1.6
		c1.4,0,2.5,1.1,2.5,2.5c0,1.4-1.1,2.5-2.5,2.5c-1.4,0-2.5-1.1-2.5-2.5C29.5,2.7,30.6,1.6,32,1.6z"/>
	<path d="M55.1,21.7c1.9,0,3.4-1.5,3.4-3.4c0-1.9-1.5-3.4-3.4-3.4s-3.4,1.5-3.4,3.4C51.7,20.2,53.2,21.7,55.1,21.7z M55.1,16.4
		c1.1,0,1.9,0.9,1.9,1.9c0,1.1-0.9,1.9-1.9,1.9c-1.1,0-1.9-0.9-1.9-1.9C53.2,17.2,54,16.4,55.1,16.4z"/>
	<path d="M60.8,54.1l-0.4-15.3h2.4V26.9c0-2.7-2.2-4.9-4.9-4.9h-0.4l-2.1,3.9h-0.3L52.8,22h-0.4c-2.7,0-4.9,2.2-4.9,4.9v11.9h2.4
		l-0.4,15.3h-3.7v-7h-7l-0.5-18.6H41V14.4c0-3.2-2.6-5.8-5.8-5.8h-0.4l-2.5,4.7h-0.6l-2.5-4.7h-0.4c-3.2,0-5.8,2.6-5.8,5.8v14.1h2.8
		l-0.5,18.6h-7v7h-1.7l-0.4-15.3h2.4V26.9c0-2.7-2.2-4.9-4.9-4.9h-0.4L11,25.9h-0.3L8.6,22H8.2c-2.7,0-4.9,2.2-4.9,4.9v11.9h2.4
		L5.1,54.1H0v9.7h18.3h1.5h24.4h1.5H64v-9.7H60.8z M4.7,37.4V26.9c0-1.8,1.3-3.2,3.1-3.5l2.1,3.9h2.1l2.1-3.9
		c1.7,0.2,3.1,1.7,3.1,3.5v10.5h-0.9l-0.2-6.3l-1.5,0l0.7,22.9h-1.7l-1.8-14.7l-0.7,0.1l-0.7-0.1L8.3,54.1H6.6l0.7-22.9l-1.5,0
		l-0.2,6.3H4.7z M11.9,54.1H9.8l1.1-8.8L11.9,54.1z M18.3,62.4H1.5v-6.8h16.8V62.4z M24.5,27V14.4c0-2.2,1.7-4.1,3.9-4.3l2.5,4.7
		h2.3l2.5-4.7c2.2,0.2,3.9,2.1,3.9,4.3V27h-1.4l-0.2-7.6l-1.5,0l0.8,27.6h-2.3l-2.2-17.8L32,29.4l-0.8-0.1l-2.2,17.8h-2.3l0.8-27.6
		l-1.5,0L25.9,27H24.5z M33.5,47.1h-2.9L32,35.2L33.5,47.1z M44.2,54.1v8.2H19.8v-8.2v-5.6h24.4V54.1z M48.9,37.4V26.9
		c0-1.8,1.3-3.2,3.1-3.5l2.1,3.9h2.1l2.1-3.9c1.7,0.2,3.1,1.7,3.1,3.5v10.5h-0.9l-0.2-6.3l-1.5,0l0.7,22.9h-1.7l-1.8-14.7l-0.7,0.1
		l-0.7-0.1l-1.8,14.7h-1.7l0.7-22.9l-1.5,0l-0.2,6.3H48.9z M56.2,54.1H54l1.1-8.8L56.2,54.1z M62.5,62.4H45.7v-6.8h15.2h1.7V62.4z"
		/>
	<path d="M10.9,21.7c1.9,0,3.4-1.5,3.4-3.4c0-1.9-1.5-3.4-3.4-3.4s-3.4,1.5-3.4,3.4C7.5,20.2,9,21.7,10.9,21.7z M10.9,16.4
		c1.1,0,1.9,0.9,1.9,1.9c0,1.1-0.9,1.9-1.9,1.9c-1.1,0-1.9-0.9-1.9-1.9C8.9,17.2,9.8,16.4,10.9,16.4z"/>
</g>
</svg>
