<?xml version="1.0" encoding="utf-8"?>
<!-- Generator: Adobe Illustrator 18.0.0, SVG Export Plug-In . SVG Version: 6.00 Build 0)  -->
<!DOCTYPE svg PUBLIC "-//W3C//DTD SVG 1.1//EN" "http://www.w3.org/Graphics/SVG/1.1/DTD/svg11.dtd">
<svg version="1.1" id="Layer_1" xmlns="http://www.w3.org/2000/svg" xmlns:xlink="http://www.w3.org/1999/xlink" x="0px" y="0px"
	 viewBox="0 0 64 64" enable-background="new 0 0 64 64" xml:space="preserve">
<g>
	<path d="M24.4,14.5c0-0.6,0.3-1.2,0.5-1.6c0.3-0.5,0.8-0.9,1.3-1.1l2.1-0.7l2.6,4.8h2.3l2.6-4.8l2.1,0.7c0.6,0.2,1,0.6,1.3,1.1
		c0.2,0.4,0.5,1,0.5,1.7c0,0,0.3,2.8,0.4,5.4l1.5-0.1c-0.1-2.7-0.4-5.4-0.4-5.4v0c0-0.8-0.2-1.5-0.7-2.3c-0.5-0.8-1.2-1.4-2.1-1.7
		L35,9.3l-2.8,5.1h-0.6L29,9.3l-3.3,1.2c-0.9,0.3-1.6,0.9-2.1,1.7c-0.4,0.8-0.7,1.5-0.7,2.2c0,0-0.3,2.8-0.4,5.5L24,20
		C24.1,17.4,24.4,14.6,24.4,14.5z"/>
	<path d="M32,9.1c2.5,0,4.6-2,4.6-4.6C36.6,2,34.5,0,32,0c-2.5,0-4.6,2-4.6,4.6C27.4,7.1,29.5,9.1,32,9.1z M32,1.5
		c1.7,0,3.1,1.4,3.1,3.1S33.7,7.7,32,7.7s-3.1-1.4-3.1-3.1S30.3,1.5,32,1.5z"/>
	<path d="M12.9,24.9c0.4-0.2,1-0.5,1.7-0.5c0,0,2.8-0.3,5.4-0.4L20,22.5c-2.7,0.1-5.5,0.4-5.4,0.4c-0.8,0-1.5,0.2-2.3,0.7
		c-0.8,0.5-1.4,1.2-1.7,2.1L9.3,29l5.1,2.8v0.6L9.3,35l1.2,3.3c0.3,0.9,0.9,1.6,1.7,2.1c0.8,0.4,1.6,0.7,2.2,0.7
		c0,0,2.8,0.3,5.5,0.4L20,40c-2.7-0.1-5.4-0.4-5.5-0.4c-0.6,0-1.2-0.3-1.6-0.5c-0.5-0.3-0.9-0.8-1.1-1.3l-0.7-2.1l4.8-2.6v-2.3
		l-4.8-2.6l0.7-2.1C12.1,25.6,12.4,25.2,12.9,24.9z"/>
	<path d="M4.6,27.4C2,27.4,0,29.5,0,32c0,2.5,2,4.6,4.6,4.6c2.5,0,4.6-2,4.6-4.6C9.1,29.5,7.1,27.4,4.6,27.4z M4.6,35.1
		c-1.7,0-3.1-1.4-3.1-3.1c0-1.7,1.4-3.1,3.1-3.1s3.1,1.4,3.1,3.1C7.7,33.7,6.3,35.1,4.6,35.1z"/>
	<path d="M40.4,51.8c0.4-0.8,0.7-1.5,0.7-2.2c0,0,0.3-2.8,0.4-5.5L40,44c-0.1,2.7-0.4,5.4-0.4,5.5c0,0.6-0.3,1.2-0.5,1.6
		c-0.3,0.5-0.8,0.9-1.3,1.1l-2.1,0.7l-2.6-4.8h-2.3l-2.6,4.8l-2.1-0.7c-0.6-0.2-1-0.6-1.3-1.1c-0.2-0.4-0.5-1-0.5-1.7
		c0,0-0.3-2.8-0.4-5.4L22.5,44c0.1,2.7,0.4,5.4,0.4,5.4v0c0,0.8,0.2,1.5,0.7,2.3c0.5,0.8,1.2,1.4,2.1,1.7l3.3,1.2l2.8-5.1h0.6
		l2.8,5.1l3.3-1.2C39.2,53.2,39.9,52.6,40.4,51.8z"/>
	<path d="M32,54.9c-2.5,0-4.6,2-4.6,4.6c0,2.5,2,4.6,4.6,4.6c2.5,0,4.6-2,4.6-4.6C36.6,56.9,34.5,54.9,32,54.9z M32,62.5
		c-1.7,0-3.1-1.4-3.1-3.1c0-1.7,1.4-3.1,3.1-3.1s3.1,1.4,3.1,3.1C35.1,61.1,33.7,62.5,32,62.5z"/>
	<path d="M54.7,35l-5.1-2.8v-0.6l5.1-2.8l-1.2-3.3c-0.3-0.9-0.9-1.6-1.7-2.1c-0.8-0.4-1.5-0.7-2.2-0.7c0,0-2.8-0.3-5.5-0.4L44,24
		c2.7,0.1,5.4,0.4,5.5,0.4c0.6,0,1.2,0.3,1.6,0.5c0.5,0.3,0.9,0.8,1.1,1.3l0.7,2.1l-4.8,2.6v2.3l4.8,2.6l-0.7,2.1
		c-0.2,0.6-0.6,1-1.1,1.3c-0.4,0.2-1,0.5-1.7,0.5c0,0-2.8,0.3-5.4,0.4l0.1,1.5c2.7-0.1,5.5-0.4,5.4-0.4c0.8,0,1.5-0.2,2.3-0.7
		c0.8-0.5,1.4-1.2,1.7-2.1L54.7,35z"/>
	<path d="M59.4,27.4c-2.5,0-4.6,2-4.6,4.6c0,2.5,2,4.6,4.6,4.6c2.5,0,4.6-2,4.6-4.6C64,29.5,62,27.4,59.4,27.4z M59.4,35.1
		c-1.7,0-3.1-1.4-3.1-3.1c0-1.7,1.4-3.1,3.1-3.1s3.1,1.4,3.1,3.1C62.5,33.7,61.1,35.1,59.4,35.1z"/>
	<path d="M32,20.1c-6.6,0-11.9,5.4-11.9,11.9c0,6.6,5.4,11.9,11.9,11.9S43.9,38.6,43.9,32C43.9,25.4,38.6,20.1,32,20.1z M32,42.5
		c-5.8,0-10.5-4.7-10.5-10.5S26.2,21.5,32,21.5c5.8,0,10.5,4.7,10.5,10.5S37.8,42.5,32,42.5z"/>
</g>
</svg>
