<?xml version="1.0" encoding="utf-8"?>
<!-- Generator: Adobe Illustrator 18.0.0, SVG Export Plug-In . SVG Version: 6.00 Build 0)  -->
<!DOCTYPE svg PUBLIC "-//W3C//DTD SVG 1.1//EN" "http://www.w3.org/Graphics/SVG/1.1/DTD/svg11.dtd">
<svg version="1.1" id="Layer_1" xmlns="http://www.w3.org/2000/svg" xmlns:xlink="http://www.w3.org/1999/xlink" x="0px" y="0px"
	 viewBox="0 0 64 64" enable-background="new 0 0 64 64" xml:space="preserve">
<g>
	<rect x="31.3" y="13" width="1.5" height="4.2"/>
	<rect x="21.9" y="16.5" transform="matrix(0.5 0.866 -0.866 0.5 26.9399 -12.1992)" width="4.2" height="1.5"/>
	<rect x="14" y="30.3" width="4.2" height="1.5"/>
	<rect x="16.1" y="38.3" transform="matrix(-0.866 0.5 -0.5 -0.866 53.4661 63.6582)" width="4.2" height="1.5"/>
	<rect x="43.7" y="38.3" transform="matrix(-0.866 -0.5 0.5 -0.866 65.9593 95.6589)" width="4.2" height="1.5"/>
	<rect x="45.8" y="30.3" width="4.2" height="1.5"/>
	<rect x="39.2" y="15.1" transform="matrix(0.866 0.5001 -0.5001 0.866 13.9728 -17.6761)" width="1.5" height="4.2"/>
	<path d="M54.5,44.2c-2.4,0-4.6,0.9-6.3,2.4L41,39.3c0.3-0.7,0.7-1.3,1-1.9c0.1-0.1,0.2-0.3,0.3-0.5c1.1-2,1.6-4.2,1.5-6.5
		c-0.1-2.2-0.8-4.2-1.9-5.9l6.8-6.8c1.6,1.3,3.6,2,5.9,2c5.2,0,9.5-4.3,9.5-9.5c0-5.2-4.3-9.5-9.5-9.5S45,5.1,45,10.3
		c0,2.5,1,4.8,2.5,6.4L41,23.4c-2-2.3-4.9-3.9-8.2-4.1c-3.8-0.3-7.2,1.3-9.6,3.9l-6.6-6.6c1.4-1.7,2.3-3.8,2.3-6.2
		c0-5.2-4.3-9.5-9.5-9.5C4.3,0.8,0,5.1,0,10.3c0,5.2,4.3,9.5,9.5,9.5c2.3,0,4.5-0.8,6.1-2.2l6.7,6.7c-1.3,1.9-2.1,4.3-2.1,6.8
		c0,1.3,0.2,2.7,0.7,4l1,2.1c0.1,0.2,0.3,0.5,0.4,0.8l0.1,0.1c0.3,0.6,0.6,1.2,0.9,1.8L16,46.9c-1.7-1.6-4-2.7-6.6-2.7
		c-5.2,0-9.5,4.3-9.5,9.5s4.3,9.5,9.5,9.5c5.2,0,9.5-4.3,9.5-9.5c0-2.2-0.7-4.1-1.9-5.7l6.9-6.8c0.9,2.2,1.7,4.6,2.2,7.1
		c0,0.1,0,0.2,0.1,0.3h-1.8V50h2c0.1,0.4,0.1,0.9,0.2,1.3l0,0.2c0.4,1,1.4,1.7,2.4,1.7h6c1.2,0,2.2-0.8,2.5-2.1
		c0-0.4,0.1-0.7,0.1-1.1h2v-1.5h-1.8c0.5-2.7,1.3-5.4,2.4-7.8l6.9,7c-1.3,1.6-2.1,3.7-2.1,6c0,5.2,4.3,9.5,9.5,9.5s9.5-4.3,9.5-9.5
		S59.7,44.2,54.5,44.2z M60.1,16.1c-1.4,1.4-3.4,2.3-5.6,2.3c-2.2,0-4.1-0.9-5.6-2.3v-1.5c0-0.5,0.3-1,0.7-1.3l2.9-1.8
		c1.4,0.8,2.8,0.7,4,0l2.9,1.8c0.4,0.3,0.7,0.7,0.7,1.3V16.1z M52.3,8.3c0-1.2,1-2.2,2.2-2.2c1.3,0.1,2.1,0.8,2.2,2.2
		c0,0.6-0.3,1.3-0.8,1.7c-0.6,0.5-1.5,0.7-2.3,0.4C52.8,10,52.3,9.3,52.3,8.3z M47.5,14.2c-0.6-1.2-1-2.5-1-3.9c0-4.4,3.6-8,8-8
		c4.4,0,8,3.6,8,8c0,1.4-0.4,2.7-1,3.9c-0.1-0.9-0.6-1.7-1.3-2.2l-2.6-1.6c0.4-0.6,0.6-1.3,0.6-2.1c-0.1-2.2-1.8-3.7-3.7-3.7
		c-2,0-3.7,1.7-3.7,3.7c0,0.7,0.2,1.5,0.6,2.1L48.9,12C48.1,12.5,47.6,13.3,47.5,14.2z M15.1,16.1c-1.4,1.4-3.4,2.3-5.6,2.3
		s-4.1-0.9-5.6-2.3v-1.5c0-0.5,0.3-1,0.7-1.3l2.9-1.8c1.4,0.8,2.7,0.8,4,0c0,0,0,0,0.1,0l2.9,1.8c0.4,0.3,0.7,0.7,0.7,1.3V16.1z
		 M7.2,8.3c0-1.2,1-2.2,2.2-2.2c1.4,0.1,2.1,0.9,2.2,2.2c0,0.6-0.3,1.3-0.8,1.7c-0.6,0.5-1.5,0.7-2.2,0.4C7.7,10,7.3,9.3,7.2,8.3z
		 M15.1,12l-2.6-1.6c0.4-0.6,0.6-1.3,0.6-2.1c-0.1-2.3-1.5-3.6-3.7-3.7c-2,0-3.7,1.7-3.7,3.7c0,0.7,0.2,1.5,0.6,2.1L3.8,12
		c-0.8,0.5-1.3,1.3-1.3,2.2c-0.6-1.2-1-2.5-1-3.9c0-4.4,3.6-8,8-8c4.4,0,8,3.6,8,8c0,1.4-0.4,2.7-1,3.9C16.4,13.3,15.9,12.5,15.1,12
		z M15.1,59.4c-1.4,1.4-3.4,2.3-5.6,2.3s-4.1-0.9-5.6-2.3v-1.5c0-0.5,0.3-1,0.7-1.3l2.9-1.8c1.4,0.8,2.7,0.7,4,0c0,0,0,0,0.1,0
		l2.9,1.8c0.4,0.3,0.7,0.7,0.7,1.3V59.4z M7.2,51.7c0-1.2,1-2.2,2.2-2.2c1.4,0.1,2.1,0.9,2.2,2.2c0,0.6-0.3,1.3-0.8,1.7
		C9.7,54.6,7.1,53.6,7.2,51.7z M17.5,53.7c0,1.4-0.4,2.7-1,3.9c-0.1-0.9-0.6-1.7-1.3-2.2l-2.6-1.6c0.4-0.6,0.6-1.3,0.6-2.1
		c0-2.1-1.5-3.7-3.7-3.7c-2,0-3.7,1.7-3.7,3.7c0,0.7,0.2,1.5,0.6,2.1l-2.6,1.6c-0.8,0.5-1.3,1.3-1.3,2.2c-0.6-1.2-1-2.5-1-3.9
		c0-4.4,3.6-8,8-8C13.9,45.7,17.5,49.3,17.5,53.7z M36.1,50.9c-0.1,0.5-0.6,0.9-1.1,0.9h-6c-0.4,0-0.8-0.3-1-0.6
		c0-0.3-0.1-0.7-0.1-1.1h8.4C36.2,50.3,36.1,50.6,36.1,50.9z M36.4,48.6h-8.8c0-0.2-0.1-0.4-0.1-0.6c-0.7-3.9-2.1-7.5-3.9-10.8
		l-0.1-0.1c-0.1-0.2-0.3-0.5-0.4-0.7l-0.9-1.9l0,0c-0.4-1.1-0.6-2.2-0.6-3.4c0-6,5-10.8,11.1-10.4c5.2,0.4,9.4,4.6,9.6,9.8
		c0.1,2-0.4,3.9-1.3,5.7c-0.1,0.2-0.2,0.3-0.3,0.5C38.7,40.2,37.2,44.3,36.4,48.6z M60.1,59.4c-1.4,1.4-3.4,2.3-5.6,2.3
		c-2.2,0-4.1-0.9-5.6-2.3v-1.5c0-0.5,0.3-1,0.7-1.3l2.9-1.8c1.4,0.8,2.7,0.8,4,0l2.9,1.8c0.4,0.3,0.7,0.7,0.7,1.3V59.4z M52.3,51.7
		c0-1.2,1-2.2,2.2-2.2c0.4,0,0.7,0.1,1,0.3c1.4,0.9,1.7,2.5,0.4,3.7c-0.6,0.5-1.5,0.7-2.3,0.4C52.8,53.4,52.3,52.7,52.3,51.7z
		 M61.5,57.6c-0.1-0.9-0.6-1.7-1.3-2.2l-2.6-1.6c0.4-0.6,0.6-1.3,0.6-2.1c-0.1-2.3-1.5-3.6-3.7-3.7c-2,0-3.7,1.7-3.7,3.7
		c0,0.7,0.2,1.5,0.6,2.1l-2.6,1.6c-0.8,0.5-1.3,1.3-1.3,2.2c-0.6-1.2-1-2.5-1-3.9c0-4.4,3.6-8,8-8c4.4,0,8,3.6,8,8
		C62.5,55.1,62.2,56.4,61.5,57.6z"/>
</g>
</svg>
