<?xml version="1.0" encoding="utf-8"?>
<!-- Generator: Adobe Illustrator 18.0.0, SVG Export Plug-In . SVG Version: 6.00 Build 0)  -->
<!DOCTYPE svg PUBLIC "-//W3C//DTD SVG 1.1//EN" "http://www.w3.org/Graphics/SVG/1.1/DTD/svg11.dtd">
<svg version="1.1" id="Layer_1" xmlns="http://www.w3.org/2000/svg" xmlns:xlink="http://www.w3.org/1999/xlink" x="0px" y="0px"
	 viewBox="0 0 64 64" enable-background="new 0 0 64 64" xml:space="preserve">
<g>
	<path d="M29.9,50.2c-0.5-0.5-0.8-1-0.8-1.7h-1.5c0,1.1,0.5,2.1,1.3,2.8c0.6,0.6,1.5,0.9,2.3,1V55h1.5v-2.6c0.9-0.1,1.7-0.5,2.3-1
		c0.9-0.7,1.3-1.7,1.3-2.8c0-1.1-0.5-2.1-1.3-2.8c-0.8-0.7-1.9-1.1-3.1-1.1c-0.8,0-1.5-0.3-2.1-0.7c-0.5-0.5-0.8-1-0.8-1.7
		c0-0.6,0.3-1.2,0.8-1.7c1.1-1,3.1-1,4.2,0c0.5,0.5,0.8,1,0.8,1.7h1.5c0-1.1-0.5-2.1-1.3-2.8c-0.6-0.6-1.5-0.9-2.3-1v-2.7h-1.5v2.7
		c-0.9,0.1-1.7,0.5-2.3,1c-0.9,0.7-1.3,1.7-1.3,2.8s0.5,2.1,1.3,2.8c0.8,0.7,1.9,1.1,3.1,1.1c0.8,0,1.5,0.3,2.1,0.7
		c0.5,0.5,0.8,1,0.8,1.7c0,0.6-0.3,1.2-0.8,1.7C33,51.2,31,51.2,29.9,50.2z"/>
	<path d="M50.6,45.4c0-5.7-2.6-11.1-7.1-14.6l-0.9,1.2c4.2,3.3,6.5,8.2,6.5,13.5c0,9.5-7.7,17.2-17.2,17.2s-17.2-7.7-17.2-17.2
		c0-5.3,2.4-10.2,6.5-13.5l-0.9-1.2c-4.5,3.6-7.1,8.9-7.1,14.6C13.4,55.6,21.7,64,32,64S50.6,55.6,50.6,45.4z"/>
	<rect x="46.8" y="1.3" width="1.5" height="1.5"/>
	<rect x="25.2" y="1.3" width="1.5" height="1.5"/>
	<rect x="42.5" y="1.3" width="1.5" height="1.5"/>
	<rect x="51.1" y="1.3" width="0.7" height="1.5"/>
	<rect x="29.5" y="1.3" width="1.5" height="1.5"/>
	<rect x="38.1" y="1.3" width="1.5" height="1.5"/>
	<rect x="33.8" y="1.3" width="1.5" height="1.5"/>
	<rect x="16.5" y="1.3" width="1.5" height="1.5"/>
	<rect x="12.2" y="1.3" width="1.5" height="1.5"/>
	<rect x="20.8" y="1.3" width="1.5" height="1.5"/>
	<rect x="34.4" y="7.5" width="1.5" height="1.5"/>
	<rect x="30" y="7.5" width="1.5" height="1.5"/>
	<rect x="38.7" y="7.5" width="1.5" height="1.5"/>
	<rect x="21.4" y="7.5" width="1.5" height="1.5"/>
	<rect x="17" y="7.5" width="1.5" height="1.5"/>
	<rect x="25.7" y="7.5" width="1.5" height="1.5"/>
	<rect x="43" y="7.5" width="1.5" height="1.5"/>
	<rect x="38.7" y="13.7" width="1.5" height="1.5"/>
	<rect x="34.4" y="13.7" width="1.5" height="1.5"/>
	<rect x="21.4" y="13.7" width="1.5" height="1.5"/>
	<rect x="25.7" y="13.7" width="1.5" height="1.5"/>
	<rect x="30" y="13.7" width="1.5" height="1.5"/>
	<rect x="26.1" y="19.9" width="1.5" height="1.5"/>
	<rect x="34.7" y="19.9" width="1.5" height="1.5"/>
	<rect x="30.4" y="19.9" width="1.5" height="1.5"/>
	<rect x="29.2" y="26.1" width="1.5" height="1.5"/>
	<rect x="32.7" y="26.1" width="1.5" height="1.5"/>
	<rect x="51.5" y="-1.1" transform="matrix(0.9001 0.4357 -0.4357 0.9001 10.8787 -21.4835)" width="1.5" height="28.1"/>
	<rect x="-2.4" y="12.2" transform="matrix(0.4358 0.9001 -0.9001 0.4358 18.2921 -3.2187)" width="28.1" height="1.5"/>
</g>
</svg>
