<?xml version="1.0" encoding="utf-8"?>
<!-- Generator: Adobe Illustrator 18.0.0, SVG Export Plug-In . SVG Version: 6.00 Build 0)  -->
<!DOCTYPE svg PUBLIC "-//W3C//DTD SVG 1.1//EN" "http://www.w3.org/Graphics/SVG/1.1/DTD/svg11.dtd">
<svg version="1.1" id="Layer_1" xmlns="http://www.w3.org/2000/svg" xmlns:xlink="http://www.w3.org/1999/xlink" x="0px" y="0px"
	 viewBox="0 0 64 64" enable-background="new 0 0 64 64" xml:space="preserve">
<g>
	<rect y="38.6" width="64" height="1.5"/>
	<path d="M8.9,30.7H5.2c0.1-4.3,1.3-8.4,3.2-12l3.1,1.8l0.8-1.3l-3.1-1.8c2.2-3.6,5.2-6.6,8.8-8.8l1.8,3.1l1.3-0.8L19.3,8
		c3.6-1.9,7.7-3.1,12-3.2v3.6h1.5V4.7c4.3,0.1,8.4,1.3,12,3.2l-1.8,3.1l1.3,0.8L46,8.7c3.6,2.2,6.6,5.2,8.8,8.8l-3.1,1.8l0.8,1.3
		l3.1-1.8c1.9,3.6,3.1,7.6,3.2,12h-3.6v1.5h5.1v-0.8C60.3,15.9,47.6,3.2,32,3.2S3.7,15.9,3.7,31.5v0.8h5.1V30.7z"/>
	<path d="M32,26.8c-2.6,0-4.7,2.1-4.7,4.7c0,2.6,2.1,4.7,4.7,4.7c2.5,0,4.5-2,4.7-4.4l12.4-17L32.5,26.9
		C32.3,26.8,32.2,26.8,32,26.8z M32,34.7c-1.8,0-3.2-1.4-3.2-3.2c0-1.8,1.4-3.2,3.2-3.2c1.8,0,3.2,1.4,3.2,3.2
		C35.2,33.3,33.8,34.7,32,34.7z M42.2,21.6l-5.9,8.1c-0.4-1-1.1-1.8-2.1-2.3L42.2,21.6z"/>
	<path d="M59.6,53.3v-6.5h-6.5v1.5h4.2C52.2,55,42.5,59.3,32.3,59.3c-10.8,0-21-4.7-25.9-12.1L5.2,48c5.2,7.7,15.9,12.7,27.2,12.7
		c10.4,0,20.2-4.2,25.8-10.9v3.5H59.6z"/>
</g>
</svg>
