<?xml version="1.0" encoding="utf-8"?>
<!-- Generator: Adobe Illustrator 18.0.0, SVG Export Plug-In . SVG Version: 6.00 Build 0)  -->
<!DOCTYPE svg PUBLIC "-//W3C//DTD SVG 1.1//EN" "http://www.w3.org/Graphics/SVG/1.1/DTD/svg11.dtd">
<svg version="1.1" id="Layer_1" xmlns="http://www.w3.org/2000/svg" xmlns:xlink="http://www.w3.org/1999/xlink" x="0px" y="0px"
	 viewBox="0 0 64 64" enable-background="new 0 0 64 64" xml:space="preserve">
<g>
	<path d="M46.7,34.7c0.4-1.9,0.3-3.9-0.1-5.8l2.5-1.7l-1.8-4.2l-3,0.6c-1.1-1.6-2.5-3-4.2-4.1l0.6-3l-4.3-1.7l-1.7,2.6
		c-1.9-0.4-3.9-0.3-5.8,0.1l-1.7-2.5l-4.2,1.8l0.6,3c-1.6,1.1-3,2.5-4.1,4.2l-3-0.6l-1.7,4.3l2.6,1.7c-0.4,1.9-0.3,3.9,0.1,5.8
		l-2.5,1.7l1.8,4.2l3-0.6c1.1,1.6,2.5,3,4.2,4.1l-0.6,3l4.3,1.7l1.7-2.6c1.9,0.4,3.9,0.3,5.8-0.1l1.7,2.5l4.2-1.8l-0.6-3
		c1.6-1.1,3-2.5,4.1-4.2l3,0.6l1.7-4.3L46.7,34.7z M46.6,39l-2.8-0.5c-1.3,2.2-2.9,3.9-5,5.1l0.6,2.8l-2,0.9L35.8,45
		c-2.3,0.7-4.7,0.7-7.1,0.1L27,47.5L25,46.7l0.5-2.8c-2-1.1-3.7-2.8-5.1-5l-2.8,0.6l-0.9-2l2.4-1.6c-0.7-2.4-0.7-4.8-0.1-7.1
		L16.5,27l0.8-2.1l2.8,0.5c1.1-2.1,2.8-3.8,5-5.1l-0.6-2.8l2-0.9l1.6,2.4c2.5-0.6,4.8-0.7,7.1-0.1l1.6-2.4l2.1,0.8l-0.5,2.8
		c2.2,1.2,3.9,2.9,5.1,5l2.8-0.6l0.9,2L45,28.3c0.6,2.5,0.7,4.9,0.1,7.1l2.4,1.6L46.6,39z"/>
	<path d="M42.7,32c0-5.9-4.8-10.7-10.7-10.7c-5.9,0-10.7,4.8-10.7,10.7c0,5.9,4.8,10.7,10.7,10.7C37.9,42.7,42.7,37.9,42.7,32z
		 M22.7,32c0-5.1,4.2-9.3,9.3-9.3s9.3,4.2,9.3,9.3s-4.2,9.3-9.3,9.3S22.7,37.1,22.7,32z"/>
	<path d="M32.7,39.5v-1.9c0.7-0.1,1.3-0.4,1.8-0.8c0.7-0.6,1.1-1.4,1.1-2.3s-0.4-1.7-1.1-2.3c-0.7-0.6-1.6-0.9-2.5-0.9
		c-0.6,0-1.1-0.2-1.5-0.5c-0.4-0.3-0.6-0.8-0.6-1.2c0-0.4,0.2-0.9,0.6-1.2c0.8-0.7,2.3-0.7,3.1,0c0.4,0.3,0.6,0.8,0.6,1.2h1.4
		c0-0.9-0.4-1.7-1.1-2.3c-0.5-0.4-1.1-0.7-1.8-0.8v-2h-1.4v2c-0.7,0.1-1.3,0.4-1.8,0.8c-0.7,0.6-1.1,1.4-1.1,2.3
		c0,0.9,0.4,1.7,1.1,2.3c0.7,0.6,1.6,0.9,2.5,0.9c0.6,0,1.1,0.2,1.5,0.5c0.4,0.3,0.6,0.8,0.6,1.2s-0.2,0.9-0.6,1.2
		c-0.8,0.7-2.3,0.7-3.1,0c-0.4-0.3-0.6-0.8-0.6-1.2h-1.4c0,0.9,0.4,1.7,1.1,2.3c0.5,0.4,1.1,0.7,1.8,0.8v1.9H32.7z"/>
	<path d="M26.6,7l0,5.1l11.3-6L26.6,0l0,5.5c-9.6,2-17.4,9-20.4,18.4l1.4,0.4C10.3,15.5,17.6,8.9,26.6,7z M34.8,6L28,9.6l0-7.2
		L34.8,6z"/>
	<path d="M57,26.6l-5.1,0l6,11.3l6-11.3l-5.5,0c-2-9.6-9-17.4-18.4-20.4l-0.4,1.4C48.5,10.3,55.1,17.6,57,26.6z M58,34.8L54.4,28
		l7.2,0L58,34.8z"/>
	<path d="M57.8,40.2l-1.4-0.4c-2.8,8.8-10,15.4-19,17.3l0-5.1l-11.3,6l11.3,6l0-5.5C47.1,56.5,54.9,49.6,57.8,40.2z M29.2,58
		l6.8-3.6l0,7.2L29.2,58z"/>
	<path d="M23.8,57.8l0.4-1.4c-8.8-2.8-15.4-10-17.3-19l5.1,0L6,26.1L0,37.4l5.5,0C7.5,47.1,14.4,54.9,23.8,57.8z M6,29.2L9.6,36
		l-7.2,0L6,29.2z"/>
</g>
</svg>
