<?xml version="1.0" encoding="utf-8"?>
<!-- Generator: Adobe Illustrator 18.0.0, SVG Export Plug-In . SVG Version: 6.00 Build 0)  -->
<!DOCTYPE svg PUBLIC "-//W3C//DTD SVG 1.1//EN" "http://www.w3.org/Graphics/SVG/1.1/DTD/svg11.dtd">
<svg version="1.1" id="Layer_1" xmlns="http://www.w3.org/2000/svg" xmlns:xlink="http://www.w3.org/1999/xlink" x="0px" y="0px"
	 viewBox="0 0 64 64" enable-background="new 0 0 64 64" xml:space="preserve">
<g>
	<polygon points="31.3,2.8 31.3,11 32.7,11 32.7,2.8 34.6,4.7 35.6,3.6 32,0 28.3,3.7 29.4,4.7 	"/>
	<polygon points="16.8,7.1 20.9,14.2 22.1,13.5 18,6.3 20.6,7 21,5.6 16,4.3 14.7,9.3 16.1,9.7 	"/>
	<polygon points="7,20.6 6.3,18 13.5,22.1 14.2,20.9 7.1,16.8 9.6,16.1 9.3,14.7 4.3,16 5.6,21 	"/>
	<polygon points="2.8,32.7 11,32.7 11,31.3 2.8,31.3 4.7,29.4 3.6,28.4 0,32 3.7,35.7 4.7,34.6 	"/>
	<polygon points="13.5,41.9 6.3,46 7,43.4 5.6,43 4.3,48 9.3,49.3 9.7,47.9 7.1,47.2 14.2,43.1 	"/>
	<polygon points="20.6,57 18,57.7 22.1,50.5 20.9,49.8 16.8,56.9 16.1,54.4 14.7,54.7 16,59.7 21,58.4 	"/>
	<polygon points="35.7,60.3 34.6,59.3 32.7,61.2 32.7,53 31.3,53 31.3,61.2 29.4,59.3 28.4,60.4 32,64 	"/>
	<polygon points="43.4,57 43,58.4 48,59.7 49.3,54.7 47.9,54.3 47.2,56.9 43.1,49.8 41.9,50.5 46,57.7 	"/>
	<polygon points="57,43.4 57.7,46 50.5,41.9 49.8,43.1 56.9,47.2 54.4,47.9 54.7,49.3 59.7,48 58.4,43 	"/>
	<polygon points="61.2,31.3 53,31.3 53,32.7 61.2,32.7 59.3,34.6 60.4,35.6 64,32 60.3,28.3 59.3,29.4 	"/>
	<polygon points="50.5,22.1 57.7,18 57,20.6 58.4,21 59.7,16 54.7,14.7 54.3,16.1 56.9,16.8 49.8,20.9 	"/>
	<polygon points="43.1,14.2 47.2,7.1 47.9,9.6 49.3,9.3 48,4.3 43,5.6 43.4,7 46,6.3 41.9,13.5 	"/>
	<path d="M43.9,36.3c0-0.2,0.1-0.3,0.1-0.4c0.1-0.2,0.4-0.4,0.6-0.4c1.6-0.1,2.4-0.5,3.1-1.3c0.8-0.8,1.2-1.9,1.2-3
		c0-1.1-0.4-2.2-1.2-3c-0.5-0.5-1.1-0.8-1.7-1.1c0.3-0.5,0.4-1.1,0.4-1.7c0-1-0.4-2-1.1-2.7c-1-1-2.6-1.3-3.9-0.9c0,0,0-0.1,0-0.1
		c0-1-0.4-2-1.1-2.7c-0.7-0.7-1.7-1.1-2.7-1.1c-0.9,0-1.7,0.3-2.3,0.8c-0.2-0.4-0.4-0.8-0.8-1.1c-0.7-0.7-1.7-1.1-2.7-1.1
		s-2,0.4-2.7,1.1c-0.3,0.3-0.6,0.7-0.8,1.2c-0.6-0.4-1.4-0.6-2.1-0.6c-1,0-2,0.4-2.7,1.1c-0.7,0.7-1.1,1.7-1.1,2.7c0,0,0,0,0,0
		c-1.3-0.4-2.9-0.1-3.9,0.9c-0.7,0.7-1.1,1.7-1.1,2.7c0,0.6,0.1,1.2,0.4,1.8c-0.5,0.2-1,0.5-1.4,0.9c-0.8,0.8-1.2,1.8-1.2,2.8
		c0,1.1,0.4,2.1,1.2,2.8c0.3,0.3,0.6,0.5,0.9,0.6c-1,0.8-1.5,2.1-1.4,3.4c0.2,2,1.9,3.6,4,3.6c0.4,0.1,2.7,1,2.8,4.3l1.5-0.1
		c-0.1-3.8-2.7-5.4-4-5.7l-0.2,0c-1.4,0-2.5-1-2.7-2.3c-0.1-1.3,0.8-2.5,2.1-2.8l0,0c0.7,0,1.4-0.2,2-0.6l-0.8-1.2
		c-1,0.6-2.4,0.5-3.2-0.3c-0.5-0.5-0.7-1.1-0.7-1.8c0-0.7,0.3-1.3,0.7-1.8c0.4-0.4,1-0.7,1.6-0.7l0.8-0.1l-0.2-1l-0.2-0.2
		c-0.5-0.5-0.7-1.1-0.7-1.7c0-0.6,0.3-1.2,0.7-1.7c0.9-0.9,2.5-0.9,3.4,0c0.2,0.3,0.3,0.5,0.6,0.8l1-1c-0.5-0.5-0.7-1.1-0.7-1.7
		c0-0.6,0.3-1.2,0.7-1.7c0.9-0.9,2.5-0.9,3.4,0c0.5,0.5,0.7,1.1,0.7,1.7v5.6c0,2.2,1.8,3.9,3.9,3.9V30c-1.4,0-2.5-1.1-2.5-2.5v-5.6
		c0-0.7-0.2-1.4-0.6-2c0.1-0.5,0.3-1,0.7-1.3c0.9-0.9,2.5-0.9,3.4,0c0.4,0.4,0.6,0.9,0.7,1.4c-0.3,0.5-0.4,1.1-0.4,1.7h1.5
		c0-0.6,0.3-1.2,0.7-1.7c0.9-0.9,2.5-0.9,3.4,0c0.5,0.5,0.7,1.1,0.7,1.7c0,0.6-0.3,1.2-0.7,1.7l1,1c0.2-0.2,0.4-0.5,0.5-0.7l0,0
		c0.9-0.9,2.5-0.9,3.4,0c0.5,0.5,0.7,1.1,0.7,1.7c0,0.6-0.3,1.2-0.7,1.7l-0.2,0.3l0.1,1h0.7c0.7,0,1.4,0.3,1.9,0.8
		c0.5,0.5,0.8,1.2,0.8,2c0,0.7-0.3,1.4-0.8,2c-0.4,0.4-0.9,0.8-2.2,0.8c-0.7,0-1.4,0.4-1.8,1.1c-0.1,0.2-0.2,0.5-0.3,0.7
		c-0.2,0.5-0.2,0.8-0.9,0.8c-5.7,0.5-7.1,6.3-7,9.2l1.5,0c0-0.3-0.1-7.3,5.7-7.8C43.4,38,43.8,36.9,43.9,36.3z"/>
	<path d="M22.3,31.3l1.4-0.1c0-0.1-0.1-2.1,2.6-2.8L26,27C22.9,27.7,22.2,30.1,22.3,31.3z"/>
	<path d="M34.1,33.2l1.2,0.8c0-0.1,1.2-1.8,3.7-0.8l0.5-1.3C36.7,30.7,34.7,32.2,34.1,33.2z"/>
	<path d="M39.4,26.3C39,23.8,36.6,23,36.5,23l-0.4,1.4c0.1,0,1.7,0.5,1.9,2.1L39.4,26.3z"/>
	<path d="M28.5,40.4l1.4,0.3c0.8-3.2-1.9-5.3-2-5.4l-0.9,1.2C27.1,36.6,29.1,38.1,28.5,40.4z"/>
</g>
</svg>
