<?xml version="1.0" encoding="utf-8"?>
<!-- Generator: Adobe Illustrator 18.0.0, SVG Export Plug-In . SVG Version: 6.00 Build 0)  -->
<!DOCTYPE svg PUBLIC "-//W3C//DTD SVG 1.1//EN" "http://www.w3.org/Graphics/SVG/1.1/DTD/svg11.dtd">
<svg version="1.1" id="Layer_1" xmlns="http://www.w3.org/2000/svg" xmlns:xlink="http://www.w3.org/1999/xlink" x="0px" y="0px"
	 viewBox="0 0 64 64" enable-background="new 0 0 64 64" xml:space="preserve">
<g>
	<path d="M56.9,43.3c-0.9-0.9-1.9-1.5-3.1-1.7c0.6-0.9,0.8-1.9,0.8-3c0-1.5-0.6-3-1.7-4.1c-1.1-1.1-2.5-1.7-4.1-1.7
		c-0.8,0-1.6,0.2-2.3,0.5c0-0.3,0.1-0.5,0.1-0.8c0-1-0.2-1.9-0.7-2.7V16.2h6.2c0.3,1.3,1.5,2.3,2.9,2.3c1.7,0,3-1.3,3-3s-1.3-3-3-3
		c-1.4,0-2.6,1-2.9,2.3h-7.7v13.4c-0.9-0.7-2-1.2-3.1-1.3V11.9l6.5-6.8C48.4,5.7,49.1,6,49.9,6c1.7,0,3-1.3,3-3s-1.3-3-3-3
		c-1.7,0-3,1.3-3,3c0,0.3,0.1,0.6,0.1,0.8l-7.2,7.5v15.6c-1.1,0.2-2.1,0.7-3,1.5c-0.2-0.5-0.4-1-0.7-1.4v-21
		c1.3-0.3,2.3-1.5,2.3-2.9c0-1.7-1.3-3-3-3c-1.7,0-3,1.3-3,3c0,1.4,1,2.6,2.3,2.9v19.6c-1-0.7-2.9-1.6-5.6-0.5V5.9
		c1.3-0.3,2.3-1.5,2.3-2.9c0-1.7-1.3-3-3-3s-3,1.3-3,3c0,1.4,1,2.6,2.3,2.9v20c-0.1,0.1-1.3,1.2-1.7,2.5c-0.6-0.5-1.3-0.8-2-1V11.3
		l-7.2-7.5C17,3.6,17.1,3.3,17.1,3c0-1.7-1.3-3-3-3c-1.7,0-3,1.3-3,3s1.3,3,3,3c0.8,0,1.6-0.3,2.1-0.9l6.5,6.8v15.2
		c-0.1,0-1.7-0.1-3.1,0.8V14.7h-7.7c-0.3-1.3-1.5-2.3-2.9-2.3c-1.7,0-3,1.3-3,3s1.3,3,3,3c1.4,0,2.6-1,2.9-2.3h6.2v13
		c-0.9,1-1.4,2.3-1.4,3.7c0,0.2,0,0.4,0,0.6C16,33.2,15.2,33,14.4,33c-1.5,0-3,0.6-4.1,1.7c-1.1,1.1-1.7,2.5-1.7,4.1
		c0,1.1,0.3,2.1,0.9,3.1c-1,0.3-1.9,0.8-2.6,1.5c-1.1,1.1-1.8,2.6-1.8,4.2c0,1.6,0.6,3.1,1.8,4.2c0.5,0.5,1.2,1,1.9,1.3
		c-1.7,1.2-2.8,3.3-2.6,5.5c0.3,3,3,5.4,6.2,5.4H26c2,0,3.7-1.6,3.7-3.7H33c1.3,0,2.3-0.4,3.1-1.2c0.7-0.7,1-1.6,1.1-2.2h14.8
		c1.4,0,2.5-0.4,3.2-1.2c0.8-0.9,1-2,1.1-2.8c0.3-0.2,0.5-0.4,0.7-0.7c1.2-1.2,1.9-2.8,1.9-4.5C58.8,46.1,58.1,44.5,56.9,43.3z
		 M55.1,13.9c0.8,0,1.5,0.7,1.5,1.5c0,0.8-0.7,1.5-1.5,1.5c-0.8,0-1.5-0.7-1.5-1.5C53.5,14.6,54.2,13.9,55.1,13.9z M49.9,1.5
		c0.8,0,1.5,0.7,1.5,1.5c0,0.8-0.7,1.5-1.5,1.5c-0.8,0-1.5-0.7-1.5-1.5C48.4,2.2,49.1,1.5,49.9,1.5z M14.1,4.5
		c-0.8,0-1.5-0.7-1.5-1.5c0-0.8,0.7-1.5,1.5-1.5c0.8,0,1.5,0.7,1.5,1.5C15.6,3.8,14.9,4.5,14.1,4.5z M8.9,17c-0.8,0-1.5-0.7-1.5-1.5
		c0-0.8,0.7-1.5,1.5-1.5c0.8,0,1.5,0.7,1.5,1.5C10.5,16.3,9.8,17,8.9,17z M34,3c0-0.8,0.7-1.5,1.5-1.5C36.4,1.5,37,2.2,37,3
		c0,0.8-0.7,1.5-1.5,1.5C34.7,4.5,34,3.8,34,3z M27,3c0-0.8,0.7-1.5,1.5-1.5C29.3,1.5,30,2.2,30,3c0,0.8-0.7,1.5-1.5,1.5
		C27.6,4.5,27,3.8,27,3z M35.2,44.5c0,0.1-0.4,2.1,0.7,3.5c0.7,0.9,1.9,1.4,3.5,1.4H57c-0.2,0.7-0.6,1.3-1.1,1.8
		c-0.9,0.9-1.9,1.6-5,1.4l-0.1,1.5c0.3,0,0.6,0,0.9,0c1.2,0,2.1-0.1,2.8-0.4c-0.1,0.3-0.2,0.7-0.5,0.9c-0.5,0.5-1.2,0.7-2.1,0.7
		H32.5v1.5h3.1c-0.1,0.4-0.3,0.8-0.6,1.2c-0.5,0.5-1.2,0.7-2.1,0.7H19.4v1.5h8.9c0,1.2-1,2.2-2.3,2.2H12.4c-2.4,0-4.5-1.8-4.7-4.1
		c-0.2-2.4,1.4-4.5,3.7-4.9l0,0c1.1,0,2.1-0.4,3.1-1l-0.8-1.2c-0.7,0.5-3.2,1.7-5.7-0.6c-0.9-0.9-1.3-2-1.3-3.2
		c0-1.2,0.5-2.3,1.3-3.2c1.4-1.4,3.6-1.4,3.6-1.4v-1c0,0-3.2-2.8-0.2-6.3c0.8-0.8,1.9-1.3,3-1.3c1.1,0,2.2,0.4,3,1.2
		c0.3,0.4,0.6,0.9,0.9,1.2l1-1c-0.8-0.8-1.3-1.9-1.3-3c0-1.1,0.4-2.2,1.3-3c0.8-0.8,1.9-1.3,3-1.3c3.7,0.2,4.3,3.3,4.3,4.3h1.5
		c0-1.1-0.3-2.2-0.9-3.2c0.1-1,0.5-1.8,1.2-2.5c0.8-0.8,1.9-1.3,3-1.3c1.1,0,2.2,0.4,3,1.3c0.7,0.7,1.1,1.6,1.2,2.6
		c-0.4,0.8-0.7,1.8-0.7,2.7h1.5c0-0.8,0.2-1.6,0.7-2.3h0c0,0,0,0,0-0.1c0.2-0.2,0.3-0.5,0.5-0.7c0.8-0.8,1.9-1.3,3-1.3
		c1.1,0,2.2,0.4,3,1.3c0.8,0.8,1.3,1.9,1.3,3s-0.4,2.2-1.3,3l1,1c0.3-0.3,0.6-0.7,0.9-1.1l0.1,0.1c0.8-0.8,1.9-1.3,3-1.3
		c6.6,0.6,3.6,7.2,2.8,7.6l0.1,1c0,0,5.1-0.5,5.5,4.9c0,0.1,0,0.1,0,0.2H39.4c-1.1,0-1.9-0.3-2.4-0.8c-0.7-0.9-0.4-2.3-0.4-2.3
		L35.2,44.5z"/>
	<path d="M16.8,46.5l-0.1,1.5c0.2,0,4.1,0.4,4.6,5l1.5-0.2C22.1,47,16.9,46.5,16.8,46.5z"/>
	<path d="M27.5,37.1l-0.7,1.3c0.1,0.1,2.7,1.6,1.6,5.1l1.4,0.5C31,40.2,28.8,37.8,27.5,37.1z"/>
	<path d="M42.6,42.5l0.5-1.4c-4.3-1.6-3.8-5.5-3.8-5.6l-0.7-0.1l-0.7-0.1C37.8,35.3,37.1,40.5,42.6,42.5z"/>
</g>
</svg>
