<?xml version="1.0" encoding="UTF-8" standalone="no"?>
<!DOCTYPE svg PUBLIC "-//W3C//DTD SVG 1.1//EN" "http://www.w3.org/Graphics/SVG/1.1/DTD/svg11.dtd">
<svg width="100%" height="100%" viewBox="0 0 64 64" version="1.1" xmlns="http://www.w3.org/2000/svg" xmlns:xlink="http://www.w3.org/1999/xlink" xml:space="preserve" xmlns:serif="http://www.serif.com/" style="fill-rule:evenodd;clip-rule:evenodd;stroke-linejoin:round;stroke-miterlimit:1.41421;">
    <g>
        <path d="M60.25,57.25L4.25,57.25C2.596,57.25 1.25,55.904 1.25,54.25C1.25,52.596 2.596,51.25 4.25,51.25L60.25,51.25C61.904,51.25 63.25,52.596 63.25,54.25C63.25,55.904 61.904,57.25 60.25,57.25ZM4.25,52.25C3.147,52.25 2.25,53.147 2.25,54.25C2.25,55.353 3.147,56.25 4.25,56.25L60.25,56.25C61.353,56.25 62.25,55.353 62.25,54.25C62.25,53.147 61.353,52.25 60.25,52.25L4.25,52.25Z" style="fill:rgb(38,50,56);fill-rule:nonzero;"/>
        <path d="M34.75,54.75L29.75,54.75C28.923,54.75 28.25,54.077 28.25,53.25L28.25,51.75C28.25,51.474 28.474,51.25 28.75,51.25C29.026,51.25 29.25,51.474 29.25,51.75L29.25,53.25C29.25,53.526 29.475,53.75 29.75,53.75L34.75,53.75C35.025,53.75 35.25,53.526 35.25,53.25L35.25,51.75C35.25,51.474 35.474,51.25 35.75,51.25C36.026,51.25 36.25,51.474 36.25,51.75L36.25,53.25C36.25,54.077 35.577,54.75 34.75,54.75Z" style="fill:rgb(38,50,56);fill-rule:nonzero;"/>
        <path d="M12.25,8.25L8.25,8.25C7.974,8.25 7.75,8.026 7.75,7.75C7.75,7.474 7.974,7.25 8.25,7.25L12.25,7.25C12.526,7.25 12.75,7.474 12.75,7.75C12.75,8.026 12.526,8.25 12.25,8.25Z" style="fill:rgb(38,50,56);fill-rule:nonzero;"/>
        <path d="M10.25,10.25C9.974,10.25 9.75,10.026 9.75,9.75L9.75,5.75C9.75,5.474 9.974,5.25 10.25,5.25C10.526,5.25 10.75,5.474 10.75,5.75L10.75,9.75C10.75,10.026 10.526,10.25 10.25,10.25Z" style="fill:rgb(38,50,56);fill-rule:nonzero;"/>
        <path d="M5.25,14.75L1.25,14.75C0.974,14.75 0.75,14.526 0.75,14.25C0.75,13.974 0.974,13.75 1.25,13.75L5.25,13.75C5.526,13.75 5.75,13.974 5.75,14.25C5.75,14.526 5.526,14.75 5.25,14.75Z" style="fill:rgb(38,50,56);fill-rule:nonzero;"/>
        <path d="M3.25,16.75C2.974,16.75 2.75,16.526 2.75,16.25L2.75,12.25C2.75,11.974 2.974,11.75 3.25,11.75C3.526,11.75 3.75,11.974 3.75,12.25L3.75,16.25C3.75,16.526 3.526,16.75 3.25,16.75Z" style="fill:rgb(38,50,56);fill-rule:nonzero;"/>
        <g>
            <path d="M48.002,13.25C48.002,10.135 45.154,7.685 41.919,8.364C40.011,8.764 38.482,10.322 38.103,12.234C37.767,13.93 38.294,15.497 39.317,16.606C40.042,17.392 40.502,18.384 40.502,19.454L40.502,19.751L45.502,19.751L45.502,19.456C45.502,18.381 45.972,17.388 46.698,16.595C47.507,15.711 48.002,14.542 48.002,13.25Z" style="fill:rgb(248,188,3);fill-rule:nonzero;"/>
            <path d="M45.502,20.25L40.502,20.25C40.226,20.25 40.002,20.026 40.002,19.75L40.002,19.453C40.002,18.571 39.628,17.681 38.95,16.944C37.752,15.645 37.264,13.893 37.613,12.136C38.031,10.026 39.72,8.314 41.817,7.874C43.477,7.523 45.173,7.928 46.466,8.978C47.759,10.028 48.501,11.585 48.501,13.249C48.501,14.613 47.991,15.92 47.065,16.93C46.58,17.461 46.001,18.329 46.001,19.453L46.001,19.748C46.002,20.026 45.778,20.25 45.502,20.25ZM40.997,19.25L45.007,19.25C45.059,18.179 45.513,17.148 46.329,16.256C47.086,15.431 47.502,14.363 47.502,13.25C47.502,11.888 46.895,10.614 45.837,9.754C44.779,8.895 43.388,8.566 42.023,8.853C40.313,9.211 38.936,10.609 38.594,12.331C38.309,13.771 38.706,15.205 39.685,16.267C40.483,17.132 40.945,18.185 40.997,19.25Z" style="fill:rgb(38,50,56);fill-rule:nonzero;"/>
        </g>
        <path d="M43.002,25.25C41.348,25.25 40.002,23.904 40.002,22.25L40.002,19.75C40.002,19.474 40.226,19.25 40.502,19.25L45.502,19.25C45.778,19.25 46.002,19.474 46.002,19.75L46.002,22.25C46.002,23.904 44.656,25.25 43.002,25.25ZM41.002,20.25L41.002,22.25C41.002,23.353 41.899,24.25 43.002,24.25C44.105,24.25 45.002,23.353 45.002,22.25L45.002,20.25L41.002,20.25Z" style="fill:rgb(38,50,56);fill-rule:nonzero;"/>
        <path d="M45.502,22.75L40.502,22.75C40.226,22.75 40.002,22.526 40.002,22.25C40.002,21.974 40.226,21.75 40.502,21.75L45.502,21.75C45.778,21.75 46.002,21.974 46.002,22.25C46.002,22.526 45.778,22.75 45.502,22.75Z" style="fill:rgb(38,50,56);fill-rule:nonzero;"/>
        <path d="M43.002,5.75C42.726,5.75 42.502,5.526 42.502,5.25L42.502,3.25C42.502,2.974 42.726,2.75 43.002,2.75C43.278,2.75 43.502,2.974 43.502,3.25L43.502,5.25C43.502,5.526 43.278,5.75 43.002,5.75Z" style="fill:rgb(38,50,56);fill-rule:nonzero;"/>
        <path d="M38.002,7.457C37.874,7.457 37.746,7.408 37.648,7.311L36.234,5.897C36.039,5.702 36.039,5.385 36.234,5.19C36.429,4.995 36.746,4.995 36.941,5.19L38.355,6.604C38.55,6.799 38.55,7.116 38.355,7.311C38.258,7.408 38.13,7.457 38.002,7.457Z" style="fill:rgb(38,50,56);fill-rule:nonzero;"/>
        <path d="M48.002,7.457C47.874,7.457 47.746,7.408 47.648,7.311C47.453,7.116 47.453,6.799 47.648,6.604L49.063,5.19C49.258,4.995 49.575,4.995 49.77,5.19C49.965,5.385 49.965,5.702 49.77,5.897L48.355,7.311C48.258,7.408 48.13,7.457 48.002,7.457Z" style="fill:rgb(38,50,56);fill-rule:nonzero;"/>
        <path d="M43.002,20.25C42.726,20.25 42.502,20.026 42.502,19.75L42.502,14.75C42.502,14.474 42.726,14.25 43.002,14.25C43.278,14.25 43.502,14.474 43.502,14.75L43.502,19.75C43.502,20.026 43.278,20.25 43.002,20.25Z" style="fill:rgb(38,50,56);fill-rule:nonzero;"/>
        <path d="M53.25,47.25L11.25,47.25C10.423,47.25 9.75,46.577 9.75,45.75L9.75,19.75C9.75,18.923 10.423,18.25 11.25,18.25L38.353,18.25C38.629,18.25 38.853,18.474 38.853,18.75C38.853,19.026 38.629,19.25 38.353,19.25L11.25,19.25C10.975,19.25 10.75,19.474 10.75,19.75L10.75,45.75C10.75,46.026 10.975,46.25 11.25,46.25L53.25,46.25C53.525,46.25 53.75,46.026 53.75,45.75L53.75,19.75C53.75,19.474 53.525,19.25 53.25,19.25L47.658,19.25C47.382,19.25 47.158,19.026 47.158,18.75C47.158,18.474 47.382,18.25 47.658,18.25L53.25,18.25C54.077,18.25 54.75,18.923 54.75,19.75L54.75,45.75C54.75,46.577 54.077,47.25 53.25,47.25Z" style="fill:rgb(38,50,56);fill-rule:nonzero;"/>
        <path d="M7.25,50.25C6.974,50.25 6.75,50.026 6.75,49.75L6.75,18.25C6.75,16.596 8.096,15.25 9.75,15.25L36.474,15.25C36.75,15.25 36.974,15.474 36.974,15.75C36.974,16.026 36.75,16.25 36.474,16.25L9.75,16.25C8.647,16.25 7.75,17.147 7.75,18.25L7.75,49.75C7.75,50.026 7.526,50.25 7.25,50.25Z" style="fill:rgb(38,50,56);fill-rule:nonzero;"/>
        <path d="M57.25,50.25C56.974,50.25 56.75,50.026 56.75,49.75L56.75,18.25C56.75,17.147 55.853,16.25 54.75,16.25L49.535,16.25C49.259,16.25 49.035,16.026 49.035,15.75C49.035,15.474 49.259,15.25 49.535,15.25L54.75,15.25C56.404,15.25 57.75,16.596 57.75,18.25L57.75,49.75C57.75,50.026 57.526,50.25 57.25,50.25Z" style="fill:rgb(38,50,56);fill-rule:nonzero;"/>
        <g>
            <rect x="13.75" y="38" width="4" height="5" style="fill:rgb(248,188,3);"/>
            <path d="M17.75,43.5L13.75,43.5C13.474,43.5 13.25,43.276 13.25,43L13.25,38C13.25,37.724 13.474,37.5 13.75,37.5L17.75,37.5C18.026,37.5 18.25,37.724 18.25,38L18.25,43C18.25,43.276 18.026,43.5 17.75,43.5ZM14.25,42.5L17.25,42.5L17.25,38.5L14.25,38.5L14.25,42.5Z" style="fill:rgb(38,50,56);fill-rule:nonzero;"/>
        </g>
        <g>
            <rect x="21.502" y="35" width="4" height="8" style="fill:rgb(206,44,5);"/>
            <path d="M25.502,43.5L21.502,43.5C21.226,43.5 21.002,43.276 21.002,43L21.002,35C21.002,34.724 21.226,34.5 21.502,34.5L25.502,34.5C25.778,34.5 26.002,34.724 26.002,35L26.002,43C26.002,43.276 25.778,43.5 25.502,43.5ZM22.002,42.5L25.002,42.5L25.002,35.5L22.002,35.5L22.002,42.5Z" style="fill:rgb(38,50,56);fill-rule:nonzero;"/>
        </g>
        <g>
            <rect x="29.002" y="29.5" width="4" height="13.5" style="fill:rgb(140,165,195);"/>
            <path d="M33.002,43.5L29.002,43.5C28.726,43.5 28.502,43.276 28.502,43L28.502,29.5C28.502,29.224 28.726,29 29.002,29L33.002,29C33.278,29 33.502,29.224 33.502,29.5L33.502,43C33.502,43.276 33.278,43.5 33.002,43.5ZM29.502,42.5L32.502,42.5L32.502,30L29.502,30L29.502,42.5Z" style="fill:rgb(38,50,56);fill-rule:nonzero;"/>
        </g>
        <path d="M23.502,32.5C23.369,32.5 23.242,32.447 23.148,32.354L19.966,29.172L16.784,32.354C16.589,32.549 16.272,32.549 16.077,32.354C15.882,32.159 15.882,31.842 16.077,31.647L19.612,28.111C19.8,27.923 20.132,27.923 20.319,28.111L23.501,31.293L32.647,22.147C32.842,21.952 33.159,21.952 33.354,22.147C33.549,22.342 33.549,22.659 33.354,22.854L23.854,32.354C23.762,32.447 23.635,32.5 23.502,32.5Z" style="fill:rgb(38,50,56);fill-rule:nonzero;"/>
        <path d="M33.002,27C32.726,27 32.502,26.776 32.502,26.5L32.502,23L29.002,23C28.726,23 28.502,22.776 28.502,22.5C28.502,22.224 28.726,22 29.002,22L33.002,22C33.278,22 33.502,22.224 33.502,22.5L33.502,26.5C33.502,26.776 33.278,27 33.002,27Z" style="fill:rgb(38,50,56);fill-rule:nonzero;"/>
        <path d="M48.002,39.5L38.002,39.5C37.726,39.5 37.502,39.276 37.502,39C37.502,38.724 37.726,38.5 38.002,38.5L48.002,38.5C48.278,38.5 48.502,38.724 48.502,39C48.502,39.276 48.278,39.5 48.002,39.5Z" style="fill:rgb(38,50,56);fill-rule:nonzero;"/>
        <path d="M48.002,35.5L38.002,35.5C37.726,35.5 37.502,35.276 37.502,35C37.502,34.724 37.726,34.5 38.002,34.5L48.002,34.5C48.278,34.5 48.502,34.724 48.502,35C48.502,35.276 48.278,35.5 48.002,35.5Z" style="fill:rgb(38,50,56);fill-rule:nonzero;"/>
        <path d="M48.002,31.5L38.002,31.5C37.726,31.5 37.502,31.276 37.502,31C37.502,30.724 37.726,30.5 38.002,30.5L48.002,30.5C48.278,30.5 48.502,30.724 48.502,31C48.502,31.276 48.278,31.5 48.002,31.5Z" style="fill:rgb(38,50,56);fill-rule:nonzero;"/>
        <path d="M44,61.25L43,61.25C42.724,61.25 42.5,61.026 42.5,60.75C42.5,60.474 42.724,60.25 43,60.25L44,60.25C44.276,60.25 44.5,60.474 44.5,60.75C44.5,61.026 44.276,61.25 44,61.25Z" style="fill:rgb(38,50,56);fill-rule:nonzero;"/>
        <path d="M41,61.25L20,61.25C19.724,61.25 19.5,61.026 19.5,60.75C19.5,60.474 19.724,60.25 20,60.25L41,60.25C41.276,60.25 41.5,60.474 41.5,60.75C41.5,61.026 41.276,61.25 41,61.25Z" style="fill:rgb(38,50,56);fill-rule:nonzero;"/>
    </g>
</svg>
