<?xml version="1.0" encoding="UTF-8" standalone="no"?>
<!DOCTYPE svg PUBLIC "-//W3C//DTD SVG 1.1//EN" "http://www.w3.org/Graphics/SVG/1.1/DTD/svg11.dtd">
<svg width="100%" height="100%" viewBox="0 0 64 64" version="1.1" xmlns="http://www.w3.org/2000/svg" xmlns:xlink="http://www.w3.org/1999/xlink" xml:space="preserve" xmlns:serif="http://www.serif.com/" style="fill-rule:evenodd;clip-rule:evenodd;stroke-linejoin:round;stroke-miterlimit:1.41421;">
    <g>
        <path d="M60,56.75L4,56.75C3.724,56.75 3.5,56.526 3.5,56.25L3.5,5.25C3.5,4.974 3.724,4.75 4,4.75C4.276,4.75 4.5,4.974 4.5,5.25L4.5,55.75L60,55.75C60.276,55.75 60.5,55.974 60.5,56.25C60.5,56.526 60.276,56.75 60,56.75Z" style="fill:rgb(38,50,56);fill-rule:nonzero;"/>
        <path d="M12,59.25C11.724,59.25 11.5,59.026 11.5,58.75L11.5,56.25C11.5,55.974 11.724,55.75 12,55.75C12.276,55.75 12.5,55.974 12.5,56.25L12.5,58.75C12.5,59.026 12.276,59.25 12,59.25Z" style="fill:rgb(38,50,56);fill-rule:nonzero;"/>
        <path d="M22,59.25C21.724,59.25 21.5,59.026 21.5,58.75L21.5,56.25C21.5,55.974 21.724,55.75 22,55.75C22.276,55.75 22.5,55.974 22.5,56.25L22.5,58.75C22.5,59.026 22.276,59.25 22,59.25Z" style="fill:rgb(38,50,56);fill-rule:nonzero;"/>
        <path d="M32,59.25C31.724,59.25 31.5,59.026 31.5,58.75L31.5,56.25C31.5,55.974 31.724,55.75 32,55.75C32.276,55.75 32.5,55.974 32.5,56.25L32.5,58.75C32.5,59.026 32.276,59.25 32,59.25Z" style="fill:rgb(38,50,56);fill-rule:nonzero;"/>
        <path d="M42,59.25C41.724,59.25 41.5,59.026 41.5,58.75L41.5,56.25C41.5,55.974 41.724,55.75 42,55.75C42.276,55.75 42.5,55.974 42.5,56.25L42.5,58.75C42.5,59.026 42.276,59.25 42,59.25Z" style="fill:rgb(38,50,56);fill-rule:nonzero;"/>
        <path d="M52,59.25C51.724,59.25 51.5,59.026 51.5,58.75L51.5,56.25C51.5,55.974 51.724,55.75 52,55.75C52.276,55.75 52.5,55.974 52.5,56.25L52.5,58.75C52.5,59.026 52.276,59.25 52,59.25Z" style="fill:rgb(38,50,56);fill-rule:nonzero;"/>
        <g>
            <rect x="12" y="41.25" width="5" height="5" style="fill:rgb(248,188,3);"/>
            <path d="M17,46.75L12,46.75C11.724,46.75 11.5,46.526 11.5,46.25L11.5,41.25C11.5,40.974 11.724,40.75 12,40.75L17,40.75C17.276,40.75 17.5,40.974 17.5,41.25L17.5,46.25C17.5,46.526 17.276,46.75 17,46.75ZM12.5,45.75L16.5,45.75L16.5,41.75L12.5,41.75L12.5,45.75Z" style="fill:rgb(38,50,56);fill-rule:nonzero;"/>
        </g>
        <g>
            <rect x="26" y="42.25" width="5" height="5" style="fill:rgb(248,188,3);"/>
            <path d="M31,47.75L26,47.75C25.724,47.75 25.5,47.526 25.5,47.25L25.5,42.25C25.5,41.974 25.724,41.75 26,41.75L31,41.75C31.276,41.75 31.5,41.974 31.5,42.25L31.5,47.25C31.5,47.526 31.276,47.75 31,47.75ZM26.5,46.75L30.5,46.75L30.5,42.75L26.5,42.75L26.5,46.75Z" style="fill:rgb(38,50,56);fill-rule:nonzero;"/>
        </g>
        <g>
            <rect x="15" y="28.25" width="5" height="5" style="fill:rgb(248,188,3);"/>
            <path d="M20,33.75L15,33.75C14.724,33.75 14.5,33.526 14.5,33.25L14.5,28.25C14.5,27.974 14.724,27.75 15,27.75L20,27.75C20.276,27.75 20.5,27.974 20.5,28.25L20.5,33.25C20.5,33.526 20.276,33.75 20,33.75ZM15.5,32.75L19.5,32.75L19.5,28.75L15.5,28.75L15.5,32.75Z" style="fill:rgb(38,50,56);fill-rule:nonzero;"/>
        </g>
        <g>
            <rect x="25" y="31.25" width="5" height="5" style="fill:rgb(248,188,3);"/>
            <path d="M30,36.75L25,36.75C24.724,36.75 24.5,36.526 24.5,36.25L24.5,31.25C24.5,30.974 24.724,30.75 25,30.75L30,30.75C30.276,30.75 30.5,30.974 30.5,31.25L30.5,36.25C30.5,36.526 30.276,36.75 30,36.75ZM25.5,35.75L29.5,35.75L29.5,31.75L25.5,31.75L25.5,35.75Z" style="fill:rgb(38,50,56);fill-rule:nonzero;"/>
        </g>
        <path d="M18.414,13.269C18.286,13.269 18.158,13.22 18.06,13.123L16.646,11.709C16.451,11.514 16.451,11.197 16.646,11.002C16.841,10.807 17.158,10.807 17.353,11.002L18.767,12.416C18.962,12.611 18.962,12.928 18.767,13.123C18.67,13.22 18.542,13.269 18.414,13.269Z" style="fill:rgb(38,50,56);fill-rule:nonzero;"/>
        <path d="M46.172,41.026C46.044,41.026 45.916,40.977 45.818,40.88L19.475,14.537C19.28,14.342 19.28,14.025 19.475,13.83C19.67,13.635 19.987,13.635 20.182,13.83L46.525,40.173C46.72,40.368 46.72,40.685 46.525,40.88C46.428,40.977 46.3,41.026 46.172,41.026Z" style="fill:rgb(38,50,56);fill-rule:nonzero;"/>
        <path d="M49,43.854C48.872,43.854 48.744,43.805 48.646,43.708L47.232,42.294C47.037,42.099 47.037,41.782 47.232,41.587C47.427,41.392 47.744,41.392 47.939,41.587L49.353,43.001C49.548,43.196 49.548,43.513 49.353,43.708C49.256,43.806 49.128,43.854 49,43.854Z" style="fill:rgb(38,50,56);fill-rule:nonzero;"/>
        <g>
            <circle cx="30.5" cy="11.75" r="2.5" style="fill:rgb(206,44,5);"/>
            <path d="M30.5,14.75C28.846,14.75 27.5,13.404 27.5,11.75C27.5,10.096 28.846,8.75 30.5,8.75C32.154,8.75 33.5,10.096 33.5,11.75C33.5,13.404 32.154,14.75 30.5,14.75ZM30.5,9.75C29.397,9.75 28.5,10.647 28.5,11.75C28.5,12.853 29.397,13.75 30.5,13.75C31.603,13.75 32.5,12.853 32.5,11.75C32.5,10.647 31.603,9.75 30.5,9.75Z" style="fill:rgb(38,50,56);fill-rule:nonzero;"/>
        </g>
        <g>
            <circle cx="47.5" cy="29.25" r="2.5" style="fill:rgb(206,44,5);"/>
            <path d="M47.5,32.25C45.846,32.25 44.5,30.904 44.5,29.25C44.5,27.596 45.846,26.25 47.5,26.25C49.154,26.25 50.5,27.596 50.5,29.25C50.5,30.904 49.154,32.25 47.5,32.25ZM47.5,27.25C46.397,27.25 45.5,28.147 45.5,29.25C45.5,30.353 46.397,31.25 47.5,31.25C48.603,31.25 49.5,30.353 49.5,29.25C49.5,28.147 48.603,27.25 47.5,27.25Z" style="fill:rgb(38,50,56);fill-rule:nonzero;"/>
        </g>
        <g>
            <circle cx="47.5" cy="17.25" r="2.5" style="fill:rgb(206,44,5);"/>
            <path d="M47.5,20.25C45.846,20.25 44.5,18.904 44.5,17.25C44.5,15.596 45.846,14.25 47.5,14.25C49.154,14.25 50.5,15.596 50.5,17.25C50.5,18.904 49.154,20.25 47.5,20.25ZM47.5,15.25C46.397,15.25 45.5,16.147 45.5,17.25C45.5,18.353 46.397,19.25 47.5,19.25C48.603,19.25 49.5,18.353 49.5,17.25C49.5,16.147 48.603,15.25 47.5,15.25Z" style="fill:rgb(38,50,56);fill-rule:nonzero;"/>
        </g>
        <g>
            <circle cx="38.5" cy="17.25" r="2.5" style="fill:rgb(206,44,5);"/>
            <path d="M38.5,20.25C36.846,20.25 35.5,18.904 35.5,17.25C35.5,15.596 36.846,14.25 38.5,14.25C40.154,14.25 41.5,15.596 41.5,17.25C41.5,18.904 40.154,20.25 38.5,20.25ZM38.5,15.25C37.397,15.25 36.5,16.147 36.5,17.25C36.5,18.353 37.397,19.25 38.5,19.25C39.603,19.25 40.5,18.353 40.5,17.25C40.5,16.147 39.603,15.25 38.5,15.25Z" style="fill:rgb(38,50,56);fill-rule:nonzero;"/>
        </g>
    </g>
</svg>
