<?xml version="1.0" encoding="UTF-8" standalone="no"?>
<!DOCTYPE svg PUBLIC "-//W3C//DTD SVG 1.1//EN" "http://www.w3.org/Graphics/SVG/1.1/DTD/svg11.dtd">
<svg width="100%" height="100%" viewBox="0 0 64 64" version="1.1" xmlns="http://www.w3.org/2000/svg" xmlns:xlink="http://www.w3.org/1999/xlink" xml:space="preserve" xmlns:serif="http://www.serif.com/" style="fill-rule:evenodd;clip-rule:evenodd;stroke-linejoin:round;stroke-miterlimit:1.41421;">
    <g>
        <path d="M42,32.5L22,32.5C21.724,32.5 21.5,32.276 21.5,32C21.5,31.724 21.724,31.5 22,31.5L42,31.5C42.276,31.5 42.5,31.724 42.5,32C42.5,32.276 42.276,32.5 42,32.5Z" style="fill:rgb(38,50,56);fill-rule:nonzero;"/>
        <path d="M13.5,15L5.5,15C4.673,15 4,14.327 4,13.5L4,5.5C4,4.673 4.673,4 5.5,4L13.5,4C14.327,4 15,4.673 15,5.5L15,13.5C15,14.327 14.327,15 13.5,15ZM5.5,5C5.225,5 5,5.225 5,5.5L5,13.5C5,13.775 5.225,14 5.5,14L13.5,14C13.775,14 14,13.775 14,13.5L14,5.5C14,5.225 13.775,5 13.5,5L5.5,5Z" style="fill:rgb(38,50,56);fill-rule:nonzero;"/>
        <g>
            <path d="M28.5,14.5L20.5,14.5C19.948,14.5 19.5,14.052 19.5,13.5L19.5,5.5C19.5,4.948 19.948,4.5 20.5,4.5L28.5,4.5C29.052,4.5 29.5,4.948 29.5,5.5L29.5,13.5C29.5,14.052 29.052,14.5 28.5,14.5Z" style="fill:rgb(140,165,195);fill-rule:nonzero;"/>
            <path d="M28.5,15L20.5,15C19.673,15 19,14.327 19,13.5L19,5.5C19,4.673 19.673,4 20.5,4L28.5,4C29.327,4 30,4.673 30,5.5L30,13.5C30,14.327 29.327,15 28.5,15ZM20.5,5C20.225,5 20,5.225 20,5.5L20,13.5C20,13.775 20.225,14 20.5,14L28.5,14C28.775,14 29,13.775 29,13.5L29,5.5C29,5.225 28.775,5 28.5,5L20.5,5Z" style="fill:rgb(38,50,56);fill-rule:nonzero;"/>
        </g>
        <path d="M43.5,15L35.5,15C34.673,15 34,14.327 34,13.5L34,5.5C34,4.673 34.673,4 35.5,4L43.5,4C44.327,4 45,4.673 45,5.5L45,13.5C45,14.327 44.327,15 43.5,15ZM35.5,5C35.225,5 35,5.225 35,5.5L35,13.5C35,13.775 35.225,14 35.5,14L43.5,14C43.775,14 44,13.775 44,13.5L44,5.5C44,5.225 43.775,5 43.5,5L35.5,5Z" style="fill:rgb(38,50,56);fill-rule:nonzero;"/>
        <path d="M21,37.5L13,37.5C12.173,37.5 11.5,36.827 11.5,36L11.5,28C11.5,27.173 12.173,26.5 13,26.5L21,26.5C21.827,26.5 22.5,27.173 22.5,28L22.5,36C22.5,36.827 21.827,37.5 21,37.5ZM13,27.5C12.725,27.5 12.5,27.725 12.5,28L12.5,36C12.5,36.275 12.725,36.5 13,36.5L21,36.5C21.275,36.5 21.5,36.275 21.5,36L21.5,28C21.5,27.725 21.275,27.5 21,27.5L13,27.5Z" style="fill:rgb(38,50,56);fill-rule:nonzero;"/>
        <g>
            <path d="M36,37L28,37C27.448,37 27,36.552 27,36L27,28C27,27.448 27.448,27 28,27L36,27C36.552,27 37,27.448 37,28L37,36C37,36.552 36.552,37 36,37Z" style="fill:rgb(206,44,5);fill-rule:nonzero;"/>
            <path d="M36,37.5L28,37.5C27.173,37.5 26.5,36.827 26.5,36L26.5,28C26.5,27.173 27.173,26.5 28,26.5L36,26.5C36.827,26.5 37.5,27.173 37.5,28L37.5,36C37.5,36.827 36.827,37.5 36,37.5ZM28,27.5C27.725,27.5 27.5,27.725 27.5,28L27.5,36C27.5,36.275 27.725,36.5 28,36.5L36,36.5C36.275,36.5 36.5,36.275 36.5,36L36.5,28C36.5,27.725 36.275,27.5 36,27.5L28,27.5Z" style="fill:rgb(38,50,56);fill-rule:nonzero;"/>
        </g>
        <g>
            <path d="M51,37L43,37C42.448,37 42,36.552 42,36L42,28C42,27.448 42.448,27 43,27L51,27C51.552,27 52,27.448 52,28L52,36C52,36.552 51.552,37 51,37Z" style="fill:rgb(248,188,3);fill-rule:nonzero;"/>
            <path d="M51,37.5L43,37.5C42.173,37.5 41.5,36.827 41.5,36L41.5,28C41.5,27.173 42.173,26.5 43,26.5L51,26.5C51.827,26.5 52.5,27.173 52.5,28L52.5,36C52.5,36.827 51.827,37.5 51,37.5ZM43,27.5C42.725,27.5 42.5,27.725 42.5,28L42.5,36C42.5,36.275 42.725,36.5 43,36.5L51,36.5C51.275,36.5 51.5,36.275 51.5,36L51.5,28C51.5,27.725 51.275,27.5 51,27.5L43,27.5Z" style="fill:rgb(38,50,56);fill-rule:nonzero;"/>
        </g>
        <g>
            <path d="M58.5,14.5L50.5,14.5C49.948,14.5 49.5,14.052 49.5,13.5L49.5,5.5C49.5,4.948 49.948,4.5 50.5,4.5L58.5,4.5C59.052,4.5 59.5,4.948 59.5,5.5L59.5,13.5C59.5,14.052 59.052,14.5 58.5,14.5Z" style="fill:rgb(206,44,5);fill-rule:nonzero;"/>
            <path d="M58.5,15L50.5,15C49.673,15 49,14.327 49,13.5L49,5.5C49,4.673 49.673,4 50.5,4L58.5,4C59.327,4 60,4.673 60,5.5L60,13.5C60,14.327 59.327,15 58.5,15ZM50.5,5C50.225,5 50,5.225 50,5.5L50,13.5C50,13.775 50.225,14 50.5,14L58.5,14C58.775,14 59,13.775 59,13.5L59,5.5C59,5.225 58.775,5 58.5,5L50.5,5Z" style="fill:rgb(38,50,56);fill-rule:nonzero;"/>
        </g>
        <path d="M17,27.5C16.825,27.5 16.663,27.408 16.572,27.259L9.072,14.873C8.929,14.637 9.005,14.33 9.241,14.186C9.477,14.045 9.785,14.119 9.928,14.355L16.998,26.031L24.071,14.243C24.214,14.006 24.523,13.929 24.757,14.071C24.994,14.213 25.071,14.52 24.929,14.757L17.429,27.257C17.339,27.407 17.177,27.5 17,27.5Z" style="fill:rgb(38,50,56);fill-rule:nonzero;"/>
        <path d="M32,27.5C31.911,27.5 31.822,27.477 31.741,27.428C31.505,27.284 31.429,26.978 31.572,26.741L39.072,14.355C39.254,14.056 39.746,14.056 39.927,14.355L46.997,26.031L54.07,14.243C54.214,14.006 54.521,13.929 54.756,14.071C54.993,14.213 55.07,14.52 54.928,14.757L47.428,27.257C47.338,27.407 47.176,27.5 47,27.5C46.825,27.5 46.663,27.408 46.572,27.259L39.5,15.579L32.428,27.259C32.334,27.414 32.169,27.5 32,27.5Z" style="fill:rgb(38,50,56);fill-rule:nonzero;"/>
        <path d="M34.5,10L29.5,10C29.224,10 29,9.776 29,9.5C29,9.224 29.224,9 29.5,9L34.5,9C34.776,9 35,9.224 35,9.5C35,9.776 34.776,10 34.5,10Z" style="fill:rgb(38,50,56);fill-rule:nonzero;"/>
        <path d="M58.5,60L50.5,60C49.673,60 49,59.327 49,58.5L49,50.5C49,49.673 49.673,49 50.5,49L58.5,49C59.327,49 60,49.673 60,50.5L60,58.5C60,59.327 59.327,60 58.5,60ZM50.5,50C50.225,50 50,50.225 50,50.5L50,58.5C50,58.775 50.225,59 50.5,59L58.5,59C58.775,59 59,58.775 59,58.5L59,50.5C59,50.225 58.775,50 58.5,50L50.5,50Z" style="fill:rgb(38,50,56);fill-rule:nonzero;"/>
        <g>
            <path d="M35.5,49.5L43.5,49.5C44.052,49.5 44.5,49.948 44.5,50.5L44.5,58.5C44.5,59.052 44.052,59.5 43.5,59.5L35.5,59.5C34.948,59.5 34.5,59.052 34.5,58.5L34.5,50.5C34.5,49.948 34.948,49.5 35.5,49.5Z" style="fill:rgb(140,165,195);fill-rule:nonzero;"/>
            <path d="M43.5,60L35.5,60C34.673,60 34,59.327 34,58.5L34,50.5C34,49.673 34.673,49 35.5,49L43.5,49C44.327,49 45,49.673 45,50.5L45,58.5C45,59.327 44.327,60 43.5,60ZM35.5,50C35.225,50 35,50.225 35,50.5L35,58.5C35,58.775 35.225,59 35.5,59L43.5,59C43.775,59 44,58.775 44,58.5L44,50.5C44,50.225 43.775,50 43.5,50L35.5,50Z" style="fill:rgb(38,50,56);fill-rule:nonzero;"/>
        </g>
        <path d="M28.5,60L20.5,60C19.673,60 19,59.327 19,58.5L19,50.5C19,49.673 19.673,49 20.5,49L28.5,49C29.327,49 30,49.673 30,50.5L30,58.5C30,59.327 29.327,60 28.5,60ZM20.5,50C20.225,50 20,50.225 20,50.5L20,58.5C20,58.775 20.225,59 20.5,59L28.5,59C28.775,59 29,58.775 29,58.5L29,50.5C29,50.225 28.775,50 28.5,50L20.5,50Z" style="fill:rgb(38,50,56);fill-rule:nonzero;"/>
        <g>
            <path d="M5.5,49.5L13.5,49.5C14.052,49.5 14.5,49.948 14.5,50.5L14.5,58.5C14.5,59.052 14.052,59.5 13.5,59.5L5.5,59.5C4.948,59.5 4.5,59.052 4.5,58.5L4.5,50.5C4.5,49.948 4.948,49.5 5.5,49.5Z" style="fill:rgb(206,44,5);fill-rule:nonzero;"/>
            <path d="M13.5,60L5.5,60C4.673,60 4,59.327 4,58.5L4,50.5C4,49.673 4.673,49 5.5,49L13.5,49C14.327,49 15,49.673 15,50.5L15,58.5C15,59.327 14.327,60 13.5,60ZM5.5,50C5.225,50 5,50.225 5,50.5L5,58.5C5,58.775 5.225,59 5.5,59L13.5,59C13.775,59 14,58.775 14,58.5L14,50.5C14,50.225 13.775,50 13.5,50L5.5,50Z" style="fill:rgb(38,50,56);fill-rule:nonzero;"/>
        </g>
        <path d="M39.5,50C39.412,50 39.323,49.978 39.243,49.929C39.006,49.787 38.929,49.48 39.071,49.243L46.571,36.743C46.661,36.593 46.823,36.5 46.999,36.5L47,36.5C47.175,36.5 47.337,36.592 47.428,36.741L54.928,49.127C55.071,49.363 54.995,49.67 54.759,49.814C54.525,49.956 54.216,49.882 54.072,49.645L47.002,37.969L39.929,49.757C39.835,49.913 39.669,50 39.5,50Z" style="fill:rgb(38,50,56);fill-rule:nonzero;"/>
        <path d="M9.5,50C9.412,50 9.323,49.978 9.243,49.929C9.006,49.787 8.929,49.48 9.071,49.243L16.571,36.743C16.661,36.593 16.823,36.5 16.999,36.5L17,36.5C17.175,36.5 17.337,36.592 17.428,36.741L24.5,48.421L31.572,36.741C31.716,36.505 32.024,36.431 32.259,36.572C32.495,36.716 32.571,37.022 32.428,37.259L24.928,49.645C24.746,49.944 24.254,49.944 24.073,49.645L17.003,37.969L9.929,49.757C9.835,49.913 9.669,50 9.5,50Z" style="fill:rgb(38,50,56);fill-rule:nonzero;"/>
        <path d="M19.5,55L14.5,55C14.224,55 14,54.776 14,54.5C14,54.224 14.224,54 14.5,54L19.5,54C19.776,54 20,54.224 20,54.5C20,54.776 19.776,55 19.5,55Z" style="fill:rgb(38,50,56);fill-rule:nonzero;"/>
        <path d="M49.5,55L44.5,55C44.224,55 44,54.776 44,54.5C44,54.224 44.224,54 44.5,54L49.5,54C49.776,54 50,54.224 50,54.5C50,54.776 49.776,55 49.5,55Z" style="fill:rgb(38,50,56);fill-rule:nonzero;"/>
    </g>
</svg>
