<?xml version="1.0" encoding="UTF-8" standalone="no"?>
<!DOCTYPE svg PUBLIC "-//W3C//DTD SVG 1.1//EN" "http://www.w3.org/Graphics/SVG/1.1/DTD/svg11.dtd">
<svg width="100%" height="100%" viewBox="0 0 64 64" version="1.1" xmlns="http://www.w3.org/2000/svg" xmlns:xlink="http://www.w3.org/1999/xlink" xml:space="preserve" xmlns:serif="http://www.serif.com/" style="fill-rule:evenodd;clip-rule:evenodd;stroke-linejoin:round;stroke-miterlimit:1.41421;">
    <g>
        <path d="M50,20L2,20C1.724,20 1.5,19.776 1.5,19.5L1.5,14C1.5,12.346 2.846,11 4.5,11L47.5,11C49.154,11 50.5,12.346 50.5,14L50.5,19.5C50.5,19.776 50.276,20 50,20ZM2.5,19L49.5,19L49.5,14C49.5,12.897 48.603,12 47.5,12L4.5,12C3.397,12 2.5,12.897 2.5,14L2.5,19Z" style="fill:rgb(38,50,56);fill-rule:nonzero;"/>
        <path d="M6.5,17.5C5.397,17.5 4.5,16.603 4.5,15.5C4.5,14.397 5.397,13.5 6.5,13.5C7.603,13.5 8.5,14.397 8.5,15.5C8.5,16.603 7.603,17.5 6.5,17.5ZM6.5,14.5C5.949,14.5 5.5,14.948 5.5,15.5C5.5,16.052 5.949,16.5 6.5,16.5C7.051,16.5 7.5,16.052 7.5,15.5C7.5,14.948 7.051,14.5 6.5,14.5Z" style="fill:rgb(38,50,56);fill-rule:nonzero;"/>
        <path d="M11.5,17.5C10.397,17.5 9.5,16.603 9.5,15.5C9.5,14.397 10.397,13.5 11.5,13.5C12.603,13.5 13.5,14.397 13.5,15.5C13.5,16.603 12.603,17.5 11.5,17.5ZM11.5,14.5C10.949,14.5 10.5,14.948 10.5,15.5C10.5,16.052 10.949,16.5 11.5,16.5C12.051,16.5 12.5,16.052 12.5,15.5C12.5,14.948 12.051,14.5 11.5,14.5Z" style="fill:rgb(38,50,56);fill-rule:nonzero;"/>
        <path d="M51,5L47,5C46.724,5 46.5,4.776 46.5,4.5C46.5,4.224 46.724,4 47,4L51,4C51.276,4 51.5,4.224 51.5,4.5C51.5,4.776 51.276,5 51,5Z" style="fill:rgb(38,50,56);fill-rule:nonzero;"/>
        <path d="M49,7C48.724,7 48.5,6.776 48.5,6.5L48.5,2.5C48.5,2.224 48.724,2 49,2C49.276,2 49.5,2.224 49.5,2.5L49.5,6.5C49.5,6.776 49.276,7 49,7Z" style="fill:rgb(38,50,56);fill-rule:nonzero;"/>
        <path d="M58,11.5L54,11.5C53.724,11.5 53.5,11.276 53.5,11C53.5,10.724 53.724,10.5 54,10.5L58,10.5C58.276,10.5 58.5,10.724 58.5,11C58.5,11.276 58.276,11.5 58,11.5Z" style="fill:rgb(38,50,56);fill-rule:nonzero;"/>
        <path d="M56,13.5C55.724,13.5 55.5,13.276 55.5,13L55.5,9C55.5,8.724 55.724,8.5 56,8.5C56.276,8.5 56.5,8.724 56.5,9L56.5,13C56.5,13.276 56.276,13.5 56,13.5Z" style="fill:rgb(38,50,56);fill-rule:nonzero;"/>
        <path d="M38,56L36,56C35.724,56 35.5,55.776 35.5,55.5C35.5,55.224 35.724,55 36,55L38,55C38.276,55 38.5,55.224 38.5,55.5C38.5,55.776 38.276,56 38,56Z" style="fill:rgb(38,50,56);fill-rule:nonzero;"/>
        <path d="M34,56L14,56C13.724,56 13.5,55.776 13.5,55.5C13.5,55.224 13.724,55 14,55L34,55C34.276,55 34.5,55.224 34.5,55.5C34.5,55.776 34.276,56 34,56Z" style="fill:rgb(38,50,56);fill-rule:nonzero;"/>
        <path d="M11,8L9,8C8.724,8 8.5,7.776 8.5,7.5C8.5,7.224 8.724,7 9,7L11,7C11.276,7 11.5,7.224 11.5,7.5C11.5,7.776 11.276,8 11,8Z" style="fill:rgb(38,50,56);fill-rule:nonzero;"/>
        <path d="M33,8L13,8C12.724,8 12.5,7.776 12.5,7.5C12.5,7.224 12.724,7 13,7L33,7C33.276,7 33.5,7.224 33.5,7.5C33.5,7.776 33.276,8 33,8Z" style="fill:rgb(38,50,56);fill-rule:nonzero;"/>
        <g>
            <path d="M16,29.5L8,29.5C7.448,29.5 7,29.052 7,28.5L7,25.5C7,24.948 7.448,24.5 8,24.5L16,24.5C16.552,24.5 17,24.948 17,25.5L17,28.5C17,29.052 16.552,29.5 16,29.5Z" style="fill:rgb(248,188,3);fill-rule:nonzero;"/>
            <path d="M16,30L8,30C7.173,30 6.5,29.327 6.5,28.5L6.5,25.5C6.5,24.673 7.173,24 8,24L16,24C16.827,24 17.5,24.673 17.5,25.5L17.5,28.5C17.5,29.327 16.827,30 16,30ZM8,25C7.724,25 7.5,25.225 7.5,25.5L7.5,28.5C7.5,28.775 7.724,29 8,29L16,29C16.276,29 16.5,28.775 16.5,28.5L16.5,25.5C16.5,25.225 16.276,25 16,25L8,25Z" style="fill:rgb(38,50,56);fill-rule:nonzero;"/>
        </g>
        <g>
            <path d="M30,29.5L22,29.5C21.448,29.5 21,29.052 21,28.5L21,25.5C21,24.948 21.448,24.5 22,24.5L30,24.5C30.552,24.5 31,24.948 31,25.5L31,28.5C31,29.052 30.552,29.5 30,29.5Z" style="fill:rgb(206,44,5);fill-rule:nonzero;"/>
            <path d="M30,30L22,30C21.173,30 20.5,29.327 20.5,28.5L20.5,25.5C20.5,24.673 21.173,24 22,24L30,24C30.827,24 31.5,24.673 31.5,25.5L31.5,28.5C31.5,29.327 30.827,30 30,30ZM22,25C21.724,25 21.5,25.225 21.5,25.5L21.5,28.5C21.5,28.775 21.724,29 22,29L30,29C30.276,29 30.5,28.775 30.5,28.5L30.5,25.5C30.5,25.225 30.276,25 30,25L22,25Z" style="fill:rgb(38,50,56);fill-rule:nonzero;"/>
        </g>
        <g>
            <path d="M44,29.5L36,29.5C35.448,29.5 35,29.052 35,28.5L35,25.5C35,24.948 35.448,24.5 36,24.5L44,24.5C44.552,24.5 45,24.948 45,25.5L45,28.5C45,29.052 44.552,29.5 44,29.5Z" style="fill:rgb(140,165,195);fill-rule:nonzero;"/>
            <path d="M44,30L36,30C35.173,30 34.5,29.327 34.5,28.5L34.5,25.5C34.5,24.673 35.173,24 36,24L44,24C44.827,24 45.5,24.673 45.5,25.5L45.5,28.5C45.5,29.327 44.827,30 44,30ZM36,25C35.725,25 35.5,25.225 35.5,25.5L35.5,28.5C35.5,28.775 35.725,29 36,29L44,29C44.275,29 44.5,28.775 44.5,28.5L44.5,25.5C44.5,25.225 44.275,25 44,25L36,25Z" style="fill:rgb(38,50,56);fill-rule:nonzero;"/>
        </g>
        <g>
            <path d="M61,41L39,41C38.448,41 38,41.448 38,42L38,44C38,44.552 38.448,45 39,45L61,45C61.552,45 62,44.552 62,44L62,42C62,41.448 61.552,41 61,41Z" style="fill:rgb(206,44,5);fill-rule:nonzero;"/>
            <path d="M61,45.5L39,45.5C38.173,45.5 37.5,44.827 37.5,44L37.5,42C37.5,41.173 38.173,40.5 39,40.5L61,40.5C61.827,40.5 62.5,41.173 62.5,42L62.5,44C62.5,44.827 61.827,45.5 61,45.5ZM39,41.5C38.725,41.5 38.5,41.725 38.5,42L38.5,44C38.5,44.275 38.725,44.5 39,44.5L61,44.5C61.275,44.5 61.5,44.275 61.5,44L61.5,42C61.5,41.725 61.275,41.5 61,41.5L39,41.5Z" style="fill:rgb(38,50,56);fill-rule:nonzero;"/>
        </g>
        <g>
            <path d="M39.804,45L47.5,53L47.5,59L52.5,61.5L52.5,53L60.196,45L39.804,45Z" style="fill:rgb(206,44,5);fill-rule:nonzero;"/>
            <path d="M52.5,62C52.424,62 52.347,61.982 52.276,61.947L47.276,59.447C47.107,59.362 47,59.189 47,59L47,53.201L39.444,45.347C39.305,45.202 39.266,44.989 39.344,44.804C39.422,44.62 39.604,44.5 39.804,44.5L60.195,44.5C60.395,44.5 60.577,44.62 60.655,44.804C60.733,44.989 60.694,45.202 60.555,45.347L53,53.201L53,61.5C53,61.673 52.91,61.834 52.763,61.926C52.683,61.975 52.592,62 52.5,62ZM48,58.691L52,60.691L52,53C52,52.871 52.05,52.746 52.14,52.653L59.021,45.5L40.979,45.5L47.86,52.653C47.95,52.746 48,52.871 48,53L48,58.691Z" style="fill:rgb(38,50,56);fill-rule:nonzero;"/>
        </g>
        <path d="M43.041,52L4.5,52C2.846,52 1.5,50.654 1.5,49L1.5,19.5C1.5,19.224 1.724,19 2,19L50,19C50.276,19 50.5,19.224 50.5,19.5L50.5,39C50.5,39.276 50.276,39.5 50,39.5C49.724,39.5 49.5,39.276 49.5,39L49.5,20L2.5,20L2.5,49C2.5,50.103 3.397,51 4.5,51L43.041,51C43.317,51 43.541,51.224 43.541,51.5C43.541,51.776 43.317,52 43.041,52Z" style="fill:rgb(38,50,56);fill-rule:nonzero;"/>
        <path d="M31,36.5L7,36.5C6.724,36.5 6.5,36.276 6.5,36C6.5,35.724 6.724,35.5 7,35.5L31,35.5C31.276,35.5 31.5,35.724 31.5,36C31.5,36.276 31.276,36.5 31,36.5Z" style="fill:rgb(38,50,56);fill-rule:nonzero;"/>
        <path d="M31,40.5L7,40.5C6.724,40.5 6.5,40.276 6.5,40C6.5,39.724 6.724,39.5 7,39.5L31,39.5C31.276,39.5 31.5,39.724 31.5,40C31.5,40.276 31.276,40.5 31,40.5Z" style="fill:rgb(38,50,56);fill-rule:nonzero;"/>
        <path d="M31,44.5L7,44.5C6.724,44.5 6.5,44.276 6.5,44C6.5,43.724 6.724,43.5 7,43.5L31,43.5C31.276,43.5 31.5,43.724 31.5,44C31.5,44.276 31.276,44.5 31,44.5Z" style="fill:rgb(38,50,56);fill-rule:nonzero;"/>
    </g>
</svg>
