<?xml version="1.0" encoding="UTF-8" standalone="no"?>
<!DOCTYPE svg PUBLIC "-//W3C//DTD SVG 1.1//EN" "http://www.w3.org/Graphics/SVG/1.1/DTD/svg11.dtd">
<svg width="100%" height="100%" viewBox="0 0 64 64" version="1.1" xmlns="http://www.w3.org/2000/svg" xmlns:xlink="http://www.w3.org/1999/xlink" xml:space="preserve" xmlns:serif="http://www.serif.com/" style="fill-rule:evenodd;clip-rule:evenodd;stroke-linejoin:round;stroke-miterlimit:1.41421;">
    <g>
        <path d="M44,61.5C43.724,61.5 43.5,61.276 43.5,61L43.5,51.25C43.5,49.473 42.451,47.858 40.827,47.138L35.16,44.619C34.384,45.551 33.231,46.096 32.004,46.096C32.002,46.096 32,46.096 31.999,46.096C30.768,46.095 29.614,45.546 28.839,44.611L23.168,47.136C21.548,47.859 20.5,49.472 20.5,51.246L20.5,61C20.5,61.276 20.276,61.5 20,61.5C19.724,61.5 19.5,61.276 19.5,61L19.5,51.246C19.5,49.077 20.78,47.105 22.762,46.222L28.797,43.534C29.037,43.426 29.328,43.527 29.447,43.767C30.004,44.592 30.945,45.095 32,45.096C32.001,45.096 32.002,45.096 32.004,45.096C33.057,45.096 33.997,44.596 34.585,43.722C34.722,43.522 34.983,43.447 35.203,43.544L41.233,46.224C43.217,47.105 44.5,49.078 44.5,51.25L44.5,61C44.5,61.276 44.276,61.5 44,61.5Z" style="fill:rgb(38,50,56);fill-rule:nonzero;"/>
        <path d="M32,43.495C27.313,43.495 23.5,39.682 23.5,34.995C23.5,30.308 27.313,26.495 32,26.495C36.687,26.495 40.5,30.308 40.5,34.995C40.5,39.682 36.687,43.495 32,43.495ZM32,27.495C27.864,27.495 24.5,30.859 24.5,34.995C24.5,39.131 27.864,42.495 32,42.495C36.136,42.495 39.5,39.131 39.5,34.995C39.5,30.859 36.136,27.495 32,27.495Z" style="fill:rgb(38,50,56);fill-rule:nonzero;"/>
        <path d="M24.755,35.495L24,35.495C23.724,35.495 23.5,35.271 23.5,34.995C23.5,30.308 27.313,26.495 32,26.495C34.526,26.495 36.905,27.61 38.527,29.554C38.612,29.656 38.653,29.787 38.641,29.92C38.628,30.052 38.565,30.174 38.462,30.259L37.865,30.754C34.191,33.812 29.535,35.495 24.755,35.495ZM24.517,34.495L24.755,34.495C29.302,34.495 33.732,32.893 37.228,29.984L37.426,29.82C36.012,28.337 34.062,27.495 32,27.495C28.032,27.495 24.774,30.592 24.517,34.495Z" style="fill:rgb(38,50,56);fill-rule:nonzero;"/>
        <path d="M25,61.5C24.724,61.5 24.5,61.276 24.5,61L24.5,54C24.5,53.724 24.724,53.5 25,53.5C25.276,53.5 25.5,53.724 25.5,54L25.5,61C25.5,61.276 25.276,61.5 25,61.5Z" style="fill:rgb(38,50,56);fill-rule:nonzero;"/>
        <path d="M39,61.5C38.724,61.5 38.5,61.276 38.5,61L38.5,54C38.5,53.724 38.724,53.5 39,53.5C39.276,53.5 39.5,53.724 39.5,54L39.5,61C39.5,61.276 39.276,61.5 39,61.5Z" style="fill:rgb(38,50,56);fill-rule:nonzero;"/>
        <path d="M32.004,46.096C32.003,46.096 32.001,46.096 32,46.096C30.627,46.095 29.352,45.413 28.587,44.273C28.531,44.191 28.5,44.091 28.5,43.992L28.5,42.413C28.5,42.072 28.882,41.824 29.197,41.949C30.997,42.677 33.014,42.674 34.812,41.946C34.964,41.882 35.14,41.901 35.279,41.994C35.417,42.087 35.5,42.243 35.5,42.409L35.5,44.002C35.5,44.102 35.471,44.198 35.415,44.281C34.649,45.417 33.374,46.096 32.004,46.096ZM29.5,43.833C30.092,44.638 30.995,45.095 32.001,45.096C32.002,45.096 32.003,45.096 32.004,45.096C33.007,45.096 33.908,44.642 34.5,43.843L34.5,43.117C32.879,43.619 31.121,43.619 29.5,43.117L29.5,43.833Z" style="fill:rgb(38,50,56);fill-rule:nonzero;"/>
        <g>
            <path d="M37.001,11.995C37.001,8.88 34.153,6.43 30.918,7.109C29.01,7.509 27.481,9.067 27.102,10.979C26.766,12.675 27.293,14.242 28.316,15.351C29.041,16.137 29.501,17.129 29.501,18.199L29.501,18.496L34.501,18.496L34.501,18.2C34.501,17.125 34.971,16.132 35.697,15.339C36.505,14.456 37.001,13.287 37.001,11.995Z" style="fill:rgb(248,188,3);fill-rule:nonzero;"/>
            <path d="M34.501,18.995L29.501,18.995C29.225,18.995 29.001,18.771 29.001,18.495L29.001,18.198C29.001,17.317 28.627,16.427 27.948,15.689C26.75,14.39 26.263,12.637 26.611,10.881C27.029,8.771 28.718,7.058 30.815,6.619C32.476,6.27 34.171,6.671 35.465,7.723C36.758,8.773 37.5,10.33 37.5,11.994C37.5,13.356 36.99,14.664 36.065,15.676C35.579,16.206 35,17.074 35,18.199L35,18.494C35.001,18.771 34.777,18.995 34.501,18.995ZM29.996,17.995L34.006,17.995C34.058,16.924 34.512,15.892 35.328,15.001C36.085,14.175 36.501,13.107 36.501,11.995C36.501,10.633 35.894,9.359 34.836,8.5C33.776,7.641 32.386,7.313 31.021,7.599C29.311,7.957 27.934,9.354 27.592,11.077C27.307,12.516 27.704,13.951 28.683,15.013C29.482,15.879 29.943,16.931 29.996,17.995Z" style="fill:rgb(38,50,56);fill-rule:nonzero;"/>
        </g>
        <path d="M32.001,23.995C30.347,23.995 29.001,22.649 29.001,20.995L29.001,18.495C29.001,18.219 29.225,17.995 29.501,17.995L34.501,17.995C34.777,17.995 35.001,18.219 35.001,18.495L35.001,20.995C35.001,22.649 33.655,23.995 32.001,23.995ZM30.001,18.995L30.001,20.995C30.001,22.098 30.898,22.995 32.001,22.995C33.104,22.995 34.001,22.098 34.001,20.995L34.001,18.995L30.001,18.995Z" style="fill:rgb(38,50,56);fill-rule:nonzero;"/>
        <path d="M34.501,21.495L29.501,21.495C29.225,21.495 29.001,21.271 29.001,20.995C29.001,20.719 29.225,20.495 29.501,20.495L34.501,20.495C34.777,20.495 35.001,20.719 35.001,20.995C35.001,21.271 34.777,21.495 34.501,21.495Z" style="fill:rgb(38,50,56);fill-rule:nonzero;"/>
        <path d="M32.001,18.995C31.725,18.995 31.501,18.771 31.501,18.495L31.501,13.495C31.501,13.219 31.725,12.995 32.001,12.995C32.277,12.995 32.501,13.219 32.501,13.495L32.501,18.495C32.501,18.771 32.277,18.995 32.001,18.995Z" style="fill:rgb(38,50,56);fill-rule:nonzero;"/>
        <g>
            <circle cx="10.5" cy="29" r="10" style="fill:rgb(214,79,47);"/>
            <path d="M10.5,39.5C4.71,39.5 0,34.79 0,29C0,23.21 4.71,18.5 10.5,18.5C16.29,18.5 21,23.21 21,29C21,34.79 16.29,39.5 10.5,39.5ZM10.5,19.5C5.262,19.5 1,23.762 1,29C1,34.238 5.262,38.5 10.5,38.5C15.738,38.5 20,34.238 20,29C20,23.762 15.738,19.5 10.5,19.5Z" style="fill:rgb(38,50,56);fill-rule:nonzero;"/>
        </g>
        <path d="M10.5,31.5C10.224,31.5 10,31.276 10,31L10,29.5C10,29.224 10.224,29 10.5,29C11.879,29 13,27.879 13,26.5C13,25.121 11.879,24 10.5,24C9.121,24 8,25.121 8,26.5C8,26.776 7.776,27 7.5,27C7.224,27 7,26.776 7,26.5C7,24.57 8.57,23 10.5,23C12.43,23 14,24.57 14,26.5C14,28.26 12.694,29.721 11,29.965L11,31C11,31.276 10.776,31.5 10.5,31.5Z" style="fill:rgb(38,50,56);fill-rule:nonzero;"/>
        <circle cx="10.5" cy="33.75" r="0.75" style="fill:rgb(38,50,56);"/>
        <g>
            <g transform="matrix(0.7071,-0.7071,0.7071,0.7071,-4.8363,46.3241)">
                <circle cx="53.5" cy="29" r="10" style="fill:rgb(140,165,195);"/>
            </g>
            <path d="M53.5,39.495C50.812,39.495 48.122,38.472 46.075,36.425C41.981,32.331 41.981,25.669 46.075,21.575C50.169,17.481 56.831,17.481 60.925,21.575C65.019,25.669 65.019,32.331 60.925,36.425C58.878,38.472 56.188,39.495 53.5,39.495ZM53.5,19.504C51.067,19.504 48.635,20.43 46.782,22.282C43.078,25.986 43.078,32.013 46.782,35.718C50.487,39.423 56.512,39.423 60.218,35.718C63.922,32.014 63.922,25.987 60.218,22.282C58.365,20.43 55.933,19.504 53.5,19.504Z" style="fill:rgb(38,50,56);fill-rule:nonzero;"/>
        </g>
        <path d="M51.732,33.035C51.604,33.035 51.476,32.986 51.378,32.889L47.842,29.354C47.647,29.159 47.647,28.842 47.842,28.647C48.037,28.452 48.354,28.452 48.549,28.647L51.732,31.829L58.45,25.112C58.645,24.917 58.962,24.917 59.157,25.112C59.352,25.307 59.352,25.624 59.157,25.819L52.086,32.889C51.988,32.986 51.86,33.035 51.732,33.035Z" style="fill:rgb(38,50,56);fill-rule:nonzero;"/>
        <path d="M11.25,16.995C10.974,16.995 10.75,16.771 10.75,16.495L10.75,13.995C10.75,13.168 11.423,12.495 12.25,12.495L23.25,12.495C23.526,12.495 23.75,12.719 23.75,12.995C23.75,13.271 23.526,13.495 23.25,13.495L12.25,13.495C11.975,13.495 11.75,13.72 11.75,13.995L11.75,16.495C11.75,16.771 11.526,16.995 11.25,16.995Z" style="fill:rgb(38,50,56);fill-rule:nonzero;"/>
        <path d="M53.5,16.995C53.224,16.995 53,16.771 53,16.495L53,13.995C53,13.72 52.775,13.495 52.5,13.495L41.5,13.495C41.224,13.495 41,13.271 41,12.995C41,12.719 41.224,12.495 41.5,12.495L52.5,12.495C53.327,12.495 54,13.168 54,13.995L54,16.495C54,16.771 53.776,16.995 53.5,16.995Z" style="fill:rgb(38,50,56);fill-rule:nonzero;"/>
        <path d="M12,5.5L8,5.5C7.724,5.5 7.5,5.276 7.5,5C7.5,4.724 7.724,4.5 8,4.5L12,4.5C12.276,4.5 12.5,4.724 12.5,5C12.5,5.276 12.276,5.5 12,5.5Z" style="fill:rgb(38,50,56);fill-rule:nonzero;"/>
        <path d="M10,7.5C9.724,7.5 9.5,7.276 9.5,7L9.5,3C9.5,2.724 9.724,2.5 10,2.5C10.276,2.5 10.5,2.724 10.5,3L10.5,7C10.5,7.276 10.276,7.5 10,7.5Z" style="fill:rgb(38,50,56);fill-rule:nonzero;"/>
        <path d="M5,12L1,12C0.724,12 0.5,11.776 0.5,11.5C0.5,11.224 0.724,11 1,11L5,11C5.276,11 5.5,11.224 5.5,11.5C5.5,11.776 5.276,12 5,12Z" style="fill:rgb(38,50,56);fill-rule:nonzero;"/>
        <path d="M3,14C2.724,14 2.5,13.776 2.5,13.5L2.5,9.5C2.5,9.224 2.724,9 3,9C3.276,9 3.5,9.224 3.5,9.5L3.5,13.5C3.5,13.776 3.276,14 3,14Z" style="fill:rgb(38,50,56);fill-rule:nonzero;"/>
        <path d="M61,53.5L60,53.5C59.724,53.5 59.5,53.276 59.5,53C59.5,52.724 59.724,52.5 60,52.5L61,52.5C61.276,52.5 61.5,52.724 61.5,53C61.5,53.276 61.276,53.5 61,53.5Z" style="fill:rgb(38,50,56);fill-rule:nonzero;"/>
        <path d="M58,53.5L47,53.5C46.724,53.5 46.5,53.276 46.5,53C46.5,52.724 46.724,52.5 47,52.5L58,52.5C58.276,52.5 58.5,52.724 58.5,53C58.5,53.276 58.276,53.5 58,53.5Z" style="fill:rgb(38,50,56);fill-rule:nonzero;"/>
        <path d="M4,53.5L3,53.5C2.724,53.5 2.5,53.276 2.5,53C2.5,52.724 2.724,52.5 3,52.5L4,52.5C4.276,52.5 4.5,52.724 4.5,53C4.5,53.276 4.276,53.5 4,53.5Z" style="fill:rgb(38,50,56);fill-rule:nonzero;"/>
        <path d="M17,53.5L6,53.5C5.724,53.5 5.5,53.276 5.5,53C5.5,52.724 5.724,52.5 6,52.5L17,52.5C17.276,52.5 17.5,52.724 17.5,53C17.5,53.276 17.276,53.5 17,53.5Z" style="fill:rgb(38,50,56);fill-rule:nonzero;"/>
    </g>
</svg>
