<?xml version="1.0" encoding="UTF-8" standalone="no"?>
<!DOCTYPE svg PUBLIC "-//W3C//DTD SVG 1.1//EN" "http://www.w3.org/Graphics/SVG/1.1/DTD/svg11.dtd">
<svg width="100%" height="100%" viewBox="0 0 64 64" version="1.1" xmlns="http://www.w3.org/2000/svg" xmlns:xlink="http://www.w3.org/1999/xlink" xml:space="preserve" xmlns:serif="http://www.serif.com/" style="fill-rule:evenodd;clip-rule:evenodd;stroke-linejoin:round;stroke-miterlimit:1.41421;">
    <g>
        <g>
            <path d="M32,59.5L32,49.75C32,47.774 30.836,45.983 29.03,45.181L23,42.501C21.567,44.631 18.431,44.627 17.002,42.494L17,42.491L10.966,45.179C9.162,45.982 8,47.772 8,49.746L8,59.5" style="fill:rgb(140,165,195);fill-rule:nonzero;"/>
            <path d="M32,60C31.724,60 31.5,59.776 31.5,59.5L31.5,49.75C31.5,47.973 30.451,46.358 28.827,45.638L23.16,43.119C22.383,44.051 21.232,44.596 20.004,44.596C20.002,44.596 20.001,44.596 19.999,44.596C18.768,44.595 17.615,44.046 16.839,43.111L11.169,45.636C9.547,46.357 8.5,47.972 8.5,49.746L8.5,59.5C8.5,59.776 8.276,60 8,60C7.724,60 7.5,59.776 7.5,59.5L7.5,49.746C7.5,47.577 8.78,45.604 10.762,44.722L16.796,42.034C17.007,41.938 17.259,42.004 17.4,42.191C18.005,43.092 18.946,43.595 20.001,43.596C20.002,43.596 20.003,43.596 20.005,43.596C21.058,43.596 21.998,43.096 22.587,42.222C22.723,42.021 22.983,41.947 23.205,42.044L29.235,44.724C31.219,45.605 32.502,47.578 32.502,49.75L32.502,59.5C32.5,59.776 32.276,60 32,60Z" style="fill:rgb(38,50,56);fill-rule:nonzero;"/>
        </g>
        <path d="M52,22L4,22C3.724,22 3.5,21.776 3.5,21.5L3.5,16C3.5,14.346 4.846,13 6.5,13L49.5,13C51.154,13 52.5,14.346 52.5,16L52.5,21.5C52.5,21.776 52.276,22 52,22ZM4.5,21L51.5,21L51.5,16C51.5,14.897 50.603,14 49.5,14L6.5,14C5.397,14 4.5,14.897 4.5,16L4.5,21Z" style="fill:rgb(38,50,56);fill-rule:nonzero;"/>
        <path d="M8.5,19.5C7.397,19.5 6.5,18.603 6.5,17.5C6.5,16.397 7.397,15.5 8.5,15.5C9.603,15.5 10.5,16.397 10.5,17.5C10.5,18.603 9.603,19.5 8.5,19.5ZM8.5,16.5C7.949,16.5 7.5,16.948 7.5,17.5C7.5,18.052 7.949,18.5 8.5,18.5C9.051,18.5 9.5,18.052 9.5,17.5C9.5,16.948 9.051,16.5 8.5,16.5Z" style="fill:rgb(38,50,56);fill-rule:nonzero;"/>
        <path d="M13.5,19.5C12.397,19.5 11.5,18.603 11.5,17.5C11.5,16.397 12.397,15.5 13.5,15.5C14.603,15.5 15.5,16.397 15.5,17.5C15.5,18.603 14.603,19.5 13.5,19.5ZM13.5,16.5C12.949,16.5 12.5,16.948 12.5,17.5C12.5,18.052 12.949,18.5 13.5,18.5C14.051,18.5 14.5,18.052 14.5,17.5C14.5,16.948 14.051,16.5 13.5,16.5Z" style="fill:rgb(38,50,56);fill-rule:nonzero;"/>
        <path d="M53,7L49,7C48.724,7 48.5,6.776 48.5,6.5C48.5,6.224 48.724,6 49,6L53,6C53.276,6 53.5,6.224 53.5,6.5C53.5,6.776 53.276,7 53,7Z" style="fill:rgb(38,50,56);fill-rule:nonzero;"/>
        <path d="M51,9C50.724,9 50.5,8.776 50.5,8.5L50.5,4.5C50.5,4.224 50.724,4 51,4C51.276,4 51.5,4.224 51.5,4.5L51.5,8.5C51.5,8.776 51.276,9 51,9Z" style="fill:rgb(38,50,56);fill-rule:nonzero;"/>
        <path d="M60,13.5L56,13.5C55.724,13.5 55.5,13.276 55.5,13C55.5,12.724 55.724,12.5 56,12.5L60,12.5C60.276,12.5 60.5,12.724 60.5,13C60.5,13.276 60.276,13.5 60,13.5Z" style="fill:rgb(38,50,56);fill-rule:nonzero;"/>
        <path d="M58,15.5C57.724,15.5 57.5,15.276 57.5,15L57.5,11C57.5,10.724 57.724,10.5 58,10.5C58.276,10.5 58.5,10.724 58.5,11L58.5,15C58.5,15.276 58.276,15.5 58,15.5Z" style="fill:rgb(38,50,56);fill-rule:nonzero;"/>
        <path d="M36,44L33,44C32.724,44 32.5,43.776 32.5,43.5L32.5,38.5C32.5,38.224 32.724,38 33,38L36,38C36.276,38 36.5,38.224 36.5,38.5L36.5,43.5C36.5,43.776 36.276,44 36,44ZM33.5,43L35.5,43L35.5,39L33.5,39L33.5,43Z" style="fill:rgb(38,50,56);fill-rule:nonzero;"/>
        <path d="M48,44L45,44C44.724,44 44.5,43.776 44.5,43.5L44.5,35.5C44.5,35.224 44.724,35 45,35L48,35C48.276,35 48.5,35.224 48.5,35.5L48.5,43.5C48.5,43.776 48.276,44 48,44ZM45.5,43L47.5,43L47.5,36L45.5,36L45.5,43Z" style="fill:rgb(38,50,56);fill-rule:nonzero;"/>
        <g>
            <rect x="39" y="32" width="3" height="11.5" style="fill:rgb(89,86,115);"/>
            <path d="M42,44L39,44C38.724,44 38.5,43.776 38.5,43.5L38.5,32C38.5,31.724 38.724,31.5 39,31.5L42,31.5C42.276,31.5 42.5,31.724 42.5,32L42.5,43.5C42.5,43.776 42.276,44 42,44ZM39.5,43L41.5,43L41.5,32.5L39.5,32.5L39.5,43Z" style="fill:rgb(38,50,56);fill-rule:nonzero;"/>
        </g>
        <path d="M60,58L58,58C57.724,58 57.5,57.776 57.5,57.5C57.5,57.224 57.724,57 58,57L60,57C60.276,57 60.5,57.224 60.5,57.5C60.5,57.776 60.276,58 60,58Z" style="fill:rgb(38,50,56);fill-rule:nonzero;"/>
        <path d="M56,58L36,58C35.724,58 35.5,57.776 35.5,57.5C35.5,57.224 35.724,57 36,57L56,57C56.276,57 56.5,57.224 56.5,57.5C56.5,57.776 56.276,58 56,58Z" style="fill:rgb(38,50,56);fill-rule:nonzero;"/>
        <path d="M13,10L11,10C10.724,10 10.5,9.776 10.5,9.5C10.5,9.224 10.724,9 11,9L13,9C13.276,9 13.5,9.224 13.5,9.5C13.5,9.776 13.276,10 13,10Z" style="fill:rgb(38,50,56);fill-rule:nonzero;"/>
        <path d="M35,10L15,10C14.724,10 14.5,9.776 14.5,9.5C14.5,9.224 14.724,9 15,9L35,9C35.276,9 35.5,9.224 35.5,9.5C35.5,9.776 35.276,10 35,10Z" style="fill:rgb(38,50,56);fill-rule:nonzero;"/>
        <path d="M20,41.995C15.313,41.995 11.5,38.182 11.5,33.495C11.5,28.808 15.313,24.995 20,24.995C24.687,24.995 28.5,28.808 28.5,33.495C28.5,38.182 24.687,41.995 20,41.995ZM20,25.995C15.864,25.995 12.5,29.359 12.5,33.495C12.5,37.631 15.864,40.995 20,40.995C24.136,40.995 27.5,37.631 27.5,33.495C27.5,29.359 24.136,25.995 20,25.995Z" style="fill:rgb(38,50,56);fill-rule:nonzero;"/>
        <g>
            <path d="M25.547,28.87L26.143,28.374C24.675,26.616 22.469,25.496 20,25.496C15.582,25.496 12,29.078 12,33.496L12.755,33.496C17.429,33.495 21.955,31.859 25.547,28.87Z" style="fill:rgb(248,188,3);fill-rule:nonzero;"/>
            <path d="M12.755,33.995L12,33.995C11.724,33.995 11.5,33.771 11.5,33.495C11.5,28.808 15.313,24.995 20,24.995C22.526,24.995 24.905,26.11 26.527,28.054C26.612,28.156 26.653,28.287 26.641,28.42C26.629,28.552 26.564,28.674 26.462,28.759L25.866,29.254C22.192,32.312 17.536,33.995 12.755,33.995ZM12.517,32.995L12.756,32.995C17.303,32.995 21.733,31.393 25.228,28.484L25.426,28.32C24.012,26.837 22.062,25.995 20.001,25.995C16.033,25.995 12.775,29.092 12.517,32.995Z" style="fill:rgb(38,50,56);fill-rule:nonzero;"/>
        </g>
        <path d="M13,60C12.724,60 12.5,59.776 12.5,59.5L12.5,52.5C12.5,52.224 12.724,52 13,52C13.276,52 13.5,52.224 13.5,52.5L13.5,59.5C13.5,59.776 13.276,60 13,60Z" style="fill:rgb(38,50,56);fill-rule:nonzero;"/>
        <path d="M27,60C26.724,60 26.5,59.776 26.5,59.5L26.5,52.5C26.5,52.224 26.724,52 27,52C27.276,52 27.5,52.224 27.5,52.5L27.5,59.5C27.5,59.776 27.276,60 27,60Z" style="fill:rgb(38,50,56);fill-rule:nonzero;"/>
        <path d="M20.004,44.596C20.002,44.596 20.001,44.596 19.999,44.596C18.626,44.595 17.351,43.913 16.587,42.773C16.532,42.69 16.5,42.59 16.5,42.491L16.5,40.912C16.5,40.571 16.878,40.323 17.196,40.448C18.998,41.176 21.015,41.173 22.812,40.445C22.966,40.381 23.142,40.401 23.279,40.493C23.417,40.587 23.5,40.742 23.5,40.908L23.5,42.501C23.5,42.601 23.47,42.697 23.415,42.78C22.649,43.917 21.375,44.596 20.004,44.596ZM17.5,42.333C18.092,43.138 18.994,43.595 20,43.596C20.001,43.596 20.002,43.596 20.004,43.596C21.007,43.596 21.909,43.142 22.5,42.343L22.5,41.617C20.879,42.118 19.123,42.119 17.5,41.617L17.5,42.333Z" style="fill:rgb(38,50,56);fill-rule:nonzero;"/>
        <path d="M49.5,54L34,54C33.724,54 33.5,53.776 33.5,53.5C33.5,53.224 33.724,53 34,53L49.5,53C50.603,53 51.5,52.103 51.5,51L51.5,22L4.5,22L4.5,51C4.5,51.947 5.173,52.771 6.1,52.959C6.371,53.014 6.545,53.278 6.491,53.549C6.436,53.82 6.175,53.995 5.901,53.94C4.51,53.657 3.5,52.421 3.5,51L3.5,21.5C3.5,21.224 3.724,21 4,21L52,21C52.276,21 52.5,21.224 52.5,21.5L52.5,51C52.5,52.654 51.154,54 49.5,54Z" style="fill:rgb(38,50,56);fill-rule:nonzero;"/>
        <path d="M33,32.5C32.85,32.5 32.702,32.433 32.603,32.305C32.435,32.086 32.476,31.773 32.695,31.604L39.195,26.604C39.319,26.509 39.481,26.476 39.631,26.518L44.88,27.95L47.68,25.617C47.893,25.439 48.207,25.47 48.385,25.68C48.562,25.892 48.533,26.207 48.321,26.384L45.321,28.884C45.196,28.989 45.026,29.027 44.869,28.983L39.608,27.548L33.305,32.397C33.214,32.466 33.107,32.5 33,32.5Z" style="fill:rgb(38,50,56);fill-rule:nonzero;"/>
    </g>
</svg>
